<?xml version="1.0" encoding="utf-8"?>
<!-- Generator: Adobe Illustrator 21.1.0, SVG Export Plug-In . SVG Version: 6.00 Build 0)  -->
<svg version="1.1" id="Layer_1" xmlns="http://www.w3.org/2000/svg" xmlns:xlink="http://www.w3.org/1999/xlink" x="0px" y="0px"
	 viewBox="0 0 711 555" style="enable-background:new 0 0 711 555;" xml:space="preserve">
<style type="text/css">
	.st0{clip-path:url(#SVGID_2_);fill:#FFFFFF;}
	.st1{fill:#FFFFFF;}
	.st2{fill:none;stroke:#262626;stroke-width:0.6667;stroke-linecap:square;stroke-linejoin:round;stroke-miterlimit:10;}
	.st3{fill:#262626;}
	.st4{font-family:'MyriadPro-Regular';}
	.st5{font-size:21px;}
	.st6{font-size:16px;}
	.st7{font-size:23px;}
	.st8{fill:none;stroke:#0000FF;stroke-width:2.6667;stroke-linejoin:round;stroke-miterlimit:10;}
	.st9{fill:none;stroke:#FF0000;stroke-width:2.6667;stroke-linejoin:round;stroke-miterlimit:10;}
	.st10{fill:none;stroke:#000000;stroke-width:2;stroke-linejoin:bevel;stroke-miterlimit:1;stroke-dasharray:8,8;}
	.st11{font-size:19px;}
	.st12{fill:none;stroke:#262626;stroke-width:0.6667;stroke-miterlimit:10;}
</style>
<g>
	<g>
		<g>
			<defs>
				<rect id="SVGID_1_" y="0" width="711" height="555"/>
			</defs>
			<clipPath id="SVGID_2_">
				<use xlink:href="#SVGID_1_"  style="overflow:visible;"/>
			</clipPath>
			<rect y="0" class="st0" width="711" height="555"/>
		</g>
	</g>
	<g>
		<rect y="0" class="st1" width="711" height="555"/>
		<path class="st1" d="M92,485h551V42H92V485z"/>
	</g>
	<g>
		<line class="st2" x1="92" y1="485" x2="643" y2="485"/>
		<line class="st2" x1="92" y1="42" x2="643" y2="42"/>
		<line class="st2" x1="135.9" y1="485" x2="135.9" y2="479.5"/>
		<line class="st2" x1="281.7" y1="485" x2="281.7" y2="479.5"/>
		<line class="st2" x1="427.6" y1="485" x2="427.6" y2="479.5"/>
		<line class="st2" x1="573.4" y1="485" x2="573.4" y2="479.5"/>
		<line class="st2" x1="135.9" y1="42" x2="135.9" y2="47.5"/>
		<line class="st2" x1="281.7" y1="42" x2="281.7" y2="47.5"/>
		<line class="st2" x1="427.6" y1="42" x2="427.6" y2="47.5"/>
		<line class="st2" x1="573.4" y1="42" x2="573.4" y2="47.5"/>
		<line class="st2" x1="103.5" y1="485" x2="103.5" y2="482.2"/>
		<line class="st2" x1="113.3" y1="485" x2="113.3" y2="482.2"/>
		<line class="st2" x1="121.8" y1="485" x2="121.8" y2="482.2"/>
		<line class="st2" x1="129.2" y1="485" x2="129.2" y2="482.2"/>
		<line class="st2" x1="179.8" y1="485" x2="179.8" y2="482.2"/>
		<line class="st2" x1="205.5" y1="485" x2="205.5" y2="482.2"/>
		<line class="st2" x1="223.7" y1="485" x2="223.7" y2="482.2"/>
		<line class="st2" x1="237.8" y1="485" x2="237.8" y2="482.2"/>
		<line class="st2" x1="249.4" y1="485" x2="249.4" y2="482.2"/>
		<line class="st2" x1="259.1" y1="485" x2="259.1" y2="482.2"/>
		<line class="st2" x1="267.6" y1="485" x2="267.6" y2="482.2"/>
		<line class="st2" x1="275.1" y1="485" x2="275.1" y2="482.2"/>
		<line class="st2" x1="325.6" y1="485" x2="325.6" y2="482.2"/>
		<line class="st2" x1="351.3" y1="485" x2="351.3" y2="482.2"/>
		<line class="st2" x1="369.5" y1="485" x2="369.5" y2="482.2"/>
		<line class="st2" x1="383.7" y1="485" x2="383.7" y2="482.2"/>
		<line class="st2" x1="395.2" y1="485" x2="395.2" y2="482.2"/>
		<line class="st2" x1="405" y1="485" x2="405" y2="482.2"/>
		<line class="st2" x1="413.4" y1="485" x2="413.4" y2="482.2"/>
		<line class="st2" x1="420.9" y1="485" x2="420.9" y2="482.2"/>
		<line class="st2" x1="471.5" y1="485" x2="471.5" y2="482.2"/>
		<line class="st2" x1="497.2" y1="485" x2="497.2" y2="482.2"/>
		<line class="st2" x1="515.4" y1="485" x2="515.4" y2="482.2"/>
		<line class="st2" x1="529.5" y1="485" x2="529.5" y2="482.2"/>
		<line class="st2" x1="541.1" y1="485" x2="541.1" y2="482.2"/>
		<line class="st2" x1="550.8" y1="485" x2="550.8" y2="482.2"/>
		<line class="st2" x1="559.3" y1="485" x2="559.3" y2="482.2"/>
		<line class="st2" x1="566.7" y1="485" x2="566.7" y2="482.2"/>
		<line class="st2" x1="617.3" y1="485" x2="617.3" y2="482.2"/>
		<line class="st2" x1="103.5" y1="42" x2="103.5" y2="44.8"/>
		<line class="st2" x1="113.3" y1="42" x2="113.3" y2="44.8"/>
		<line class="st2" x1="121.8" y1="42" x2="121.8" y2="44.8"/>
		<line class="st2" x1="129.2" y1="42" x2="129.2" y2="44.8"/>
		<line class="st2" x1="179.8" y1="42" x2="179.8" y2="44.8"/>
		<line class="st2" x1="205.5" y1="42" x2="205.5" y2="44.8"/>
		<line class="st2" x1="223.7" y1="42" x2="223.7" y2="44.8"/>
		<line class="st2" x1="237.8" y1="42" x2="237.8" y2="44.8"/>
		<line class="st2" x1="249.4" y1="42" x2="249.4" y2="44.8"/>
		<line class="st2" x1="259.1" y1="42" x2="259.1" y2="44.8"/>
		<line class="st2" x1="267.6" y1="42" x2="267.6" y2="44.8"/>
		<line class="st2" x1="275.1" y1="42" x2="275.1" y2="44.8"/>
		<line class="st2" x1="325.6" y1="42" x2="325.6" y2="44.8"/>
		<line class="st2" x1="351.3" y1="42" x2="351.3" y2="44.8"/>
		<line class="st2" x1="369.5" y1="42" x2="369.5" y2="44.8"/>
		<line class="st2" x1="383.7" y1="42" x2="383.7" y2="44.8"/>
		<line class="st2" x1="395.2" y1="42" x2="395.2" y2="44.8"/>
		<line class="st2" x1="405" y1="42" x2="405" y2="44.8"/>
		<line class="st2" x1="413.4" y1="42" x2="413.4" y2="44.8"/>
		<line class="st2" x1="420.9" y1="42" x2="420.9" y2="44.8"/>
		<line class="st2" x1="471.5" y1="42" x2="471.5" y2="44.8"/>
		<line class="st2" x1="497.2" y1="42" x2="497.2" y2="44.8"/>
		<line class="st2" x1="515.4" y1="42" x2="515.4" y2="44.8"/>
		<line class="st2" x1="529.5" y1="42" x2="529.5" y2="44.8"/>
		<line class="st2" x1="541.1" y1="42" x2="541.1" y2="44.8"/>
		<line class="st2" x1="550.8" y1="42" x2="550.8" y2="44.8"/>
		<line class="st2" x1="559.3" y1="42" x2="559.3" y2="44.8"/>
		<line class="st2" x1="566.7" y1="42" x2="566.7" y2="44.8"/>
		<line class="st2" x1="617.3" y1="42" x2="617.3" y2="44.8"/>
	</g>
	<g transform="translate(119,519)">
		<text transform="matrix(1 0 0 1 0 -1.464844e-05)" class="st3 st4 st5">10</text>
	</g>
	<g transform="translate(143,509)">
		<text transform="matrix(1 0 0 1 0 -1.464844e-05)" class="st3 st4 st6">3</text>
	</g>
	<g transform="translate(265,519)">
		<text transform="matrix(1 0 0 1 0 -1.464844e-05)" class="st3 st4 st5">10</text>
	</g>
	<g transform="translate(289,509)">
		<text transform="matrix(1 0 0 1 0 -1.464844e-05)" class="st3 st4 st6">4</text>
	</g>
	<g transform="translate(411,519)">
		<text transform="matrix(1 0 0 1 0 -1.464844e-05)" class="st3 st4 st5">10</text>
	</g>
	<g transform="translate(435,509)">
		<text transform="matrix(1 0 0 1 0 -1.464844e-05)" class="st3 st4 st6">5</text>
	</g>
	<g transform="translate(556,519)">
		<text transform="matrix(1 0 0 1 0 -1.464844e-05)" class="st3 st4 st5">10</text>
	</g>
	<g transform="translate(580,509)">
		<text transform="matrix(1 0 0 1 0 -1.464844e-05)" class="st3 st4 st6">6</text>
	</g>
	<g transform="translate(367.5003,525.2667)">
		<text transform="matrix(1 0 0 1 -12.5 24)" class="st3 st4 st7">Nr</text>
	</g>
	<g>
		<line class="st2" x1="92" y1="485" x2="92" y2="42"/>
		<line class="st2" x1="643" y1="485" x2="643" y2="42"/>
		<line class="st2" x1="92" y1="485" x2="97.5" y2="485"/>
		<line class="st2" x1="92" y1="320.9" x2="97.5" y2="320.9"/>
		<line class="st2" x1="92" y1="156.7" x2="97.5" y2="156.7"/>
		<line class="st2" x1="643" y1="485" x2="637.5" y2="485"/>
		<line class="st2" x1="643" y1="320.9" x2="637.5" y2="320.9"/>
		<line class="st2" x1="643" y1="156.7" x2="637.5" y2="156.7"/>
		<line class="st2" x1="92" y1="435.6" x2="94.8" y2="435.6"/>
		<line class="st2" x1="92" y1="406.7" x2="94.8" y2="406.7"/>
		<line class="st2" x1="92" y1="386.2" x2="94.8" y2="386.2"/>
		<line class="st2" x1="92" y1="370.3" x2="94.8" y2="370.3"/>
		<line class="st2" x1="92" y1="357.3" x2="94.8" y2="357.3"/>
		<line class="st2" x1="92" y1="346.3" x2="94.8" y2="346.3"/>
		<line class="st2" x1="92" y1="336.8" x2="94.8" y2="336.8"/>
		<line class="st2" x1="92" y1="328.4" x2="94.8" y2="328.4"/>
		<line class="st2" x1="92" y1="271.5" x2="94.8" y2="271.5"/>
		<line class="st2" x1="92" y1="242.6" x2="94.8" y2="242.6"/>
		<line class="st2" x1="92" y1="222" x2="94.8" y2="222"/>
		<line class="st2" x1="92" y1="206.1" x2="94.8" y2="206.1"/>
		<line class="st2" x1="92" y1="193.1" x2="94.8" y2="193.1"/>
		<line class="st2" x1="92" y1="182.2" x2="94.8" y2="182.2"/>
		<line class="st2" x1="92" y1="172.6" x2="94.8" y2="172.6"/>
		<line class="st2" x1="92" y1="164.2" x2="94.8" y2="164.2"/>
		<line class="st2" x1="92" y1="107.3" x2="94.8" y2="107.3"/>
		<line class="st2" x1="92" y1="78.4" x2="94.8" y2="78.4"/>
		<line class="st2" x1="92" y1="57.9" x2="94.8" y2="57.9"/>
		<line class="st2" x1="643" y1="435.6" x2="640.2" y2="435.6"/>
		<line class="st2" x1="643" y1="406.7" x2="640.2" y2="406.7"/>
		<line class="st2" x1="643" y1="386.2" x2="640.2" y2="386.2"/>
		<line class="st2" x1="643" y1="370.3" x2="640.2" y2="370.3"/>
		<line class="st2" x1="643" y1="357.3" x2="640.2" y2="357.3"/>
		<line class="st2" x1="643" y1="346.3" x2="640.2" y2="346.3"/>
		<line class="st2" x1="643" y1="336.8" x2="640.2" y2="336.8"/>
		<line class="st2" x1="643" y1="328.4" x2="640.2" y2="328.4"/>
		<line class="st2" x1="643" y1="271.5" x2="640.2" y2="271.5"/>
		<line class="st2" x1="643" y1="242.6" x2="640.2" y2="242.6"/>
		<line class="st2" x1="643" y1="222" x2="640.2" y2="222"/>
		<line class="st2" x1="643" y1="206.1" x2="640.2" y2="206.1"/>
		<line class="st2" x1="643" y1="193.1" x2="640.2" y2="193.1"/>
		<line class="st2" x1="643" y1="182.2" x2="640.2" y2="182.2"/>
		<line class="st2" x1="643" y1="172.6" x2="640.2" y2="172.6"/>
		<line class="st2" x1="643" y1="164.2" x2="640.2" y2="164.2"/>
		<line class="st2" x1="643" y1="107.3" x2="640.2" y2="107.3"/>
		<line class="st2" x1="643" y1="78.4" x2="640.2" y2="78.4"/>
		<line class="st2" x1="643" y1="57.9" x2="640.2" y2="57.9"/>
	</g>
	<g transform="translate(46,496)">
		<text transform="matrix(1 0 0 1 0 -1.464844e-05)" class="st3 st4 st5">10</text>
	</g>
	<g transform="translate(70,486)">
		<text transform="matrix(1 0 0 1 0 -1.464844e-05)" class="st3 st4 st6">-5</text>
	</g>
	<g transform="translate(46,332)">
		<text transform="matrix(1 0 0 1 0 -1.464844e-05)" class="st3 st4 st5">10</text>
	</g>
	<g transform="translate(70,322)">
		<text transform="matrix(1 0 0 1 0 -1.464844e-05)" class="st3 st4 st6">-4</text>
	</g>
	<g transform="translate(46,168)">
		<text transform="matrix(1 0 0 1 0 -1.464844e-05)" class="st3 st4 st5">10</text>
	</g>
	<g transform="translate(70,158)">
		<text transform="matrix(1 0 0 1 0 -1.464844e-05)" class="st3 st4 st6">-3</text>
	</g>
	<g transform="translate(42.0667,263.4998) rotate(-90)">
		<text transform="matrix(1 0 0 1 -25.9996 -6)" class="st3 st4 st7">Error</text>
	</g>
	<g>
		<path class="st8" d="M135.9,131.2l145.8,110.5l145.8,117.7l145.8,108.1"/>
		<line class="st8" x1="131" y1="131.5" x2="140" y2="131.5"/>
		<line class="st8" x1="135.5" y1="136" x2="135.5" y2="127"/>
		<line class="st8" x1="132" y1="135" x2="139" y2="128"/>
		<line class="st8" x1="132" y1="128" x2="139" y2="135"/>
		<line class="st8" x1="277" y1="241.5" x2="286" y2="241.5"/>
		<line class="st8" x1="281.5" y1="246" x2="281.5" y2="237"/>
		<line class="st8" x1="278" y1="245" x2="285" y2="238"/>
		<line class="st8" x1="278" y1="238" x2="285" y2="245"/>
		<line class="st8" x1="423" y1="359.5" x2="432" y2="359.5"/>
		<line class="st8" x1="427.5" y1="364" x2="427.5" y2="355"/>
		<line class="st8" x1="424" y1="363" x2="431" y2="356"/>
		<line class="st8" x1="424" y1="356" x2="431" y2="363"/>
		<line class="st8" x1="569" y1="467.5" x2="578" y2="467.5"/>
		<line class="st8" x1="573.5" y1="472" x2="573.5" y2="463"/>
		<line class="st8" x1="570" y1="471" x2="577" y2="464"/>
		<line class="st8" x1="570" y1="464" x2="577" y2="471"/>
		<path class="st9" d="M211.2,211l51.4,21l50.7,43.5L415.5,401"/>
		<line class="st9" x1="207" y1="211.5" x2="216" y2="211.5"/>
		<line class="st9" x1="211.5" y1="216" x2="211.5" y2="207"/>
		<line class="st9" x1="208" y1="215" x2="215" y2="208"/>
		<line class="st9" x1="208" y1="208" x2="215" y2="215"/>
		<line class="st9" x1="258" y1="231.5" x2="267" y2="231.5"/>
		<line class="st9" x1="262.5" y1="236" x2="262.5" y2="227"/>
		<line class="st9" x1="259" y1="235" x2="266" y2="228"/>
		<line class="st9" x1="259" y1="228" x2="266" y2="235"/>
		<line class="st9" x1="309" y1="275.5" x2="318" y2="275.5"/>
		<line class="st9" x1="313.5" y1="280" x2="313.5" y2="271"/>
		<line class="st9" x1="310" y1="279" x2="317" y2="272"/>
		<line class="st9" x1="310" y1="272" x2="317" y2="279"/>
		<line class="st9" x1="411" y1="400.5" x2="420" y2="400.5"/>
		<line class="st9" x1="415.5" y1="405" x2="415.5" y2="396"/>
		<line class="st9" x1="412" y1="404" x2="419" y2="397"/>
		<line class="st9" x1="412" y1="397" x2="419" y2="404"/>
	</g>
	<g>
		<line class="st10" x1="91.9" y1="401" x2="643.1" y2="401"/>
	</g>
	<g>
		<path class="st1" d="M464,97V42h180v55H464z"/>
	</g>
	<g transform="translate(501,56.633)">
		<text transform="matrix(1 0 0 1 0 7.5)" class="st4 st11">QMC ray tracing</text>
	</g>
	<g>
		<line class="st8" x1="468" y1="56.6" x2="498" y2="56.6"/>
		<line class="st8" x1="479" y1="56.5" x2="488" y2="56.5"/>
		<line class="st8" x1="483.5" y1="61" x2="483.5" y2="52"/>
		<line class="st8" x1="480" y1="60" x2="487" y2="53"/>
		<line class="st8" x1="480" y1="53" x2="487" y2="60"/>
	</g>
	<g transform="translate(501,82.367)">
		<text transform="matrix(1 0 0 1 0 7.5)" class="st4 st11">PS ray tracing</text>
	</g>
	<g>
		<line class="st9" x1="468" y1="82.4" x2="498" y2="82.4"/>
		<line class="st9" x1="479" y1="82.5" x2="488" y2="82.5"/>
		<line class="st9" x1="483.5" y1="87" x2="483.5" y2="78"/>
		<line class="st9" x1="480" y1="86" x2="487" y2="79"/>
		<line class="st9" x1="480" y1="79" x2="487" y2="86"/>
	</g>
	<g>
		<path class="st12" d="M464,97V42h180v55H464z"/>
	</g>
</g>
</svg>
