<?xml version="1.0" encoding="utf-8"?>
<!-- Generator: Adobe Illustrator 21.1.0, SVG Export Plug-In . SVG Version: 6.00 Build 0)  -->
<svg version="1.1" id="Layer_1" xmlns="http://www.w3.org/2000/svg" xmlns:xlink="http://www.w3.org/1999/xlink" x="0px" y="0px"
	 viewBox="0 0 711 555" style="enable-background:new 0 0 711 555;" xml:space="preserve">
<style type="text/css">
	.st0{clip-path:url(#SVGID_2_);fill:#FFFFFF;}
	.st1{fill:#FFFFFF;}
	.st2{fill:none;stroke:#262626;stroke-width:0.6667;stroke-linecap:square;stroke-linejoin:round;stroke-miterlimit:10;}
	.st3{fill:#262626;}
	.st4{font-family:'MyriadPro-Regular';}
	.st5{font-size:21px;}
	.st6{font-size:16px;}
	.st7{font-size:23px;}
	.st8{fill:none;stroke:#00FF00;stroke-width:2.6667;stroke-linejoin:round;stroke-miterlimit:10;}
	.st9{fill:none;stroke:#0000FF;stroke-width:2.6667;stroke-linejoin:round;stroke-miterlimit:10;}
	.st10{fill:none;stroke:#FF0000;stroke-width:2.6667;stroke-linejoin:round;stroke-miterlimit:10;}
	.st11{fill:none;stroke:#000000;stroke-width:2;stroke-linejoin:round;stroke-miterlimit:10;}
	.st12{font-size:19px;}
	.st13{fill:none;stroke:#262626;stroke-width:0.6667;stroke-miterlimit:10;}
</style>
<g>
	<g>
		<g>
			<defs>
				<rect id="SVGID_1_" y="0" width="711" height="555"/>
			</defs>
			<clipPath id="SVGID_2_">
				<use xlink:href="#SVGID_1_"  style="overflow:visible;"/>
			</clipPath>
			<rect y="0" class="st0" width="711" height="555"/>
		</g>
	</g>
	<g>
		<rect y="0" class="st1" width="711" height="555"/>
		<path class="st1" d="M92,485h551V42H92V485z"/>
	</g>
	<g>
		<line class="st2" x1="92" y1="485" x2="643" y2="485"/>
		<line class="st2" x1="92" y1="42" x2="643" y2="42"/>
		<line class="st2" x1="92" y1="485" x2="92" y2="479.5"/>
		<line class="st2" x1="229.8" y1="485" x2="229.8" y2="479.5"/>
		<line class="st2" x1="367.5" y1="485" x2="367.5" y2="479.5"/>
		<line class="st2" x1="505.3" y1="485" x2="505.3" y2="479.5"/>
		<line class="st2" x1="643" y1="485" x2="643" y2="479.5"/>
		<line class="st2" x1="92" y1="42" x2="92" y2="47.5"/>
		<line class="st2" x1="229.8" y1="42" x2="229.8" y2="47.5"/>
		<line class="st2" x1="367.5" y1="42" x2="367.5" y2="47.5"/>
		<line class="st2" x1="505.3" y1="42" x2="505.3" y2="47.5"/>
		<line class="st2" x1="643" y1="42" x2="643" y2="47.5"/>
		<line class="st2" x1="133.5" y1="485" x2="133.5" y2="482.2"/>
		<line class="st2" x1="157.7" y1="485" x2="157.7" y2="482.2"/>
		<line class="st2" x1="174.9" y1="485" x2="174.9" y2="482.2"/>
		<line class="st2" x1="188.3" y1="485" x2="188.3" y2="482.2"/>
		<line class="st2" x1="199.2" y1="485" x2="199.2" y2="482.2"/>
		<line class="st2" x1="208.4" y1="485" x2="208.4" y2="482.2"/>
		<line class="st2" x1="216.4" y1="485" x2="216.4" y2="482.2"/>
		<line class="st2" x1="223.4" y1="485" x2="223.4" y2="482.2"/>
		<line class="st2" x1="271.2" y1="485" x2="271.2" y2="482.2"/>
		<line class="st2" x1="295.5" y1="485" x2="295.5" y2="482.2"/>
		<line class="st2" x1="312.7" y1="485" x2="312.7" y2="482.2"/>
		<line class="st2" x1="326" y1="485" x2="326" y2="482.2"/>
		<line class="st2" x1="336.9" y1="485" x2="336.9" y2="482.2"/>
		<line class="st2" x1="346.2" y1="485" x2="346.2" y2="482.2"/>
		<line class="st2" x1="354.2" y1="485" x2="354.2" y2="482.2"/>
		<line class="st2" x1="361.2" y1="485" x2="361.2" y2="482.2"/>
		<line class="st2" x1="409" y1="485" x2="409" y2="482.2"/>
		<line class="st2" x1="433.2" y1="485" x2="433.2" y2="482.2"/>
		<line class="st2" x1="450.4" y1="485" x2="450.4" y2="482.2"/>
		<line class="st2" x1="463.8" y1="485" x2="463.8" y2="482.2"/>
		<line class="st2" x1="474.7" y1="485" x2="474.7" y2="482.2"/>
		<line class="st2" x1="483.9" y1="485" x2="483.9" y2="482.2"/>
		<line class="st2" x1="491.9" y1="485" x2="491.9" y2="482.2"/>
		<line class="st2" x1="498.9" y1="485" x2="498.9" y2="482.2"/>
		<line class="st2" x1="546.7" y1="485" x2="546.7" y2="482.2"/>
		<line class="st2" x1="571" y1="485" x2="571" y2="482.2"/>
		<line class="st2" x1="588.2" y1="485" x2="588.2" y2="482.2"/>
		<line class="st2" x1="601.5" y1="485" x2="601.5" y2="482.2"/>
		<line class="st2" x1="612.4" y1="485" x2="612.4" y2="482.2"/>
		<line class="st2" x1="621.7" y1="485" x2="621.7" y2="482.2"/>
		<line class="st2" x1="629.7" y1="485" x2="629.7" y2="482.2"/>
		<line class="st2" x1="636.7" y1="485" x2="636.7" y2="482.2"/>
		<line class="st2" x1="133.5" y1="42" x2="133.5" y2="44.8"/>
		<line class="st2" x1="157.7" y1="42" x2="157.7" y2="44.8"/>
		<line class="st2" x1="174.9" y1="42" x2="174.9" y2="44.8"/>
		<line class="st2" x1="188.3" y1="42" x2="188.3" y2="44.8"/>
		<line class="st2" x1="199.2" y1="42" x2="199.2" y2="44.8"/>
		<line class="st2" x1="208.4" y1="42" x2="208.4" y2="44.8"/>
		<line class="st2" x1="216.4" y1="42" x2="216.4" y2="44.8"/>
		<line class="st2" x1="223.4" y1="42" x2="223.4" y2="44.8"/>
		<line class="st2" x1="271.2" y1="42" x2="271.2" y2="44.8"/>
		<line class="st2" x1="295.5" y1="42" x2="295.5" y2="44.8"/>
		<line class="st2" x1="312.7" y1="42" x2="312.7" y2="44.8"/>
		<line class="st2" x1="326" y1="42" x2="326" y2="44.8"/>
		<line class="st2" x1="336.9" y1="42" x2="336.9" y2="44.8"/>
		<line class="st2" x1="346.2" y1="42" x2="346.2" y2="44.8"/>
		<line class="st2" x1="354.2" y1="42" x2="354.2" y2="44.8"/>
		<line class="st2" x1="361.2" y1="42" x2="361.2" y2="44.8"/>
		<line class="st2" x1="409" y1="42" x2="409" y2="44.8"/>
		<line class="st2" x1="433.2" y1="42" x2="433.2" y2="44.8"/>
		<line class="st2" x1="450.4" y1="42" x2="450.4" y2="44.8"/>
		<line class="st2" x1="463.8" y1="42" x2="463.8" y2="44.8"/>
		<line class="st2" x1="474.7" y1="42" x2="474.7" y2="44.8"/>
		<line class="st2" x1="483.9" y1="42" x2="483.9" y2="44.8"/>
		<line class="st2" x1="491.9" y1="42" x2="491.9" y2="44.8"/>
		<line class="st2" x1="498.9" y1="42" x2="498.9" y2="44.8"/>
		<line class="st2" x1="546.7" y1="42" x2="546.7" y2="44.8"/>
		<line class="st2" x1="571" y1="42" x2="571" y2="44.8"/>
		<line class="st2" x1="588.2" y1="42" x2="588.2" y2="44.8"/>
		<line class="st2" x1="601.5" y1="42" x2="601.5" y2="44.8"/>
		<line class="st2" x1="612.4" y1="42" x2="612.4" y2="44.8"/>
		<line class="st2" x1="621.7" y1="42" x2="621.7" y2="44.8"/>
		<line class="st2" x1="629.7" y1="42" x2="629.7" y2="44.8"/>
		<line class="st2" x1="636.7" y1="42" x2="636.7" y2="44.8"/>
	</g>
	<g transform="translate(75,519)">
		<text transform="matrix(1 0 0 1 0 -1.464844e-05)" class="st3 st4 st5">10</text>
	</g>
	<g transform="translate(99,509)">
		<text transform="matrix(1 0 0 1 0 -1.464844e-05)" class="st3 st4 st6">3</text>
	</g>
	<g transform="translate(213,519)">
		<text transform="matrix(1 0 0 1 0 -1.464844e-05)" class="st3 st4 st5">10</text>
	</g>
	<g transform="translate(237,509)">
		<text transform="matrix(1 0 0 1 0 -1.464844e-05)" class="st3 st4 st6">4</text>
	</g>
	<g transform="translate(351,519)">
		<text transform="matrix(1 0 0 1 0 -1.464844e-05)" class="st3 st4 st5">10</text>
	</g>
	<g transform="translate(375,509)">
		<text transform="matrix(1 0 0 1 0 -1.464844e-05)" class="st3 st4 st6">5</text>
	</g>
	<g transform="translate(488,519)">
		<text transform="matrix(1 0 0 1 0 -1.464844e-05)" class="st3 st4 st5">10</text>
	</g>
	<g transform="translate(512,509)">
		<text transform="matrix(1 0 0 1 0 -1.464844e-05)" class="st3 st4 st6">6</text>
	</g>
	<g transform="translate(626,519)">
		<text transform="matrix(1 0 0 1 0 -1.464844e-05)" class="st3 st4 st5">10</text>
	</g>
	<g transform="translate(650,509)">
		<text transform="matrix(1 0 0 1 0 -1.464844e-05)" class="st3 st4 st6">7</text>
	</g>
	<g transform="translate(367.5003,525.2667)">
		<text transform="matrix(1 0 0 1 -12.5 24)" class="st3 st4 st7">Nr</text>
	</g>
	<g>
		<line class="st2" x1="92" y1="485" x2="92" y2="42"/>
		<line class="st2" x1="643" y1="485" x2="643" y2="42"/>
		<line class="st2" x1="92" y1="440.5" x2="97.5" y2="440.5"/>
		<line class="st2" x1="92" y1="292.9" x2="97.5" y2="292.9"/>
		<line class="st2" x1="92" y1="145.2" x2="97.5" y2="145.2"/>
		<line class="st2" x1="643" y1="440.5" x2="637.5" y2="440.5"/>
		<line class="st2" x1="643" y1="292.9" x2="637.5" y2="292.9"/>
		<line class="st2" x1="643" y1="145.2" x2="637.5" y2="145.2"/>
		<line class="st2" x1="92" y1="473.3" x2="94.8" y2="473.3"/>
		<line class="st2" x1="92" y1="463.4" x2="94.8" y2="463.4"/>
		<line class="st2" x1="92" y1="454.9" x2="94.8" y2="454.9"/>
		<line class="st2" x1="92" y1="447.3" x2="94.8" y2="447.3"/>
		<line class="st2" x1="92" y1="396.1" x2="94.8" y2="396.1"/>
		<line class="st2" x1="92" y1="370.1" x2="94.8" y2="370.1"/>
		<line class="st2" x1="92" y1="351.6" x2="94.8" y2="351.6"/>
		<line class="st2" x1="92" y1="337.3" x2="94.8" y2="337.3"/>
		<line class="st2" x1="92" y1="325.6" x2="94.8" y2="325.6"/>
		<line class="st2" x1="92" y1="315.8" x2="94.8" y2="315.8"/>
		<line class="st2" x1="92" y1="307.2" x2="94.8" y2="307.2"/>
		<line class="st2" x1="92" y1="299.6" x2="94.8" y2="299.6"/>
		<line class="st2" x1="92" y1="248.4" x2="94.8" y2="248.4"/>
		<line class="st2" x1="92" y1="222.4" x2="94.8" y2="222.4"/>
		<line class="st2" x1="92" y1="204" x2="94.8" y2="204"/>
		<line class="st2" x1="92" y1="189.7" x2="94.8" y2="189.7"/>
		<line class="st2" x1="92" y1="178" x2="94.8" y2="178"/>
		<line class="st2" x1="92" y1="168.1" x2="94.8" y2="168.1"/>
		<line class="st2" x1="92" y1="159.5" x2="94.8" y2="159.5"/>
		<line class="st2" x1="92" y1="152" x2="94.8" y2="152"/>
		<line class="st2" x1="92" y1="100.8" x2="94.8" y2="100.8"/>
		<line class="st2" x1="92" y1="74.8" x2="94.8" y2="74.8"/>
		<line class="st2" x1="92" y1="56.3" x2="94.8" y2="56.3"/>
		<line class="st2" x1="643" y1="473.3" x2="640.2" y2="473.3"/>
		<line class="st2" x1="643" y1="463.4" x2="640.2" y2="463.4"/>
		<line class="st2" x1="643" y1="454.9" x2="640.2" y2="454.9"/>
		<line class="st2" x1="643" y1="447.3" x2="640.2" y2="447.3"/>
		<line class="st2" x1="643" y1="396.1" x2="640.2" y2="396.1"/>
		<line class="st2" x1="643" y1="370.1" x2="640.2" y2="370.1"/>
		<line class="st2" x1="643" y1="351.6" x2="640.2" y2="351.6"/>
		<line class="st2" x1="643" y1="337.3" x2="640.2" y2="337.3"/>
		<line class="st2" x1="643" y1="325.6" x2="640.2" y2="325.6"/>
		<line class="st2" x1="643" y1="315.8" x2="640.2" y2="315.8"/>
		<line class="st2" x1="643" y1="307.2" x2="640.2" y2="307.2"/>
		<line class="st2" x1="643" y1="299.6" x2="640.2" y2="299.6"/>
		<line class="st2" x1="643" y1="248.4" x2="640.2" y2="248.4"/>
		<line class="st2" x1="643" y1="222.4" x2="640.2" y2="222.4"/>
		<line class="st2" x1="643" y1="204" x2="640.2" y2="204"/>
		<line class="st2" x1="643" y1="189.7" x2="640.2" y2="189.7"/>
		<line class="st2" x1="643" y1="178" x2="640.2" y2="178"/>
		<line class="st2" x1="643" y1="168.1" x2="640.2" y2="168.1"/>
		<line class="st2" x1="643" y1="159.5" x2="640.2" y2="159.5"/>
		<line class="st2" x1="643" y1="152" x2="640.2" y2="152"/>
		<line class="st2" x1="643" y1="100.8" x2="640.2" y2="100.8"/>
		<line class="st2" x1="643" y1="74.8" x2="640.2" y2="74.8"/>
		<line class="st2" x1="643" y1="56.3" x2="640.2" y2="56.3"/>
	</g>
	<g transform="translate(46,452)">
		<text transform="matrix(1 0 0 1 0 -1.464844e-05)" class="st3 st4 st5">10</text>
	</g>
	<g transform="translate(70,442)">
		<text transform="matrix(1 0 0 1 0 -1.464844e-05)" class="st3 st4 st6">-5</text>
	</g>
	<g transform="translate(46,304)">
		<text transform="matrix(1 0 0 1 0 -1.464844e-05)" class="st3 st4 st5">10</text>
	</g>
	<g transform="translate(70,294)">
		<text transform="matrix(1 0 0 1 0 -1.464844e-05)" class="st3 st4 st6">-4</text>
	</g>
	<g transform="translate(46,156)">
		<text transform="matrix(1 0 0 1 0 -1.464844e-05)" class="st3 st4 st5">10</text>
	</g>
	<g transform="translate(70,146)">
		<text transform="matrix(1 0 0 1 0 -1.464844e-05)" class="st3 st4 st6">-3</text>
	</g>
	<g transform="translate(42.0667,263.4998) rotate(-90)">
		<text transform="matrix(1 0 0 1 -25.9996 -6)" class="st3 st4 st7">Error</text>
	</g>
	<g>
		<path class="st8" d="M92,139.1l137.8,56.8l137.8,82.8l137.8,62.5L643,426.8"/>
		<line class="st8" x1="88" y1="139.5" x2="97" y2="139.5"/>
		<line class="st8" x1="92.5" y1="144" x2="92.5" y2="135"/>
		<line class="st8" x1="89" y1="143" x2="96" y2="136"/>
		<line class="st8" x1="89" y1="136" x2="96" y2="143"/>
		<line class="st8" x1="225" y1="195.5" x2="234" y2="195.5"/>
		<line class="st8" x1="229.5" y1="200" x2="229.5" y2="191"/>
		<line class="st8" x1="226" y1="199" x2="233" y2="192"/>
		<line class="st8" x1="226" y1="192" x2="233" y2="199"/>
		<line class="st8" x1="363" y1="278.5" x2="372" y2="278.5"/>
		<line class="st8" x1="367.5" y1="283" x2="367.5" y2="274"/>
		<line class="st8" x1="364" y1="282" x2="371" y2="275"/>
		<line class="st8" x1="364" y1="275" x2="371" y2="282"/>
		<line class="st8" x1="501" y1="341.5" x2="510" y2="341.5"/>
		<line class="st8" x1="505.5" y1="346" x2="505.5" y2="337"/>
		<line class="st8" x1="502" y1="345" x2="509" y2="338"/>
		<line class="st8" x1="502" y1="338" x2="509" y2="345"/>
		<line class="st8" x1="639" y1="426.5" x2="648" y2="426.5"/>
		<line class="st8" x1="643.5" y1="431" x2="643.5" y2="422"/>
		<line class="st8" x1="640" y1="430" x2="647" y2="423"/>
		<line class="st8" x1="640" y1="423" x2="647" y2="430"/>
		<path class="st9" d="M92,152l137.8,103l137.8,114.9l137.8,101.7"/>
		<line class="st9" x1="88" y1="152.5" x2="97" y2="152.5"/>
		<line class="st9" x1="92.5" y1="157" x2="92.5" y2="148"/>
		<line class="st9" x1="89" y1="156" x2="96" y2="149"/>
		<line class="st9" x1="89" y1="149" x2="96" y2="156"/>
		<line class="st9" x1="225" y1="255.5" x2="234" y2="255.5"/>
		<line class="st9" x1="229.5" y1="260" x2="229.5" y2="251"/>
		<line class="st9" x1="226" y1="259" x2="233" y2="252"/>
		<line class="st9" x1="226" y1="252" x2="233" y2="259"/>
		<line class="st9" x1="363" y1="369.5" x2="372" y2="369.5"/>
		<line class="st9" x1="367.5" y1="374" x2="367.5" y2="365"/>
		<line class="st9" x1="364" y1="373" x2="371" y2="366"/>
		<line class="st9" x1="364" y1="366" x2="371" y2="373"/>
		<line class="st9" x1="501" y1="471.5" x2="510" y2="471.5"/>
		<line class="st9" x1="505.5" y1="476" x2="505.5" y2="467"/>
		<line class="st9" x1="502" y1="475" x2="509" y2="468"/>
		<line class="st9" x1="502" y1="468" x2="509" y2="475"/>
		<path class="st10" d="M219,247.5l47.9,46.8l46.5,51.9l45.6,47l45.4,36.5"/>
		<line class="st10" x1="215" y1="247.5" x2="224" y2="247.5"/>
		<line class="st10" x1="219.5" y1="252" x2="219.5" y2="243"/>
		<line class="st10" x1="216" y1="251" x2="223" y2="244"/>
		<line class="st10" x1="216" y1="244" x2="223" y2="251"/>
		<line class="st10" x1="262" y1="294.5" x2="271" y2="294.5"/>
		<line class="st10" x1="266.5" y1="299" x2="266.5" y2="290"/>
		<line class="st10" x1="263" y1="298" x2="270" y2="291"/>
		<line class="st10" x1="263" y1="291" x2="270" y2="298"/>
		<line class="st10" x1="309" y1="346.5" x2="318" y2="346.5"/>
		<line class="st10" x1="313.5" y1="351" x2="313.5" y2="342"/>
		<line class="st10" x1="310" y1="350" x2="317" y2="343"/>
		<line class="st10" x1="310" y1="343" x2="317" y2="350"/>
		<line class="st10" x1="355" y1="393.5" x2="364" y2="393.5"/>
		<line class="st10" x1="359.5" y1="398" x2="359.5" y2="389"/>
		<line class="st10" x1="356" y1="397" x2="363" y2="390"/>
		<line class="st10" x1="356" y1="390" x2="363" y2="397"/>
		<line class="st10" x1="400" y1="429.5" x2="409" y2="429.5"/>
		<line class="st10" x1="404.5" y1="434" x2="404.5" y2="425"/>
		<line class="st10" x1="401" y1="433" x2="408" y2="426"/>
		<line class="st10" x1="401" y1="426" x2="408" y2="433"/>
		<line class="st11" x1="92" y1="407.4" x2="643" y2="407.4"/>
	</g>
	<g>
		<path class="st1" d="M463,122V42h180v80H463z"/>
	</g>
	<g transform="translate(500,56.5)">
		<text transform="matrix(1 0 0 1 0 7.5)" class="st4 st12">MC ray tracing</text>
	</g>
	<g>
		<line class="st8" x1="467" y1="56.5" x2="497" y2="56.5"/>
		<line class="st8" x1="478" y1="56.5" x2="487" y2="56.5"/>
		<line class="st8" x1="482.5" y1="61" x2="482.5" y2="52"/>
		<line class="st8" x1="479" y1="60" x2="486" y2="53"/>
		<line class="st8" x1="479" y1="53" x2="486" y2="60"/>
	</g>
	<g transform="translate(500,82)">
		<text transform="matrix(1 0 0 1 0 7.5)" class="st4 st12">QMC ray tracing</text>
	</g>
	<g>
		<line class="st9" x1="467" y1="82" x2="497" y2="82"/>
		<line class="st9" x1="478" y1="81.5" x2="487" y2="81.5"/>
		<line class="st9" x1="482.5" y1="86" x2="482.5" y2="77"/>
		<line class="st9" x1="479" y1="85" x2="486" y2="78"/>
		<line class="st9" x1="479" y1="78" x2="486" y2="85"/>
	</g>
	<g transform="translate(500,107.5)">
		<text transform="matrix(1 0 0 1 0 7.5)" class="st4 st12">PS ray tracing</text>
	</g>
	<g>
		<line class="st10" x1="467" y1="107.5" x2="497" y2="107.5"/>
		<line class="st10" x1="478" y1="107.5" x2="487" y2="107.5"/>
		<line class="st10" x1="482.5" y1="112" x2="482.5" y2="103"/>
		<line class="st10" x1="479" y1="111" x2="486" y2="104"/>
		<line class="st10" x1="479" y1="104" x2="486" y2="111"/>
	</g>
	<g>
		<path class="st13" d="M463,122V42h180v80H463z"/>
	</g>
</g>
</svg>
