<?xml version="1.0" encoding="utf-8"?>
<!-- Generator: Adobe Illustrator 21.1.0, SVG Export Plug-In . SVG Version: 6.00 Build 0)  -->
<svg version="1.1" id="Layer_1" xmlns="http://www.w3.org/2000/svg" xmlns:xlink="http://www.w3.org/1999/xlink" x="0px" y="0px"
	 viewBox="0 0 711 555" style="enable-background:new 0 0 711 555;" xml:space="preserve">
<style type="text/css">
	.st0{clip-path:url(#SVGID_2_);fill:#FFFFFF;}
	.st1{fill:#FFFFFF;}
	.st2{fill:none;stroke:#262626;stroke-width:0.6667;stroke-linecap:square;stroke-linejoin:round;stroke-miterlimit:10;}
	.st3{fill:#262626;}
	.st4{font-family:'MyriadPro-Regular';}
	.st5{font-size:21px;}
	.st6{font-size:16px;}
	.st7{font-size:23px;}
	.st8{fill:none;stroke:#0000FF;stroke-width:2.6667;stroke-linejoin:round;stroke-miterlimit:10;}
	.st9{fill:none;stroke:#FF0000;stroke-width:2.6667;stroke-linejoin:round;stroke-miterlimit:10;}
	.st10{fill:none;stroke:#0000FF;stroke-width:2;stroke-linejoin:bevel;stroke-miterlimit:1;stroke-dasharray:8,8;}
	.st11{fill:none;stroke:#000000;stroke-width:2;stroke-linejoin:bevel;stroke-miterlimit:1;stroke-dasharray:8,8;}
	.st12{fill:none;stroke:#00FF00;stroke-width:2.6667;stroke-linejoin:round;stroke-miterlimit:10;}
	.st13{fill:none;stroke:#000000;stroke-width:2;stroke-linejoin:round;stroke-miterlimit:10;}
	.st14{font-size:19px;}
	.st15{fill:none;stroke:#262626;stroke-width:0.6667;stroke-miterlimit:10;}
</style>
<g>
	<g>
		<g>
			<defs>
				<rect id="SVGID_1_" y="0" width="711" height="555"/>
			</defs>
			<clipPath id="SVGID_2_">
				<use xlink:href="#SVGID_1_"  style="overflow:visible;"/>
			</clipPath>
			<rect y="0" class="st0" width="711" height="555"/>
		</g>
	</g>
	<g>
		<rect y="0" class="st1" width="711" height="555"/>
		<path class="st1" d="M92,485h551V42H92V485z"/>
	</g>
	<g>
		<line class="st2" x1="92" y1="485" x2="643" y2="485"/>
		<line class="st2" x1="92" y1="42" x2="643" y2="42"/>
		<line class="st2" x1="130.6" y1="485" x2="130.6" y2="479.5"/>
		<line class="st2" x1="258.7" y1="485" x2="258.7" y2="479.5"/>
		<line class="st2" x1="386.8" y1="485" x2="386.8" y2="479.5"/>
		<line class="st2" x1="514.9" y1="485" x2="514.9" y2="479.5"/>
		<line class="st2" x1="643" y1="485" x2="643" y2="479.5"/>
		<line class="st2" x1="130.6" y1="42" x2="130.6" y2="47.5"/>
		<line class="st2" x1="258.7" y1="42" x2="258.7" y2="47.5"/>
		<line class="st2" x1="386.8" y1="42" x2="386.8" y2="47.5"/>
		<line class="st2" x1="514.9" y1="42" x2="514.9" y2="47.5"/>
		<line class="st2" x1="643" y1="42" x2="643" y2="47.5"/>
		<line class="st2" x1="102.1" y1="485" x2="102.1" y2="482.2"/>
		<line class="st2" x1="110.7" y1="485" x2="110.7" y2="482.2"/>
		<line class="st2" x1="118.1" y1="485" x2="118.1" y2="482.2"/>
		<line class="st2" x1="124.7" y1="485" x2="124.7" y2="482.2"/>
		<line class="st2" x1="169.1" y1="485" x2="169.1" y2="482.2"/>
		<line class="st2" x1="191.7" y1="485" x2="191.7" y2="482.2"/>
		<line class="st2" x1="207.7" y1="485" x2="207.7" y2="482.2"/>
		<line class="st2" x1="220.1" y1="485" x2="220.1" y2="482.2"/>
		<line class="st2" x1="230.3" y1="485" x2="230.3" y2="482.2"/>
		<line class="st2" x1="238.8" y1="485" x2="238.8" y2="482.2"/>
		<line class="st2" x1="246.3" y1="485" x2="246.3" y2="482.2"/>
		<line class="st2" x1="252.8" y1="485" x2="252.8" y2="482.2"/>
		<line class="st2" x1="297.2" y1="485" x2="297.2" y2="482.2"/>
		<line class="st2" x1="319.8" y1="485" x2="319.8" y2="482.2"/>
		<line class="st2" x1="335.8" y1="485" x2="335.8" y2="482.2"/>
		<line class="st2" x1="348.2" y1="485" x2="348.2" y2="482.2"/>
		<line class="st2" x1="358.4" y1="485" x2="358.4" y2="482.2"/>
		<line class="st2" x1="366.9" y1="485" x2="366.9" y2="482.2"/>
		<line class="st2" x1="374.4" y1="485" x2="374.4" y2="482.2"/>
		<line class="st2" x1="380.9" y1="485" x2="380.9" y2="482.2"/>
		<line class="st2" x1="425.3" y1="485" x2="425.3" y2="482.2"/>
		<line class="st2" x1="447.9" y1="485" x2="447.9" y2="482.2"/>
		<line class="st2" x1="463.9" y1="485" x2="463.9" y2="482.2"/>
		<line class="st2" x1="476.3" y1="485" x2="476.3" y2="482.2"/>
		<line class="st2" x1="486.5" y1="485" x2="486.5" y2="482.2"/>
		<line class="st2" x1="495" y1="485" x2="495" y2="482.2"/>
		<line class="st2" x1="502.5" y1="485" x2="502.5" y2="482.2"/>
		<line class="st2" x1="509" y1="485" x2="509" y2="482.2"/>
		<line class="st2" x1="553.5" y1="485" x2="553.5" y2="482.2"/>
		<line class="st2" x1="576" y1="485" x2="576" y2="482.2"/>
		<line class="st2" x1="592" y1="485" x2="592" y2="482.2"/>
		<line class="st2" x1="604.4" y1="485" x2="604.4" y2="482.2"/>
		<line class="st2" x1="614.6" y1="485" x2="614.6" y2="482.2"/>
		<line class="st2" x1="623.2" y1="485" x2="623.2" y2="482.2"/>
		<line class="st2" x1="630.6" y1="485" x2="630.6" y2="482.2"/>
		<line class="st2" x1="637.1" y1="485" x2="637.1" y2="482.2"/>
		<line class="st2" x1="102.1" y1="42" x2="102.1" y2="44.8"/>
		<line class="st2" x1="110.7" y1="42" x2="110.7" y2="44.8"/>
		<line class="st2" x1="118.1" y1="42" x2="118.1" y2="44.8"/>
		<line class="st2" x1="124.7" y1="42" x2="124.7" y2="44.8"/>
		<line class="st2" x1="169.1" y1="42" x2="169.1" y2="44.8"/>
		<line class="st2" x1="191.7" y1="42" x2="191.7" y2="44.8"/>
		<line class="st2" x1="207.7" y1="42" x2="207.7" y2="44.8"/>
		<line class="st2" x1="220.1" y1="42" x2="220.1" y2="44.8"/>
		<line class="st2" x1="230.3" y1="42" x2="230.3" y2="44.8"/>
		<line class="st2" x1="238.8" y1="42" x2="238.8" y2="44.8"/>
		<line class="st2" x1="246.3" y1="42" x2="246.3" y2="44.8"/>
		<line class="st2" x1="252.8" y1="42" x2="252.8" y2="44.8"/>
		<line class="st2" x1="297.2" y1="42" x2="297.2" y2="44.8"/>
		<line class="st2" x1="319.8" y1="42" x2="319.8" y2="44.8"/>
		<line class="st2" x1="335.8" y1="42" x2="335.8" y2="44.8"/>
		<line class="st2" x1="348.2" y1="42" x2="348.2" y2="44.8"/>
		<line class="st2" x1="358.4" y1="42" x2="358.4" y2="44.8"/>
		<line class="st2" x1="366.9" y1="42" x2="366.9" y2="44.8"/>
		<line class="st2" x1="374.4" y1="42" x2="374.4" y2="44.8"/>
		<line class="st2" x1="380.9" y1="42" x2="380.9" y2="44.8"/>
		<line class="st2" x1="425.3" y1="42" x2="425.3" y2="44.8"/>
		<line class="st2" x1="447.9" y1="42" x2="447.9" y2="44.8"/>
		<line class="st2" x1="463.9" y1="42" x2="463.9" y2="44.8"/>
		<line class="st2" x1="476.3" y1="42" x2="476.3" y2="44.8"/>
		<line class="st2" x1="486.5" y1="42" x2="486.5" y2="44.8"/>
		<line class="st2" x1="495" y1="42" x2="495" y2="44.8"/>
		<line class="st2" x1="502.5" y1="42" x2="502.5" y2="44.8"/>
		<line class="st2" x1="509" y1="42" x2="509" y2="44.8"/>
		<line class="st2" x1="553.5" y1="42" x2="553.5" y2="44.8"/>
		<line class="st2" x1="576" y1="42" x2="576" y2="44.8"/>
		<line class="st2" x1="592" y1="42" x2="592" y2="44.8"/>
		<line class="st2" x1="604.4" y1="42" x2="604.4" y2="44.8"/>
		<line class="st2" x1="614.6" y1="42" x2="614.6" y2="44.8"/>
		<line class="st2" x1="623.2" y1="42" x2="623.2" y2="44.8"/>
		<line class="st2" x1="630.6" y1="42" x2="630.6" y2="44.8"/>
		<line class="st2" x1="637.1" y1="42" x2="637.1" y2="44.8"/>
	</g>
	<g transform="translate(114,519)">
		<text transform="matrix(1 0 0 1 0 -1.464844e-05)" class="st3 st4 st5">10</text>
	</g>
	<g transform="translate(138,509)">
		<text transform="matrix(1 0 0 1 0 -1.464844e-05)" class="st3 st4 st6">3</text>
	</g>
	<g transform="translate(242,519)">
		<text transform="matrix(1 0 0 1 0 -1.464844e-05)" class="st3 st4 st5">10</text>
	</g>
	<g transform="translate(266,509)">
		<text transform="matrix(1 0 0 1 0 -1.464844e-05)" class="st3 st4 st6">4</text>
	</g>
	<g transform="translate(370,519)">
		<text transform="matrix(1 0 0 1 0 -1.464844e-05)" class="st3 st4 st5">10</text>
	</g>
	<g transform="translate(394,509)">
		<text transform="matrix(1 0 0 1 0 -1.464844e-05)" class="st3 st4 st6">5</text>
	</g>
	<g transform="translate(498,519)">
		<text transform="matrix(1 0 0 1 0 -1.464844e-05)" class="st3 st4 st5">10</text>
	</g>
	<g transform="translate(522,509)">
		<text transform="matrix(1 0 0 1 0 -1.464844e-05)" class="st3 st4 st6">6</text>
	</g>
	<g transform="translate(626,519)">
		<text transform="matrix(1 0 0 1 0 -1.464844e-05)" class="st3 st4 st5">10</text>
	</g>
	<g transform="translate(650,509)">
		<text transform="matrix(1 0 0 1 0 -1.464844e-05)" class="st3 st4 st6">7</text>
	</g>
	<g transform="translate(367.5003,525.2667)">
		<text transform="matrix(1 0 0 1 -12.5 24)" class="st3 st4 st7">Nr</text>
	</g>
	<g>
		<line class="st2" x1="92" y1="485" x2="92" y2="42"/>
		<line class="st2" x1="643" y1="485" x2="643" y2="42"/>
		<line class="st2" x1="92" y1="444.6" x2="97.5" y2="444.6"/>
		<line class="st2" x1="92" y1="310.4" x2="97.5" y2="310.4"/>
		<line class="st2" x1="92" y1="176.2" x2="97.5" y2="176.2"/>
		<line class="st2" x1="92" y1="42" x2="97.5" y2="42"/>
		<line class="st2" x1="643" y1="444.6" x2="637.5" y2="444.6"/>
		<line class="st2" x1="643" y1="310.4" x2="637.5" y2="310.4"/>
		<line class="st2" x1="643" y1="176.2" x2="637.5" y2="176.2"/>
		<line class="st2" x1="643" y1="42" x2="637.5" y2="42"/>
		<line class="st2" x1="92" y1="474.4" x2="94.8" y2="474.4"/>
		<line class="st2" x1="92" y1="465.4" x2="94.8" y2="465.4"/>
		<line class="st2" x1="92" y1="457.6" x2="94.8" y2="457.6"/>
		<line class="st2" x1="92" y1="450.7" x2="94.8" y2="450.7"/>
		<line class="st2" x1="92" y1="404.2" x2="94.8" y2="404.2"/>
		<line class="st2" x1="92" y1="380.6" x2="94.8" y2="380.6"/>
		<line class="st2" x1="92" y1="363.8" x2="94.8" y2="363.8"/>
		<line class="st2" x1="92" y1="350.8" x2="94.8" y2="350.8"/>
		<line class="st2" x1="92" y1="340.2" x2="94.8" y2="340.2"/>
		<line class="st2" x1="92" y1="331.2" x2="94.8" y2="331.2"/>
		<line class="st2" x1="92" y1="323.4" x2="94.8" y2="323.4"/>
		<line class="st2" x1="92" y1="316.5" x2="94.8" y2="316.5"/>
		<line class="st2" x1="92" y1="270" x2="94.8" y2="270"/>
		<line class="st2" x1="92" y1="246.4" x2="94.8" y2="246.4"/>
		<line class="st2" x1="92" y1="229.6" x2="94.8" y2="229.6"/>
		<line class="st2" x1="92" y1="216.6" x2="94.8" y2="216.6"/>
		<line class="st2" x1="92" y1="206" x2="94.8" y2="206"/>
		<line class="st2" x1="92" y1="197" x2="94.8" y2="197"/>
		<line class="st2" x1="92" y1="189.2" x2="94.8" y2="189.2"/>
		<line class="st2" x1="92" y1="182.3" x2="94.8" y2="182.3"/>
		<line class="st2" x1="92" y1="135.8" x2="94.8" y2="135.8"/>
		<line class="st2" x1="92" y1="112.2" x2="94.8" y2="112.2"/>
		<line class="st2" x1="92" y1="95.4" x2="94.8" y2="95.4"/>
		<line class="st2" x1="92" y1="82.4" x2="94.8" y2="82.4"/>
		<line class="st2" x1="92" y1="71.8" x2="94.8" y2="71.8"/>
		<line class="st2" x1="92" y1="62.8" x2="94.8" y2="62.8"/>
		<line class="st2" x1="92" y1="55" x2="94.8" y2="55"/>
		<line class="st2" x1="92" y1="48.1" x2="94.8" y2="48.1"/>
		<line class="st2" x1="643" y1="474.4" x2="640.2" y2="474.4"/>
		<line class="st2" x1="643" y1="465.4" x2="640.2" y2="465.4"/>
		<line class="st2" x1="643" y1="457.6" x2="640.2" y2="457.6"/>
		<line class="st2" x1="643" y1="450.7" x2="640.2" y2="450.7"/>
		<line class="st2" x1="643" y1="404.2" x2="640.2" y2="404.2"/>
		<line class="st2" x1="643" y1="380.6" x2="640.2" y2="380.6"/>
		<line class="st2" x1="643" y1="363.8" x2="640.2" y2="363.8"/>
		<line class="st2" x1="643" y1="350.8" x2="640.2" y2="350.8"/>
		<line class="st2" x1="643" y1="340.2" x2="640.2" y2="340.2"/>
		<line class="st2" x1="643" y1="331.2" x2="640.2" y2="331.2"/>
		<line class="st2" x1="643" y1="323.4" x2="640.2" y2="323.4"/>
		<line class="st2" x1="643" y1="316.5" x2="640.2" y2="316.5"/>
		<line class="st2" x1="643" y1="270" x2="640.2" y2="270"/>
		<line class="st2" x1="643" y1="246.4" x2="640.2" y2="246.4"/>
		<line class="st2" x1="643" y1="229.6" x2="640.2" y2="229.6"/>
		<line class="st2" x1="643" y1="216.6" x2="640.2" y2="216.6"/>
		<line class="st2" x1="643" y1="206" x2="640.2" y2="206"/>
		<line class="st2" x1="643" y1="197" x2="640.2" y2="197"/>
		<line class="st2" x1="643" y1="189.2" x2="640.2" y2="189.2"/>
		<line class="st2" x1="643" y1="182.3" x2="640.2" y2="182.3"/>
		<line class="st2" x1="643" y1="135.8" x2="640.2" y2="135.8"/>
		<line class="st2" x1="643" y1="112.2" x2="640.2" y2="112.2"/>
		<line class="st2" x1="643" y1="95.4" x2="640.2" y2="95.4"/>
		<line class="st2" x1="643" y1="82.4" x2="640.2" y2="82.4"/>
		<line class="st2" x1="643" y1="71.8" x2="640.2" y2="71.8"/>
		<line class="st2" x1="643" y1="62.8" x2="640.2" y2="62.8"/>
		<line class="st2" x1="643" y1="55" x2="640.2" y2="55"/>
		<line class="st2" x1="643" y1="48.1" x2="640.2" y2="48.1"/>
	</g>
	<g transform="translate(46,456)">
		<text transform="matrix(1 0 0 1 0 -1.464844e-05)" class="st3 st4 st5">10</text>
	</g>
	<g transform="translate(70,446)">
		<text transform="matrix(1 0 0 1 0 -1.464844e-05)" class="st3 st4 st6">-5</text>
	</g>
	<g transform="translate(46,321)">
		<text transform="matrix(1 0 0 1 0 -1.464844e-05)" class="st3 st4 st5">10</text>
	</g>
	<g transform="translate(70,311)">
		<text transform="matrix(1 0 0 1 0 -1.464844e-05)" class="st3 st4 st6">-4</text>
	</g>
	<g transform="translate(46,187)">
		<text transform="matrix(1 0 0 1 0 -1.464844e-05)" class="st3 st4 st5">10</text>
	</g>
	<g transform="translate(70,177)">
		<text transform="matrix(1 0 0 1 0 -1.464844e-05)" class="st3 st4 st6">-3</text>
	</g>
	<g transform="translate(46,53)">
		<text transform="matrix(1 0 0 1 0 -1.464844e-05)" class="st3 st4 st5">10</text>
	</g>
	<g transform="translate(70,43)">
		<text transform="matrix(1 0 0 1 0 -1.464844e-05)" class="st3 st4 st6">-2</text>
	</g>
	<g transform="translate(42.0667,263.4998) rotate(-90)">
		<text transform="matrix(1 0 0 1 -25.9996 -6)" class="st3 st4 st7">Error</text>
	</g>
	<g>
		<path class="st8" d="M130.6,160.9l128.1,107.6L386.8,383l128.1,82.6"/>
		<line class="st8" x1="126" y1="160.5" x2="135" y2="160.5"/>
		<line class="st8" x1="130.5" y1="165" x2="130.5" y2="156"/>
		<line class="st8" x1="127" y1="164" x2="134" y2="157"/>
		<line class="st8" x1="127" y1="157" x2="134" y2="164"/>
		<line class="st8" x1="254" y1="268.5" x2="263" y2="268.5"/>
		<line class="st8" x1="258.5" y1="273" x2="258.5" y2="264"/>
		<line class="st8" x1="255" y1="272" x2="262" y2="265"/>
		<line class="st8" x1="255" y1="265" x2="262" y2="272"/>
		<line class="st8" x1="382" y1="382.5" x2="391" y2="382.5"/>
		<line class="st8" x1="386.5" y1="387" x2="386.5" y2="378"/>
		<line class="st8" x1="383" y1="386" x2="390" y2="379"/>
		<line class="st8" x1="383" y1="379" x2="390" y2="386"/>
		<line class="st8" x1="510" y1="465.5" x2="519" y2="465.5"/>
		<line class="st8" x1="514.5" y1="470" x2="514.5" y2="461"/>
		<line class="st8" x1="511" y1="469" x2="518" y2="462"/>
		<line class="st8" x1="511" y1="462" x2="518" y2="469"/>
		<path class="st9" d="M106,182.4l49.8,25.4l92.9,41l44.6,42.8l43.2,50.5l42.3,40.4l42.5,32.5"/>
		<line class="st9" x1="101" y1="182.5" x2="110" y2="182.5"/>
		<line class="st9" x1="105.5" y1="187" x2="105.5" y2="178"/>
		<line class="st9" x1="102" y1="186" x2="109" y2="179"/>
		<line class="st9" x1="102" y1="179" x2="109" y2="186"/>
		<line class="st9" x1="151" y1="207.5" x2="160" y2="207.5"/>
		<line class="st9" x1="155.5" y1="212" x2="155.5" y2="203"/>
		<line class="st9" x1="152" y1="211" x2="159" y2="204"/>
		<line class="st9" x1="152" y1="204" x2="159" y2="211"/>
		<line class="st9" x1="244" y1="248.5" x2="253" y2="248.5"/>
		<line class="st9" x1="248.5" y1="253" x2="248.5" y2="244"/>
		<line class="st9" x1="245" y1="252" x2="252" y2="245"/>
		<line class="st9" x1="245" y1="245" x2="252" y2="252"/>
		<line class="st9" x1="289" y1="291.5" x2="298" y2="291.5"/>
		<line class="st9" x1="293.5" y1="296" x2="293.5" y2="287"/>
		<line class="st9" x1="290" y1="295" x2="297" y2="288"/>
		<line class="st9" x1="290" y1="288" x2="297" y2="295"/>
		<line class="st9" x1="332" y1="342.5" x2="341" y2="342.5"/>
		<line class="st9" x1="336.5" y1="347" x2="336.5" y2="338"/>
		<line class="st9" x1="333" y1="346" x2="340" y2="339"/>
		<line class="st9" x1="333" y1="339" x2="340" y2="346"/>
		<line class="st9" x1="374" y1="382.5" x2="383" y2="382.5"/>
		<line class="st9" x1="378.5" y1="387" x2="378.5" y2="378"/>
		<line class="st9" x1="375" y1="386" x2="382" y2="379"/>
		<line class="st9" x1="375" y1="379" x2="382" y2="386"/>
		<line class="st9" x1="417" y1="415.5" x2="426" y2="415.5"/>
		<line class="st9" x1="421.5" y1="420" x2="421.5" y2="411"/>
		<line class="st9" x1="418" y1="419" x2="425" y2="412"/>
		<line class="st9" x1="418" y1="412" x2="425" y2="419"/>
	</g>
	<g>
		<path class="st10" d="M128.9,227.8L257,362l117.4,123"/>
		<path class="st11" d="M128.9,108.2L257,175.3l128.2,67.1l128.1,67.1l128.1,67.1l1.7,0.9"/>
	</g>
	<g>
		<path class="st12" d="M130.6,166.6l128.1,41.9l128.1,70.1l128.1,63.7L643,414.4"/>
		<line class="st12" x1="126" y1="166.5" x2="135" y2="166.5"/>
		<line class="st12" x1="130.5" y1="171" x2="130.5" y2="162"/>
		<line class="st12" x1="127" y1="170" x2="134" y2="163"/>
		<line class="st12" x1="127" y1="163" x2="134" y2="170"/>
		<line class="st12" x1="254" y1="208.5" x2="263" y2="208.5"/>
		<line class="st12" x1="258.5" y1="213" x2="258.5" y2="204"/>
		<line class="st12" x1="255" y1="212" x2="262" y2="205"/>
		<line class="st12" x1="255" y1="205" x2="262" y2="212"/>
		<line class="st12" x1="382" y1="278.5" x2="391" y2="278.5"/>
		<line class="st12" x1="386.5" y1="283" x2="386.5" y2="274"/>
		<line class="st12" x1="383" y1="282" x2="390" y2="275"/>
		<line class="st12" x1="383" y1="275" x2="390" y2="282"/>
		<line class="st12" x1="510" y1="342.5" x2="519" y2="342.5"/>
		<line class="st12" x1="514.5" y1="347" x2="514.5" y2="338"/>
		<line class="st12" x1="511" y1="346" x2="518" y2="339"/>
		<line class="st12" x1="511" y1="339" x2="518" y2="346"/>
		<line class="st12" x1="639" y1="414.5" x2="648" y2="414.5"/>
		<line class="st12" x1="643.5" y1="419" x2="643.5" y2="410"/>
		<line class="st12" x1="640" y1="418" x2="647" y2="411"/>
		<line class="st12" x1="640" y1="411" x2="647" y2="418"/>
		<line class="st13" x1="91.9" y1="414.4" x2="643.1" y2="414.4"/>
	</g>
	<g>
		<path class="st1" d="M438,173V42h205v131H438z"/>
	</g>
	<g transform="translate(475,56.5)">
		<text transform="matrix(1 0 0 1 0 7.5)" class="st4 st14">MC ray tracing</text>
	</g>
	<g>
		<line class="st12" x1="442" y1="56.5" x2="472" y2="56.5"/>
		<line class="st12" x1="453" y1="56.5" x2="462" y2="56.5"/>
		<line class="st12" x1="457.5" y1="61" x2="457.5" y2="52"/>
		<line class="st12" x1="454" y1="60" x2="461" y2="53"/>
		<line class="st12" x1="454" y1="53" x2="461" y2="60"/>
	</g>
	<g transform="translate(475,82)">
		<text transform="matrix(1 0 0 1 0 7.5)" class="st4 st14">QMC ray tracing</text>
	</g>
	<g>
		<line class="st8" x1="442" y1="82" x2="472" y2="82"/>
		<line class="st8" x1="453" y1="81.5" x2="462" y2="81.5"/>
		<line class="st8" x1="457.5" y1="86" x2="457.5" y2="77"/>
		<line class="st8" x1="454" y1="85" x2="461" y2="78"/>
		<line class="st8" x1="454" y1="78" x2="461" y2="85"/>
	</g>
	<g transform="translate(475,107.5)">
		<text transform="matrix(1 0 0 1 0 7.5)" class="st4 st14">PS ray tracing</text>
	</g>
	<g>
		<line class="st9" x1="442" y1="107.5" x2="472" y2="107.5"/>
		<line class="st9" x1="453" y1="107.5" x2="462" y2="107.5"/>
		<line class="st9" x1="457.5" y1="112" x2="457.5" y2="103"/>
		<line class="st9" x1="454" y1="111" x2="461" y2="104"/>
		<line class="st9" x1="454" y1="104" x2="461" y2="111"/>
	</g>
	<g transform="translate(475,133)">
		<text transform="matrix(1 0 0 1 0 7.5)" class="st4 st14">Line with slope -1</text>
	</g>
	<g>
		<line class="st10" x1="442" y1="133" x2="472" y2="133"/>
	</g>
	<g transform="translate(475,158.5)">
		<text transform="matrix(1 0 0 1 0 7.5)" class="st4 st14">Line with slope -1/2</text>
	</g>
	<g>
		<line class="st11" x1="442" y1="158.5" x2="472" y2="158.5"/>
	</g>
	<g>
		<path class="st15" d="M438,173V42h205v131H438z"/>
	</g>
</g>
</svg>
