<?xml version="1.0" encoding="utf-8"?>
<!-- Generator: Adobe Illustrator 21.1.0, SVG Export Plug-In . SVG Version: 6.00 Build 0)  -->
<svg version="1.1" id="Layer_1" xmlns="http://www.w3.org/2000/svg" xmlns:xlink="http://www.w3.org/1999/xlink" x="0px" y="0px"
	 viewBox="0 0 711 555" style="enable-background:new 0 0 711 555;" xml:space="preserve">
<style type="text/css">
	.st0{clip-path:url(#SVGID_2_);fill:#FFFFFF;}
	.st1{fill:#FFFFFF;}
	.st2{fill:none;stroke:#262626;stroke-width:0.6667;stroke-linecap:square;stroke-linejoin:round;stroke-miterlimit:10;}
	.st3{fill:#262626;}
	.st4{fill:none;stroke:#0000FF;stroke-width:2.6667;stroke-linejoin:round;stroke-miterlimit:10;}
	.st5{fill:none;stroke:#FF0000;stroke-width:2.6667;stroke-linejoin:round;stroke-miterlimit:10;}
	.st6{fill:none;stroke:#00FF00;stroke-width:2.6667;stroke-linejoin:round;stroke-miterlimit:10;}
	.st7{fill:none;stroke:#262626;stroke-width:0.6667;stroke-miterlimit:10;}
</style>
<g>
	<g>
		<g>
			<defs>
				<rect id="SVGID_1_" y="0" width="711" height="555"/>
			</defs>
			<clipPath id="SVGID_2_">
				<use xlink:href="#SVGID_1_"  style="overflow:visible;"/>
			</clipPath>
			<rect y="0" class="st0" width="711" height="555"/>
		</g>
	</g>
	<g>
		<rect y="0" class="st1" width="711" height="555"/>
		<path class="st1" d="M92,490h551V42H92V490z"/>
	</g>
	<g>
		<line class="st2" x1="92" y1="490" x2="643" y2="490"/>
		<line class="st2" x1="92" y1="42" x2="643" y2="42"/>
		<line class="st2" x1="92" y1="490" x2="92" y2="484.5"/>
		<line class="st2" x1="202.2" y1="490" x2="202.2" y2="484.5"/>
		<line class="st2" x1="312.4" y1="490" x2="312.4" y2="484.5"/>
		<line class="st2" x1="422.6" y1="490" x2="422.6" y2="484.5"/>
		<line class="st2" x1="532.8" y1="490" x2="532.8" y2="484.5"/>
		<line class="st2" x1="643" y1="490" x2="643" y2="484.5"/>
		<line class="st2" x1="92" y1="42" x2="92" y2="47.5"/>
		<line class="st2" x1="202.2" y1="42" x2="202.2" y2="47.5"/>
		<line class="st2" x1="312.4" y1="42" x2="312.4" y2="47.5"/>
		<line class="st2" x1="422.6" y1="42" x2="422.6" y2="47.5"/>
		<line class="st2" x1="532.8" y1="42" x2="532.8" y2="47.5"/>
		<line class="st2" x1="643" y1="42" x2="643" y2="47.5"/>
	</g>
	<g transform="translate(92,496.9333)">
		<path class="st3" d="M-5.1,14.6c0-1.8,0.2-3.2,0.5-4.3C-4.2,9.2-3.7,8.4-3,7.8c0.7-0.6,1.6-0.9,2.7-0.9c0.8,0,1.5,0.2,2.1,0.5
			C2.5,7.7,3,8.2,3.4,8.8c0.4,0.6,0.7,1.4,0.9,2.2c0.2,0.9,0.3,2.1,0.3,3.6c0,1.8-0.2,3.2-0.5,4.3c-0.4,1.1-0.9,1.9-1.6,2.5
			c-0.7,0.6-1.6,0.9-2.7,0.9c-1.4,0-2.6-0.5-3.4-1.5C-4.6,19.5-5.1,17.4-5.1,14.6z M-3.2,14.6c0,2.5,0.3,4.1,0.9,4.9
			s1.3,1.2,2.1,1.2c0.9,0,1.6-0.4,2.1-1.2c0.6-0.8,0.9-2.5,0.9-4.9c0-2.5-0.3-4.1-0.9-4.9C1.3,8.8,0.6,8.4-0.3,8.4
			c-0.8,0-1.5,0.4-2,1.1C-2.9,10.4-3.2,12.1-3.2,14.6z"/>
	</g>
	<g transform="translate(202.2,496.9333)">
		<path class="st3" d="M-14.1,14.6c0-1.8,0.2-3.2,0.5-4.3c0.4-1.1,0.9-1.9,1.6-2.5c0.7-0.6,1.6-0.9,2.7-0.9c0.8,0,1.5,0.2,2.1,0.5
			C-6.5,7.7-6,8.2-5.6,8.8c0.4,0.6,0.7,1.4,0.9,2.2c0.2,0.9,0.3,2.1,0.3,3.6c0,1.8-0.2,3.2-0.5,4.3c-0.4,1.1-0.9,1.9-1.6,2.5
			c-0.7,0.6-1.6,0.9-2.7,0.9c-1.4,0-2.6-0.5-3.4-1.5C-13.6,19.5-14.1,17.4-14.1,14.6z M-12.2,14.6c0,2.5,0.3,4.1,0.9,4.9
			c0.6,0.8,1.3,1.2,2.1,1.2c0.9,0,1.6-0.4,2.1-1.2c0.6-0.8,0.9-2.5,0.9-4.9c0-2.5-0.3-4.1-0.9-4.9c-0.6-0.8-1.3-1.2-2.2-1.2
			c-0.8,0-1.5,0.4-2,1.1C-11.9,10.4-12.2,12.1-12.2,14.6z M-1.4,22v-2.1h2.1V22H-1.4z M10.3,22H8.5V10.2c-0.4,0.4-1,0.9-1.8,1.3
			c-0.7,0.4-1.4,0.7-1.9,1v-1.8c1-0.5,1.9-1.1,2.7-1.8c0.8-0.7,1.3-1.4,1.6-2h1.2V22z"/>
	</g>
	<g transform="translate(312.4,496.9333)">
		<path class="st3" d="M-14.1,14.6c0-1.8,0.2-3.2,0.5-4.3c0.4-1.1,0.9-1.9,1.6-2.5c0.7-0.6,1.6-0.9,2.7-0.9c0.8,0,1.5,0.2,2.1,0.5
			C-6.5,7.7-6,8.2-5.6,8.8c0.4,0.6,0.7,1.4,0.9,2.2c0.2,0.9,0.3,2.1,0.3,3.6c0,1.8-0.2,3.2-0.5,4.3c-0.4,1.1-0.9,1.9-1.6,2.5
			c-0.7,0.6-1.6,0.9-2.7,0.9c-1.4,0-2.6-0.5-3.4-1.5C-13.6,19.5-14.1,17.4-14.1,14.6z M-12.2,14.6c0,2.5,0.3,4.1,0.9,4.9
			c0.6,0.8,1.3,1.2,2.1,1.2c0.9,0,1.6-0.4,2.1-1.2c0.6-0.8,0.9-2.5,0.9-4.9c0-2.5-0.3-4.1-0.9-4.9c-0.6-0.8-1.3-1.2-2.2-1.2
			c-0.8,0-1.5,0.4-2,1.1C-11.9,10.4-12.2,12.1-12.2,14.6z M-1.4,22v-2.1h2.1V22H-1.4z M13.1,20.2V22H3.2c0-0.4,0-0.9,0.2-1.3
			c0.3-0.7,0.7-1.3,1.2-2c0.6-0.7,1.4-1.4,2.4-2.3c1.6-1.3,2.7-2.4,3.3-3.2c0.6-0.8,0.9-1.5,0.9-2.2c0-0.7-0.3-1.3-0.8-1.8
			c-0.5-0.5-1.2-0.8-2-0.8c-0.9,0-1.6,0.3-2.1,0.8c-0.5,0.5-0.8,1.3-0.8,2.2l-1.9-0.2C3.6,9.8,4.1,8.8,5,8c0.8-0.7,2-1.1,3.4-1.1
			c1.4,0,2.6,0.4,3.4,1.2c0.8,0.8,1.3,1.8,1.3,3c0,0.6-0.1,1.2-0.4,1.8c-0.2,0.6-0.7,1.2-1.2,1.8s-1.5,1.5-2.8,2.6
			c-1.1,0.9-1.8,1.6-2.1,1.9c-0.3,0.3-0.6,0.7-0.8,1H13.1z"/>
	</g>
	<g transform="translate(422.6,496.9333)">
		<path class="st3" d="M-14.1,14.6c0-1.8,0.2-3.2,0.5-4.3c0.4-1.1,0.9-1.9,1.6-2.5c0.7-0.6,1.6-0.9,2.7-0.9c0.8,0,1.5,0.2,2.1,0.5
			C-6.5,7.7-6,8.2-5.6,8.8c0.4,0.6,0.7,1.4,0.9,2.2c0.2,0.9,0.3,2.1,0.3,3.6c0,1.8-0.2,3.2-0.5,4.3c-0.4,1.1-0.9,1.9-1.6,2.5
			c-0.7,0.6-1.6,0.9-2.7,0.9c-1.4,0-2.6-0.5-3.4-1.5C-13.6,19.5-14.1,17.4-14.1,14.6z M-12.2,14.6c0,2.5,0.3,4.1,0.9,4.9
			c0.6,0.8,1.3,1.2,2.1,1.2c0.9,0,1.6-0.4,2.1-1.2c0.6-0.8,0.9-2.5,0.9-4.9c0-2.5-0.3-4.1-0.9-4.9c-0.6-0.8-1.3-1.2-2.2-1.2
			c-0.8,0-1.5,0.4-2,1.1C-11.9,10.4-12.2,12.1-12.2,14.6z M-1.4,22v-2.1h2.1V22H-1.4z M3.4,18l1.9-0.3c0.2,1.1,0.6,1.8,1.1,2.3
			c0.5,0.5,1.1,0.7,1.9,0.7c0.9,0,1.6-0.3,2.2-0.9c0.6-0.6,0.9-1.3,0.9-2.2c0-0.8-0.3-1.5-0.8-2.1c-0.6-0.6-1.3-0.8-2.1-0.8
			c-0.4,0-0.8,0.1-1.3,0.2l0.2-1.6c0.1,0,0.2,0,0.3,0c0.8,0,1.5-0.2,2.1-0.6c0.6-0.4,0.9-1,0.9-1.9c0-0.7-0.2-1.2-0.7-1.7
			C9.5,8.6,8.9,8.4,8.1,8.4c-0.7,0-1.3,0.2-1.8,0.7c-0.5,0.5-0.8,1.1-0.9,2l-1.8-0.3c0.2-1.2,0.7-2.2,1.5-2.9c0.8-0.7,1.8-1,3-1
			c0.8,0,1.6,0.2,2.3,0.5c0.7,0.4,1.2,0.8,1.6,1.4c0.4,0.6,0.5,1.2,0.5,1.9c0,0.6-0.2,1.2-0.5,1.8s-0.9,1-1.5,1.3
			c0.9,0.2,1.6,0.6,2.1,1.3c0.5,0.6,0.7,1.5,0.7,2.4c0,1.3-0.5,2.4-1.4,3.3s-2.2,1.4-3.6,1.4c-1.3,0-2.4-0.4-3.3-1.2
			S3.5,19.3,3.4,18z"/>
	</g>
	<g transform="translate(532.8,496.9333)">
		<path class="st3" d="M-14.1,14.6c0-1.8,0.2-3.2,0.5-4.3c0.4-1.1,0.9-1.9,1.6-2.5c0.7-0.6,1.6-0.9,2.7-0.9c0.8,0,1.5,0.2,2.1,0.5
			C-6.5,7.7-6,8.2-5.6,8.8c0.4,0.6,0.7,1.4,0.9,2.2c0.2,0.9,0.3,2.1,0.3,3.6c0,1.8-0.2,3.2-0.5,4.3c-0.4,1.1-0.9,1.9-1.6,2.5
			c-0.7,0.6-1.6,0.9-2.7,0.9c-1.4,0-2.6-0.5-3.4-1.5C-13.6,19.5-14.1,17.4-14.1,14.6z M-12.2,14.6c0,2.5,0.3,4.1,0.9,4.9
			c0.6,0.8,1.3,1.2,2.1,1.2c0.9,0,1.6-0.4,2.1-1.2c0.6-0.8,0.9-2.5,0.9-4.9c0-2.5-0.3-4.1-0.9-4.9c-0.6-0.8-1.3-1.2-2.2-1.2
			c-0.8,0-1.5,0.4-2,1.1C-11.9,10.4-12.2,12.1-12.2,14.6z M-1.4,22v-2.1h2.1V22H-1.4z M9.3,22v-3.6H2.8v-1.7L9.6,7h1.5v9.7h2v1.7h-2
			V22H9.3z M9.3,16.7V9.9l-4.7,6.8H9.3z"/>
	</g>
	<g transform="translate(643,496.9333)">
		<path class="st3" d="M-14.1,14.6c0-1.8,0.2-3.2,0.5-4.3c0.4-1.1,0.9-1.9,1.6-2.5c0.7-0.6,1.6-0.9,2.7-0.9c0.8,0,1.5,0.2,2.1,0.5
			C-6.5,7.7-6,8.2-5.6,8.8c0.4,0.6,0.7,1.4,0.9,2.2c0.2,0.9,0.3,2.1,0.3,3.6c0,1.8-0.2,3.2-0.5,4.3c-0.4,1.1-0.9,1.9-1.6,2.5
			c-0.7,0.6-1.6,0.9-2.7,0.9c-1.4,0-2.6-0.5-3.4-1.5C-13.6,19.5-14.1,17.4-14.1,14.6z M-12.2,14.6c0,2.5,0.3,4.1,0.9,4.9
			c0.6,0.8,1.3,1.2,2.1,1.2c0.9,0,1.6-0.4,2.1-1.2c0.6-0.8,0.9-2.5,0.9-4.9c0-2.5-0.3-4.1-0.9-4.9c-0.6-0.8-1.3-1.2-2.2-1.2
			c-0.8,0-1.5,0.4-2,1.1C-11.9,10.4-12.2,12.1-12.2,14.6z M-1.4,22v-2.1h2.1V22H-1.4z M3.4,18.1l1.9-0.2c0.1,0.9,0.5,1.7,1,2.1
			c0.5,0.5,1.2,0.7,1.9,0.7c0.9,0,1.6-0.3,2.3-1c0.6-0.7,0.9-1.6,0.9-2.7c0-1.1-0.3-1.9-0.9-2.5c-0.6-0.6-1.4-0.9-2.3-0.9
			c-0.6,0-1.1,0.1-1.6,0.4c-0.5,0.3-0.9,0.6-1.1,1.1l-1.7-0.2l1.5-7.7h7.5v1.8h-6l-0.8,4C6.7,12.3,7.7,12,8.7,12
			c1.3,0,2.4,0.5,3.3,1.4c0.9,0.9,1.4,2.1,1.4,3.5c0,1.4-0.4,2.5-1.2,3.5c-1,1.2-2.3,1.8-4,1.8c-1.4,0-2.5-0.4-3.3-1.1
			C4,20.3,3.5,19.3,3.4,18.1z"/>
	</g>
	<g transform="translate(360,549)">
		<path class="st3" d="M4.6,0.3c-0.7,0-1.4-0.2-1.9-0.5s-1-0.8-1.3-1.4c-0.3-0.6-0.5-1.2-0.5-2c0-1,0.3-2.1,0.9-3.1
			c0.6-1,1.3-1.8,2.3-2.5c1-0.6,2-1,3-1c0.8,0,1.5,0.2,2.1,0.6c0.6,0.4,1,0.9,1.4,1.6C10.8-7.2,11-6.5,11-5.8l0,1.5
			c0.5-0.7,1-1.5,1.3-2.3c0.4-0.8,0.6-1.6,0.8-2.4C13.2-9,13.3-9,13.4-9h0.3c0.1,0,0.2,0.1,0.2,0.2c0,0,0,0,0,0.1
			c-0.2,0.7-0.4,1.4-0.7,2c-0.3,0.6-0.6,1.3-1,1.9c-0.4,0.6-0.8,1.2-1.2,1.6c0,1.9,0.2,2.9,0.7,2.9c0.3,0,0.5-0.1,0.7-0.3
			c0.2-0.2,0.3-0.4,0.5-0.6c0.1-0.2,0.2-0.4,0.3-0.4h0.3c0.1,0,0.2,0.1,0.2,0.2c0,0.4-0.2,0.7-0.7,1.1c-0.4,0.4-0.9,0.5-1.3,0.5
			c-0.6,0-1-0.2-1.4-0.5C9.9-0.6,9.6-1.1,9.5-1.7C8.8-1.1,8-0.6,7.2-0.3C6.3,0.1,5.5,0.3,4.6,0.3z M4.7-0.3c1.6,0,3.2-0.7,4.7-2
			c0-0.1,0-0.2,0-0.3c0-0.1,0-0.2,0-0.2v-2.5c0-2.8-0.7-4.2-2.2-4.2c-0.9,0-1.7,0.4-2.4,1.1C4.1-7.6,3.5-6.7,3.2-5.7
			c-0.3,1.1-0.5,2-0.5,2.9c0,0.7,0.2,1.2,0.5,1.7C3.5-0.6,4-0.3,4.7-0.3z"/>
	</g>
	<g>
		<line class="st2" x1="92" y1="490" x2="92" y2="42"/>
		<line class="st2" x1="643" y1="490" x2="643" y2="42"/>
		<line class="st2" x1="92" y1="490" x2="97.5" y2="490"/>
		<line class="st2" x1="92" y1="440.2" x2="97.5" y2="440.2"/>
		<line class="st2" x1="92" y1="390.4" x2="97.5" y2="390.4"/>
		<line class="st2" x1="92" y1="340.7" x2="97.5" y2="340.7"/>
		<line class="st2" x1="92" y1="290.9" x2="97.5" y2="290.9"/>
		<line class="st2" x1="92" y1="241.1" x2="97.5" y2="241.1"/>
		<line class="st2" x1="92" y1="191.3" x2="97.5" y2="191.3"/>
		<line class="st2" x1="92" y1="141.6" x2="97.5" y2="141.6"/>
		<line class="st2" x1="92" y1="91.8" x2="97.5" y2="91.8"/>
		<line class="st2" x1="92" y1="42" x2="97.5" y2="42"/>
		<line class="st2" x1="643" y1="490" x2="637.5" y2="490"/>
		<line class="st2" x1="643" y1="440.2" x2="637.5" y2="440.2"/>
		<line class="st2" x1="643" y1="390.4" x2="637.5" y2="390.4"/>
		<line class="st2" x1="643" y1="340.7" x2="637.5" y2="340.7"/>
		<line class="st2" x1="643" y1="290.9" x2="637.5" y2="290.9"/>
		<line class="st2" x1="643" y1="241.1" x2="637.5" y2="241.1"/>
		<line class="st2" x1="643" y1="191.3" x2="637.5" y2="191.3"/>
		<line class="st2" x1="643" y1="141.6" x2="637.5" y2="141.6"/>
		<line class="st2" x1="643" y1="91.8" x2="637.5" y2="91.8"/>
		<line class="st2" x1="643" y1="42" x2="637.5" y2="42"/>
	</g>
	<g transform="translate(85.0667,490)">
		<path class="st3" d="M-11.1,1.1c0-1.8,0.2-3.2,0.5-4.3S-9.7-5.1-9-5.7c0.7-0.6,1.6-0.9,2.7-0.9c0.8,0,1.5,0.2,2.1,0.5
			C-3.5-5.8-3-5.3-2.6-4.7c0.4,0.6,0.7,1.4,0.9,2.2c0.2,0.9,0.3,2.1,0.3,3.6c0,1.8-0.2,3.2-0.5,4.3c-0.4,1.1-0.9,1.9-1.6,2.5
			c-0.7,0.6-1.6,0.9-2.7,0.9c-1.4,0-2.6-0.5-3.4-1.5C-10.6,6-11.1,3.9-11.1,1.1z M-9.2,1.1c0,2.5,0.3,4.1,0.9,4.9
			c0.6,0.8,1.3,1.2,2.1,1.2c0.9,0,1.6-0.4,2.1-1.2c0.6-0.8,0.9-2.5,0.9-4.9c0-2.5-0.3-4.1-0.9-4.9c-0.6-0.8-1.3-1.2-2.2-1.2
			c-0.8,0-1.5,0.4-2,1.1C-8.9-3.1-9.2-1.4-9.2,1.1z"/>
	</g>
	<g transform="translate(85.0667,440.2222)">
		<path class="st3" d="M-4.2,8.5H-6V-3.3C-6.5-2.8-7-2.4-7.8-2c-0.7,0.4-1.4,0.7-1.9,1v-1.8c1-0.5,1.9-1.1,2.7-1.8
			c0.8-0.7,1.3-1.4,1.6-2h1.2V8.5z"/>
	</g>
	<g transform="translate(85.0667,390.4445)">
		<path class="st3" d="M-1.4,6.7v1.8h-9.9c0-0.4,0-0.9,0.2-1.3c0.3-0.7,0.7-1.3,1.2-2c0.6-0.7,1.4-1.4,2.4-2.3
			c1.6-1.3,2.7-2.4,3.3-3.2C-3.6-1-3.3-1.8-3.3-2.5c0-0.7-0.3-1.3-0.8-1.8c-0.5-0.5-1.2-0.8-2-0.8c-0.9,0-1.6,0.3-2.1,0.8
			C-8.8-3.7-9.1-3-9.1-2L-11-2.3c0.1-1.4,0.6-2.5,1.5-3.2c0.8-0.7,2-1.1,3.4-1.1c1.4,0,2.6,0.4,3.4,1.2c0.8,0.8,1.3,1.8,1.3,3
			c0,0.6-0.1,1.2-0.4,1.8S-2.5,0.5-3,1.2c-0.6,0.6-1.5,1.5-2.8,2.6C-7,4.8-7.7,5.4-8,5.7c-0.3,0.3-0.6,0.7-0.8,1H-1.4z"/>
	</g>
	<g transform="translate(85.0667,340.6667)">
		<path class="st3" d="M-11.1,4.5l1.9-0.3c0.2,1.1,0.6,1.8,1.1,2.3s1.1,0.7,1.9,0.7c0.9,0,1.6-0.3,2.2-0.9C-3.5,5.7-3.2,5-3.2,4.1
			c0-0.8-0.3-1.5-0.8-2.1s-1.3-0.8-2.1-0.8c-0.4,0-0.8,0.1-1.3,0.2l0.2-1.6c0.1,0,0.2,0,0.3,0c0.8,0,1.5-0.2,2.1-0.6
			c0.6-0.4,0.9-1,0.9-1.9c0-0.7-0.2-1.2-0.7-1.7c-0.5-0.4-1.1-0.7-1.8-0.7c-0.7,0-1.3,0.2-1.8,0.7c-0.5,0.5-0.8,1.1-0.9,2l-1.8-0.3
			c0.2-1.2,0.7-2.2,1.5-2.9c0.8-0.7,1.8-1,3-1c0.8,0,1.6,0.2,2.3,0.5c0.7,0.4,1.2,0.8,1.6,1.4S-2-3.4-2-2.7C-2-2-2.2-1.5-2.5-0.9
			c-0.3,0.5-0.9,1-1.5,1.3C-3.2,0.6-2.5,1-2,1.6c0.5,0.6,0.7,1.5,0.7,2.4c0,1.3-0.5,2.4-1.4,3.3c-1,0.9-2.2,1.4-3.6,1.4
			c-1.3,0-2.4-0.4-3.3-1.2C-10.5,6.8-11,5.8-11.1,4.5z"/>
	</g>
	<g transform="translate(85.0667,290.8889)">
		<path class="st3" d="M-5.2,8.5V4.9h-6.5V3.2l6.9-9.7h1.5v9.7h2v1.7h-2v3.6H-5.2z M-5.2,3.2v-6.8l-4.7,6.8H-5.2z"/>
	</g>
	<g transform="translate(85.0667,241.1111)">
		<path class="st3" d="M-11.1,4.6l1.9-0.2C-9,5.3-8.7,6-8.2,6.5C-7.7,7-7,7.2-6.3,7.2c0.9,0,1.6-0.3,2.3-1s0.9-1.6,0.9-2.7
			c0-1.1-0.3-1.9-0.9-2.5s-1.4-0.9-2.3-0.9c-0.6,0-1.1,0.1-1.6,0.4s-0.9,0.6-1.1,1.1l-1.7-0.2l1.5-7.7h7.5v1.8h-6l-0.8,4
			c0.9-0.6,1.8-0.9,2.8-0.9c1.3,0,2.4,0.5,3.3,1.4S-1.2,2-1.2,3.4c0,1.4-0.4,2.5-1.2,3.5c-1,1.2-2.3,1.8-4,1.8
			c-1.4,0-2.5-0.4-3.3-1.1C-10.5,6.8-11,5.8-11.1,4.6z"/>
	</g>
	<g transform="translate(85.0667,191.3333)">
		<path class="st3" d="M-1.5-2.8l-1.8,0.1C-3.5-3.4-3.8-4-4.1-4.3c-0.5-0.5-1.1-0.8-1.8-0.8c-0.6,0-1.1,0.2-1.6,0.5
			c-0.6,0.4-1,1-1.4,1.8c-0.3,0.8-0.5,2-0.5,3.5c0.4-0.7,1-1.2,1.6-1.5c0.6-0.3,1.3-0.5,2-0.5c1.2,0,2.3,0.5,3.1,1.4
			s1.3,2.1,1.3,3.5c0,0.9-0.2,1.8-0.6,2.6s-1,1.4-1.7,1.9C-4.3,8.5-5.1,8.7-6,8.7c-1.5,0-2.8-0.6-3.8-1.7c-1-1.1-1.5-3-1.5-5.6
			c0-2.9,0.5-5,1.6-6.3C-8.7-6-7.4-6.6-5.8-6.6c1.2,0,2.1,0.3,2.9,1C-2.2-4.9-1.7-4-1.5-2.8z M-9.1,3.6c0,0.6,0.1,1.2,0.4,1.8
			s0.6,1,1.1,1.3c0.5,0.3,1,0.5,1.5,0.5c0.8,0,1.4-0.3,2-0.9c0.6-0.6,0.8-1.5,0.8-2.6c0-1-0.3-1.9-0.8-2.5c-0.6-0.6-1.3-0.9-2.1-0.9
			c-0.8,0-1.5,0.3-2.1,0.9C-8.8,1.9-9.1,2.7-9.1,3.6z"/>
	</g>
	<g transform="translate(85.0667,141.5556)">
		<path class="st3" d="M-11-4.6v-1.8h9.7v1.4c-0.9,1-1.9,2.4-2.8,4.1c-0.9,1.7-1.7,3.4-2.2,5.2C-6.7,5.6-6.9,7-7,8.5h-1.9
			c0-1.2,0.3-2.6,0.7-4.3c0.4-1.7,1.1-3.3,1.9-4.8c0.8-1.6,1.7-2.9,2.7-3.9H-11z"/>
	</g>
	<g transform="translate(85.0667,91.7778)">
		<path class="st3" d="M-8.3,0.3C-9.1,0.1-9.6-0.3-10-0.9c-0.4-0.5-0.6-1.1-0.6-1.9c0-1.1,0.4-2,1.2-2.8s1.8-1.1,3.1-1.1
			c1.3,0,2.4,0.4,3.2,1.1c0.8,0.8,1.2,1.7,1.2,2.8C-1.9-2-2-1.4-2.4-0.9c-0.4,0.5-0.9,0.9-1.7,1.2C-3.2,0.6-2.4,1.1-2,1.8
			c0.5,0.7,0.7,1.5,0.7,2.4c0,1.3-0.5,2.4-1.4,3.2s-2.1,1.3-3.6,1.3c-1.5,0-2.7-0.4-3.6-1.3c-0.9-0.9-1.4-2-1.4-3.3
			c0-1,0.3-1.8,0.8-2.5S-9.2,0.6-8.3,0.3z M-8.7-2.8C-8.7-2.1-8.4-1.5-8-1c0.5,0.5,1.1,0.7,1.8,0.7c0.7,0,1.3-0.2,1.8-0.7
			C-4-1.5-3.8-2-3.8-2.7c0-0.7-0.2-1.2-0.7-1.7s-1.1-0.7-1.8-0.7c-0.7,0-1.3,0.2-1.8,0.7C-8.4-3.9-8.7-3.4-8.7-2.8z M-9.3,4.2
			c0,0.5,0.1,1,0.4,1.5s0.6,0.9,1.1,1.1c0.5,0.3,1,0.4,1.6,0.4C-5.3,7.2-4.6,7-4,6.4s0.9-1.3,0.9-2.2C-3.1,3.3-3.4,2.6-4,2
			s-1.3-0.9-2.2-0.9c-0.9,0-1.6,0.3-2.2,0.9C-9,2.6-9.3,3.3-9.3,4.2z"/>
	</g>
	<g transform="translate(85.0667,42)">
		<path class="st3" d="M-10.8,5l1.8-0.2c0.1,0.8,0.4,1.4,0.9,1.8c0.4,0.4,1,0.6,1.6,0.6c0.6,0,1.1-0.1,1.5-0.4
			c0.4-0.3,0.8-0.6,1.1-1c0.3-0.4,0.5-1,0.7-1.8c0.2-0.7,0.3-1.5,0.3-2.2c0-0.1,0-0.2,0-0.4C-3.5,2-4,2.5-4.6,2.9
			c-0.6,0.4-1.3,0.5-2.1,0.5C-7.9,3.4-9,3-9.8,2.1c-0.9-0.9-1.3-2.1-1.3-3.6c0-1.5,0.4-2.8,1.3-3.7c0.9-0.9,2-1.4,3.4-1.4
			c1,0,1.9,0.3,2.7,0.8c0.8,0.5,1.4,1.3,1.8,2.3s0.6,2.4,0.6,4.2c0,1.9-0.2,3.5-0.6,4.6c-0.4,1.1-1,2-1.9,2.6
			c-0.8,0.6-1.8,0.9-2.9,0.9c-1.2,0-2.1-0.3-2.9-1C-10.3,7.1-10.7,6.2-10.8,5z M-3.3-1.6c0-1.1-0.3-1.9-0.8-2.5
			c-0.6-0.6-1.2-0.9-2-0.9c-0.8,0-1.5,0.3-2.1,1s-0.9,1.5-0.9,2.6c0,1,0.3,1.7,0.9,2.3c0.6,0.6,1.3,0.9,2.1,0.9
			c0.9,0,1.6-0.3,2.1-0.9C-3.6,0.3-3.3-0.5-3.3-1.6z"/>
	</g>
	<g transform="translate(69.0667,265.9998) rotate(-90)">
		<path class="st3" d="M-41.2-6v-16.5h11.9v2H-39v5h9.1v1.9H-39v5.6h10.1V-6H-41.2z M-21.7-7.8l0.3,1.8C-22-5.9-22.5-5.8-23-5.8
			c-0.7,0-1.3-0.1-1.7-0.4c-0.4-0.2-0.7-0.5-0.9-0.9c-0.2-0.4-0.2-1.2-0.2-2.4v-6.9h-1.5v-1.6h1.5v-3l2-1.2v4.2h2v1.6h-2v7
			c0,0.6,0,0.9,0.1,1.1s0.2,0.3,0.4,0.4c0.2,0.1,0.4,0.1,0.7,0.1C-22.4-7.7-22.1-7.8-21.7-7.8z M-11.6-9.8l2.1,0.3
			c-0.3,1.2-0.9,2.2-1.8,2.8c-0.9,0.7-2,1-3.4,1c-1.8,0-3.1-0.5-4.2-1.6c-1-1.1-1.5-2.6-1.5-4.5c0-2,0.5-3.6,1.5-4.7
			c1-1.1,2.4-1.7,4-1.7c1.6,0,2.9,0.5,3.9,1.6c1,1.1,1.5,2.6,1.5,4.6c0,0.1,0,0.3,0,0.5h-8.9c0.1,1.3,0.4,2.3,1.1,3
			c0.7,0.7,1.5,1,2.5,1c0.7,0,1.4-0.2,1.9-0.6C-12.3-8.4-11.9-9-11.6-9.8z M-18.2-13.1h6.7c-0.1-1-0.3-1.8-0.8-2.3
			c-0.6-0.8-1.5-1.2-2.5-1.2c-0.9,0-1.7,0.3-2.3,0.9C-17.8-15-18.2-14.2-18.2-13.1z M-7-6v-11.9h1.8v1.7c0.9-1.3,2.2-2,3.8-2
			c0.7,0,1.4,0.1,2,0.4c0.6,0.3,1.1,0.6,1.4,1c0.3,0.4,0.5,0.9,0.6,1.5c0.1,0.4,0.1,1,0.1,2V-6h-2v-7.3c0-0.8-0.1-1.4-0.2-1.9
			s-0.4-0.7-0.8-1c-0.4-0.2-0.9-0.4-1.4-0.4c-0.9,0-1.6,0.3-2.2,0.8c-0.6,0.5-0.9,1.6-0.9,3.1V-6H-7z M13.6-6v-1.5
			c-0.8,1.2-1.9,1.8-3.3,1.8C9.3-5.7,8.4-6,7.6-6.5C6.8-7,6.2-7.8,5.8-8.7c-0.4-0.9-0.7-2-0.7-3.2c0-1.2,0.2-2.3,0.6-3.2
			c0.4-1,1-1.7,1.8-2.2c0.8-0.5,1.7-0.8,2.7-0.8c0.7,0,1.4,0.2,1.9,0.5c0.6,0.3,1,0.7,1.4,1.2v-5.9h2V-6H13.6z M7.2-12
			c0,1.5,0.3,2.7,1,3.4c0.6,0.8,1.4,1.1,2.3,1.1c0.9,0,1.6-0.4,2.3-1.1c0.6-0.7,0.9-1.8,0.9-3.3c0-1.6-0.3-2.8-0.9-3.6
			c-0.6-0.8-1.4-1.1-2.3-1.1c-0.9,0-1.6,0.4-2.3,1.1C7.5-14.7,7.2-13.5,7.2-12z M26.4-6v-1.8c-0.9,1.3-2.2,2-3.8,2
			c-0.7,0-1.4-0.1-2-0.4c-0.6-0.3-1.1-0.6-1.4-1c-0.3-0.4-0.5-0.9-0.6-1.5c-0.1-0.4-0.1-1-0.1-1.9v-7.4h2v6.6c0,1.1,0,1.8,0.1,2.1
			c0.1,0.5,0.4,0.9,0.8,1.3c0.4,0.3,0.9,0.5,1.5,0.5c0.6,0,1.2-0.2,1.7-0.5c0.5-0.3,0.9-0.7,1.1-1.3c0.2-0.5,0.3-1.3,0.3-2.3v-6.4h2
			V-6H26.4z M39.6-9.8l2.1,0.3c-0.3,1.2-0.9,2.2-1.8,2.8c-0.9,0.7-2,1-3.4,1c-1.8,0-3.1-0.5-4.2-1.6c-1-1.1-1.5-2.6-1.5-4.5
			c0-2,0.5-3.6,1.5-4.7c1-1.1,2.4-1.7,4-1.7c1.6,0,2.9,0.5,3.9,1.6c1,1.1,1.5,2.6,1.5,4.6c0,0.1,0,0.3,0,0.5h-8.9
			c0.1,1.3,0.4,2.3,1.1,3s1.5,1,2.5,1c0.7,0,1.4-0.2,1.9-0.6C38.9-8.4,39.3-9,39.6-9.8z M32.9-13.1h6.7c-0.1-1-0.3-1.8-0.8-2.3
			c-0.6-0.8-1.5-1.2-2.5-1.2c-0.9,0-1.7,0.3-2.3,0.9C33.4-15,33-14.2,32.9-13.1z"/>
	</g>
	<g>
		<path class="st4" d="M92,490l5.5-59.6l5.5-54.8l5.5-48.2l5.5-39.9l5.5-29.8l5.5-21.6l5.5-17.4l5.5-14.8l5.5-13.8l5.5-14.3
			l5.5-16.6l5.5-17.8l5.5-16.5l5.5-12.8l5.5-6.5l5.5-2l5.5-1.2l5.5-0.9l5.5-1.1l5.5-1.8l5.5-4.2l5.5-6.8l5.5-7.7l5.5-6.8l5.5-4.2
			l5.5-2l5.5-1.7l5.5-1.3l5.5-1.1l5.5-0.8l5.5-0.7l5.5-0.6l5.5-0.5l5.5-0.4l5.5-0.4l5.5-0.4l5.5-0.3l5.5-0.3l5.5-0.2l5.5-0.2
			l5.5-0.1l5.5-0.1l5.5-0.1l5.5-0.1l5.5-0.1l5.5-0.1l5.5-0.1l5.5-0.1l5.5-0.1l5.5-0.1l5.5-0.1l5.5-0.1l5.5-0.1l5.5,0l5.5,0l5.5,0
			l5.5,0l5.5,0l5.5,0l5.5,0l5.5,0l5.5,0l5.5,0l5.5,0l5.5,0l5.5,0l5.5,0l5.5,0l5.5,0l5.5,0l5.5,0l5.5,0l5.5,0l5.5,0l5.5,0l5.5,0
			l5.5,0l5.5,0l5.5,0l5.5,0l5.5,0l5.5,0l5.5,0l5.5,0l5.5,0l5.5,0l5.5,0l5.5,0l5.5,0l5.5,0l5.5,0l5.5,0l5.5,0l5.5,0l5.5,0l5.5,0
			l5.5,0l5.5,0l5.5,0l5.5,0"/>
		<line class="st5" x1="92" y1="103.1" x2="643" y2="103.1"/>
		<line class="st6" x1="180" y1="102.5" x2="191" y2="102.5"/>
		<line class="st6" x1="185.5" y1="108" x2="185.5" y2="97"/>
		<line class="st6" x1="181" y1="107" x2="190" y2="98"/>
		<line class="st6" x1="181" y1="98" x2="190" y2="107"/>
		<line class="st4" x1="87" y1="489.5" x2="98" y2="489.5"/>
		<line class="st4" x1="92.5" y1="495" x2="92.5" y2="484"/>
		<line class="st4" x1="88" y1="494" x2="97" y2="485"/>
		<line class="st4" x1="88" y1="485" x2="97" y2="494"/>
		<line class="st4" x1="114" y1="257.5" x2="125" y2="257.5"/>
		<line class="st4" x1="119.5" y1="263" x2="119.5" y2="252"/>
		<line class="st4" x1="115" y1="262" x2="124" y2="253"/>
		<line class="st4" x1="115" y1="253" x2="124" y2="262"/>
		<line class="st4" x1="142" y1="175.5" x2="153" y2="175.5"/>
		<line class="st4" x1="147.5" y1="181" x2="147.5" y2="170"/>
		<line class="st4" x1="143" y1="180" x2="152" y2="171"/>
		<line class="st4" x1="143" y1="171" x2="152" y2="180"/>
		<line class="st4" x1="169" y1="105.5" x2="180" y2="105.5"/>
		<line class="st4" x1="174.5" y1="111" x2="174.5" y2="100"/>
		<line class="st4" x1="170" y1="110" x2="179" y2="101"/>
		<line class="st4" x1="170" y1="101" x2="179" y2="110"/>
		<line class="st4" x1="197" y1="98.5" x2="208" y2="98.5"/>
		<line class="st4" x1="202.5" y1="104" x2="202.5" y2="93"/>
		<line class="st4" x1="198" y1="103" x2="207" y2="94"/>
		<line class="st4" x1="198" y1="94" x2="207" y2="103"/>
		<line class="st4" x1="224" y1="68.5" x2="235" y2="68.5"/>
		<line class="st4" x1="229.5" y1="74" x2="229.5" y2="63"/>
		<line class="st4" x1="225" y1="73" x2="234" y2="64"/>
		<line class="st4" x1="225" y1="64" x2="234" y2="73"/>
		<line class="st4" x1="252" y1="61.5" x2="263" y2="61.5"/>
		<line class="st4" x1="257.5" y1="67" x2="257.5" y2="56"/>
		<line class="st4" x1="253" y1="66" x2="262" y2="57"/>
		<line class="st4" x1="253" y1="57" x2="262" y2="66"/>
		<line class="st4" x1="279" y1="59.5" x2="290" y2="59.5"/>
		<line class="st4" x1="284.5" y1="65" x2="284.5" y2="54"/>
		<line class="st4" x1="280" y1="64" x2="289" y2="55"/>
		<line class="st4" x1="280" y1="55" x2="289" y2="64"/>
		<line class="st4" x1="307" y1="58.5" x2="318" y2="58.5"/>
		<line class="st4" x1="312.5" y1="64" x2="312.5" y2="53"/>
		<line class="st4" x1="308" y1="63" x2="317" y2="54"/>
		<line class="st4" x1="308" y1="54" x2="317" y2="63"/>
		<line class="st4" x1="334" y1="57.5" x2="345" y2="57.5"/>
		<line class="st4" x1="339.5" y1="63" x2="339.5" y2="52"/>
		<line class="st4" x1="335" y1="62" x2="344" y2="53"/>
		<line class="st4" x1="335" y1="53" x2="344" y2="62"/>
		<line class="st4" x1="362" y1="57.5" x2="373" y2="57.5"/>
		<line class="st4" x1="367.5" y1="63" x2="367.5" y2="52"/>
		<line class="st4" x1="363" y1="62" x2="372" y2="53"/>
		<line class="st4" x1="363" y1="53" x2="372" y2="62"/>
		<line class="st4" x1="390" y1="57.5" x2="401" y2="57.5"/>
		<line class="st4" x1="395.5" y1="63" x2="395.5" y2="52"/>
		<line class="st4" x1="391" y1="62" x2="400" y2="53"/>
		<line class="st4" x1="391" y1="53" x2="400" y2="62"/>
		<line class="st4" x1="417" y1="57.5" x2="428" y2="57.5"/>
		<line class="st4" x1="422.5" y1="63" x2="422.5" y2="52"/>
		<line class="st4" x1="418" y1="62" x2="427" y2="53"/>
		<line class="st4" x1="418" y1="53" x2="427" y2="62"/>
		<line class="st4" x1="445" y1="57.5" x2="456" y2="57.5"/>
		<line class="st4" x1="450.5" y1="63" x2="450.5" y2="52"/>
		<line class="st4" x1="446" y1="62" x2="455" y2="53"/>
		<line class="st4" x1="446" y1="53" x2="455" y2="62"/>
		<line class="st4" x1="472" y1="57.5" x2="483" y2="57.5"/>
		<line class="st4" x1="477.5" y1="63" x2="477.5" y2="52"/>
		<line class="st4" x1="473" y1="62" x2="482" y2="53"/>
		<line class="st4" x1="473" y1="53" x2="482" y2="62"/>
		<line class="st4" x1="500" y1="57.5" x2="511" y2="57.5"/>
		<line class="st4" x1="505.5" y1="63" x2="505.5" y2="52"/>
		<line class="st4" x1="501" y1="62" x2="510" y2="53"/>
		<line class="st4" x1="501" y1="53" x2="510" y2="62"/>
		<line class="st4" x1="527" y1="57.5" x2="538" y2="57.5"/>
		<line class="st4" x1="532.5" y1="63" x2="532.5" y2="52"/>
		<line class="st4" x1="528" y1="62" x2="537" y2="53"/>
		<line class="st4" x1="528" y1="53" x2="537" y2="62"/>
		<line class="st4" x1="555" y1="57.5" x2="566" y2="57.5"/>
		<line class="st4" x1="560.5" y1="63" x2="560.5" y2="52"/>
		<line class="st4" x1="556" y1="62" x2="565" y2="53"/>
		<line class="st4" x1="556" y1="53" x2="565" y2="62"/>
		<line class="st4" x1="582" y1="57.5" x2="593" y2="57.5"/>
		<line class="st4" x1="587.5" y1="63" x2="587.5" y2="52"/>
		<line class="st4" x1="583" y1="62" x2="592" y2="53"/>
		<line class="st4" x1="583" y1="53" x2="592" y2="62"/>
		<line class="st4" x1="610" y1="57.5" x2="621" y2="57.5"/>
		<line class="st4" x1="615.5" y1="63" x2="615.5" y2="52"/>
		<line class="st4" x1="611" y1="62" x2="620" y2="53"/>
		<line class="st4" x1="611" y1="53" x2="620" y2="62"/>
		<line class="st4" x1="638" y1="56.5" x2="649" y2="56.5"/>
		<line class="st4" x1="643.5" y1="62" x2="643.5" y2="51"/>
		<line class="st4" x1="639" y1="61" x2="648" y2="52"/>
		<line class="st4" x1="639" y1="52" x2="648" y2="61"/>
	</g>
	<g>
		<path class="st1" d="M519,490V328h124v162H519z"/>
	</g>
	<g transform="translate(586,361)">
		<path d="M10.4-13.6h1.8v7.8c0,1.4-0.2,2.5-0.5,3.3c-0.3,0.8-0.9,1.5-1.7,2C9.2,0,8.2,0.2,6.9,0.2C5.6,0.2,4.6,0,3.8-0.4
			C2.9-0.9,2.4-1.5,2-2.3s-0.5-2-0.5-3.4v-7.8h1.8v7.8c0,1.2,0.1,2,0.3,2.6c0.2,0.6,0.6,1,1.1,1.3c0.5,0.3,1.2,0.5,2,0.5
			C8-1.4,9-1.7,9.5-2.3c0.6-0.6,0.8-1.8,0.8-3.5V-13.6z"/>
	</g>
	<g transform="translate(600,370)">
		<path d="M3.9-1.2L4.1,0c-0.4,0.1-0.7,0.1-1,0.1C2.6,0.1,2.2,0,1.9-0.1C1.7-0.3,1.5-0.5,1.4-0.7C1.3-1,1.2-1.5,1.2-2.3v-4.5h-1v-1
			h1v-1.9l1.3-0.8v2.7h1.3v1H2.5v4.5c0,0.4,0,0.6,0.1,0.7c0,0.1,0.1,0.2,0.2,0.3c0.1,0.1,0.2,0.1,0.4,0.1C3.4-1.1,3.6-1.1,3.9-1.2z"
			/>
	</g>
	<g>
		<line class="st4" x1="553" y1="356.8" x2="583" y2="356.8"/>
	</g>
	<g transform="translate(586,413)">
		<path d="M10.4-13.6h1.8v7.8c0,1.4-0.2,2.5-0.5,3.3c-0.3,0.8-0.9,1.5-1.7,2C9.2,0,8.2,0.2,6.9,0.2C5.6,0.2,4.6,0,3.8-0.4
			C2.9-0.9,2.4-1.5,2-2.3s-0.5-2-0.5-3.4v-7.8h1.8v7.8c0,1.2,0.1,2,0.3,2.6c0.2,0.6,0.6,1,1.1,1.3c0.5,0.3,1.2,0.5,2,0.5
			C8-1.4,9-1.7,9.5-2.3c0.6-0.6,0.8-1.8,0.8-3.5V-13.6z"/>
	</g>
	<g transform="translate(600,422)">
		<path d="M5.6,0H4.3v-8.4C4-8.1,3.5-7.8,3-7.5C2.5-7.2,2-7,1.6-6.8v-1.3C2.4-8.4,3-8.9,3.6-9.3c0.6-0.5,0.9-1,1.2-1.4h0.9V0z"/>
	</g>
	<g>
		<line class="st5" x1="553" y1="409" x2="583" y2="409"/>
	</g>
	<g transform="translate(586,465)">
		<path d="M3.8,0.2c-0.6,0-1.1-0.1-1.6-0.4C1.8-0.5,1.4-0.9,1.1-1.4S0.8-2.4,0.8-3c0-0.9,0.2-1.7,0.7-2.6c0.5-0.8,1.1-1.5,1.9-2
			C4.2-8.1,5-8.4,5.9-8.4c0.6,0,1.2,0.2,1.7,0.5c0.5,0.3,0.9,0.8,1.1,1.3C9-6,9.1-5.4,9.1-4.8l0,1.3c0.4-0.6,0.8-1.2,1.1-1.9
			c0.3-0.6,0.5-1.3,0.7-2c0-0.1,0.1-0.1,0.2-0.1h0.2c0.1,0,0.2,0.1,0.2,0.2c0,0,0,0,0,0.1c-0.1,0.6-0.3,1.1-0.6,1.7
			c-0.2,0.5-0.5,1-0.8,1.6s-0.6,1-1,1.4c0,1.6,0.2,2.4,0.6,2.4c0.2,0,0.4-0.1,0.6-0.2c0.2-0.1,0.3-0.3,0.4-0.5s0.2-0.3,0.2-0.3h0.2
			c0.1,0,0.1,0.1,0.1,0.2c0,0.3-0.2,0.6-0.5,0.9C10.3,0.1,10,0.2,9.6,0.2c-0.5,0-0.8-0.1-1.1-0.4C8.2-0.5,8-0.9,7.8-1.4
			C7.3-0.9,6.6-0.5,5.9-0.2C5.2,0.1,4.5,0.2,3.8,0.2z M3.9-0.3c1.4,0,2.7-0.6,3.9-1.7c0-0.1,0-0.2,0-0.3c0-0.1,0-0.2,0-0.2v-2.1
			c0-2.3-0.6-3.4-1.8-3.4c-0.8,0-1.4,0.3-2,1c-0.6,0.6-1,1.4-1.3,2.3C2.4-3.8,2.2-3,2.2-2.3c0,0.6,0.1,1,0.4,1.4
			C2.9-0.5,3.3-0.3,3.9-0.3z"/>
	</g>
	<g transform="translate(599,474)">
		<path d="M6.1-2.8l1.3,0.2C7.2-1.8,6.9-1.1,6.3-0.6C5.7-0.1,5,0.2,4.1,0.2c-1.1,0-1.9-0.3-2.6-1c-0.6-0.7-1-1.7-1-3
			c0-0.8,0.1-1.6,0.4-2.2c0.3-0.6,0.7-1.1,1.3-1.4C2.8-7.8,3.5-8,4.1-8C5-8,5.7-7.7,6.2-7.3s0.9,1,1,1.8L6-5.3
			C5.8-5.8,5.6-6.2,5.3-6.5C5-6.7,4.6-6.9,4.2-6.9C3.5-6.9,3-6.6,2.6-6.2C2.1-5.7,1.9-4.9,1.9-3.9c0,1,0.2,1.8,0.6,2.3
			c0.4,0.5,0.9,0.7,1.6,0.7c0.5,0,1-0.2,1.3-0.5C5.8-1.7,6-2.2,6.1-2.8z"/>
	</g>
	<g>
		<line class="st6" x1="563" y1="461.5" x2="574" y2="461.5"/>
		<line class="st6" x1="568.5" y1="467" x2="568.5" y2="456"/>
		<line class="st6" x1="564" y1="466" x2="573" y2="457"/>
		<line class="st6" x1="564" y1="457" x2="573" y2="466"/>
	</g>
	<g>
		<path class="st7" d="M519,490V328h124v162H519z"/>
	</g>
</g>
</svg>
