<?xml version="1.0" encoding="utf-8"?>
<!-- Generator: Adobe Illustrator 21.1.0, SVG Export Plug-In . SVG Version: 6.00 Build 0)  -->
<svg version="1.1" id="Layer_1" xmlns="http://www.w3.org/2000/svg" xmlns:xlink="http://www.w3.org/1999/xlink" x="0px" y="0px"
	 viewBox="0 0 733 555" style="enable-background:new 0 0 733 555;" xml:space="preserve">
<style type="text/css">
	.st0{clip-path:url(#SVGID_2_);fill:#FFFFFF;}
	.st1{fill:#FFFFFF;}
	.st2{fill:none;stroke:#262626;stroke-width:0.6667;stroke-linejoin:round;stroke-miterlimit:10;}
	.st3{fill:none;stroke:#262626;stroke-width:0.6667;stroke-linecap:square;stroke-linejoin:round;stroke-miterlimit:10;}
	.st4{fill:#262626;}
	.st5{font-family:'MyriadPro-Regular';}
	.st6{font-size:19px;}
	.st7{font-size:21px;}
	.st8{fill:none;stroke:#FF0000;stroke-width:3.3333;stroke-linejoin:round;stroke-miterlimit:10;}
	.st9{fill:none;stroke:#0000FF;stroke-width:3.3333;stroke-linejoin:round;stroke-miterlimit:10;}
	.st10{fill:none;stroke:#00FF00;stroke-width:3.3333;stroke-linejoin:round;stroke-miterlimit:10;}
	.st11{fill:none;stroke:#007F00;stroke-width:3.3333;stroke-linejoin:round;stroke-miterlimit:10;}
	.st12{fill:none;stroke:#FF00FF;stroke-width:2.6667;stroke-linejoin:round;stroke-miterlimit:10;}
	.st13{fill:#FF0000;}
	.st14{font-size:24px;}
	.st15{fill:#0000FF;}
	.st16{fill:#007F00;}
	.st17{fill:#FF00FF;}
	.st18{fill:none;stroke:#FF00FF;stroke-width:0.6667;stroke-linejoin:round;stroke-miterlimit:10;}
</style>
<g>
	<g>
		<g>
			<defs>
				<rect id="SVGID_1_" y="0" width="733" height="555"/>
			</defs>
			<clipPath id="SVGID_2_">
				<use xlink:href="#SVGID_1_"  style="overflow:visible;"/>
			</clipPath>
			<rect y="0" class="st0" width="733" height="555"/>
		</g>
	</g>
	<g>
		<rect y="0" class="st1" width="733" height="555"/>
		<path class="st1" d="M95,495h568V43H95V495z"/>
	</g>
	<g>
		<line class="st2" x1="95" y1="495" x2="663" y2="495"/>
		<line class="st3" x1="95" y1="495" x2="95" y2="489.3"/>
		<line class="st3" x1="237" y1="495" x2="237" y2="489.3"/>
		<line class="st3" x1="379" y1="495" x2="379" y2="489.3"/>
		<line class="st3" x1="521" y1="495" x2="521" y2="489.3"/>
		<line class="st3" x1="663" y1="495" x2="663" y2="489.3"/>
	</g>
	<g transform="translate(95,501.4)">
		<text transform="matrix(1 0 0 1 -5.5 20)" class="st4 st5 st6">0</text>
	</g>
	<g transform="translate(237,501.4)">
		<text transform="matrix(1 0 0 1 -5.5 20)" class="st4 st5 st6">5</text>
	</g>
	<g transform="translate(379,501.4)">
		<text transform="matrix(1 0 0 1 -11 20)" class="st4 st5 st6">10</text>
	</g>
	<g transform="translate(521,501.4)">
		<text transform="matrix(1 0 0 1 -11 20)" class="st4 st5 st6">15</text>
	</g>
	<g transform="translate(663,501.4)">
		<text transform="matrix(1 0 0 1 -11 20)" class="st4 st5 st6">20</text>
	</g>
	<g transform="translate(379.0003,527.7333)">
		<text transform="matrix(1 0 0 1 -5.5 22)" class="st4 st5 st7">x</text>
	</g>
	<g>
		<line class="st2" x1="95" y1="495" x2="95" y2="43"/>
		<line class="st3" x1="95" y1="495" x2="100.7" y2="495"/>
		<line class="st3" x1="95" y1="449.8" x2="100.7" y2="449.8"/>
		<line class="st3" x1="95" y1="404.6" x2="100.7" y2="404.6"/>
		<line class="st3" x1="95" y1="359.4" x2="100.7" y2="359.4"/>
		<line class="st3" x1="95" y1="314.2" x2="100.7" y2="314.2"/>
		<line class="st3" x1="95" y1="269" x2="100.7" y2="269"/>
		<line class="st3" x1="95" y1="223.8" x2="100.7" y2="223.8"/>
		<line class="st3" x1="95" y1="178.6" x2="100.7" y2="178.6"/>
		<line class="st3" x1="95" y1="133.4" x2="100.7" y2="133.4"/>
		<line class="st3" x1="95" y1="88.2" x2="100.7" y2="88.2"/>
		<line class="st3" x1="95" y1="43" x2="100.7" y2="43"/>
	</g>
	<g transform="translate(88.6,495)">
		<text transform="matrix(1 0 0 1 -17 7.5)" class="st4 st5 st6">-5</text>
	</g>
	<g transform="translate(88.6,449.8)">
		<text transform="matrix(1 0 0 1 -17 7.5)" class="st4 st5 st6">-4</text>
	</g>
	<g transform="translate(88.6,404.6)">
		<text transform="matrix(1 0 0 1 -17 7.5)" class="st4 st5 st6">-3</text>
	</g>
	<g transform="translate(88.6,359.4)">
		<text transform="matrix(1 0 0 1 -17 7.5)" class="st4 st5 st6">-2</text>
	</g>
	<g transform="translate(88.6,314.2)">
		<text transform="matrix(1 0 0 1 -17 7.5)" class="st4 st5 st6">-1</text>
	</g>
	<g transform="translate(88.6,269)">
		<text transform="matrix(1 0 0 1 -11 7.5)" class="st4 st5 st6">0</text>
	</g>
	<g transform="translate(88.6,223.8)">
		<text transform="matrix(1 0 0 1 -11 7.5)" class="st4 st5 st6">1</text>
	</g>
	<g transform="translate(88.6,178.6)">
		<text transform="matrix(1 0 0 1 -11 7.5)" class="st4 st5 st6">2</text>
	</g>
	<g transform="translate(88.6,133.4)">
		<text transform="matrix(1 0 0 1 -11 7.5)" class="st4 st5 st6">3</text>
	</g>
	<g transform="translate(88.6,88.2)">
		<text transform="matrix(1 0 0 1 -11 7.5)" class="st4 st5 st6">4</text>
	</g>
	<g transform="translate(88.6,43)">
		<text transform="matrix(1 0 0 1 -11 7.5)" class="st4 st5 st6">5</text>
	</g>
	<g transform="translate(67.6,268.9998) rotate(-90)">
		<text transform="matrix(1 0 0 1 -5.4996 -5)" class="st4 st5 st7">z</text>
	</g>
	<g>
		<line class="st8" x1="95" y1="495" x2="95" y2="43"/>
		<path class="st9" d="M364.8,495l-0.8-1.7l0,0l-0.8-1.8v0l-0.8-1.8l0,0l-0.8-1.8v0l-0.8-1.8v0l-0.8-1.8v0l-0.8-1.8h0l-0.8-1.8l0,0
			l-0.8-1.8h0l-0.8-1.8v0l-0.8-1.8l0,0l-0.8-1.8l0,0l-0.8-1.8l0,0l-0.8-1.8l0,0l-0.8-1.8l0,0l-0.8-1.8l0,0l-0.8-1.8l0,0l-0.8-1.8
			l0,0l-0.8-1.8l0,0l-0.8-1.9l0,0l-0.8-1.9l0,0l-0.8-1.9l0,0l-0.8-1.9v0l-0.8-1.9l0,0l-0.8-1.9l0,0l-0.8-1.9l0,0l-0.8-1.9l0,0
			l-0.8-1.9h0l-0.8-1.9l0,0l-0.8-1.9l0,0l-0.8-1.9l0,0l-0.8-1.9l0,0l-0.8-2l0,0l-0.8-2l0,0l-0.8-2l0,0l-0.8-2l0,0l-0.8-2l0,0l-0.8-2
			l0,0l-0.8-2v0l-0.8-2v0l-0.8-2l0,0l-0.8-2.1l0,0l-0.8-2.1h0l-0.8-2.1l0,0l-0.8-2.1v0l-0.8-2.1v0l-0.8-2.1h0l-0.8-2.2v0l-0.8-2.2
			l0,0l-0.8-2.2l0,0l-0.8-2.2l0,0l-0.8-2.2l0,0l-0.8-2.3h0l-0.8-2.3v0l-0.8-2.3h0l-0.8-2.3v0l-0.8-2.4v0l-0.8-2.4v0l-0.8-2.4v0
			l-0.8-2.5l0,0l-0.8-2.5l0,0l-0.8-2.5v0l-0.8-2.6v0l-0.8-2.6h0l-0.8-2.7v0l-0.8-2.7l0,0l-0.8-2.8l0,0l-0.8-2.8v0l-0.8-2.9l0,0
			l-0.8-3v0l-0.8-3.1v0l-0.8-3.2h0l-0.8-3.3v0l-0.8-3.4h0l-0.8-3.6l0,0l-0.8-3.7v0l-0.8-3.9l0,0l-0.8-4.2h0l-0.8-4.5l0,0l-0.8-5v0
			l-0.8-5.6v0l-0.8-6.5v0l-0.8-8.3l0,0l-0.8-15.3l0,0v-12.4l0,0l0.8-15.3v0l0.8-8.3v0l0.8-6.5l0,0l0.8-5.6v0l0.8-5l0,0l0.8-4.5h0
			l0.8-4.2l0,0l0.8-3.9v0l0.8-3.7l0,0l0.8-3.6h0l0.8-3.4v0l0.8-3.3h0l0.8-3.2v0l0.8-3.1v0l0.8-3v0l0.8-2.9v0l0.8-2.8l0,0l0.8-2.8
			l0,0l0.8-2.7v0l0.8-2.7h0l0.8-2.6v0l0.8-2.6v0l0.8-2.5l0,0l0.8-2.5l0,0l0.8-2.5v0l0.8-2.4l0,0l0.8-2.4v0l0.8-2.4v0l0.8-2.3h0
			l0.8-2.3l0,0l0.8-2.3h0l0.8-2.3v0l0.8-2.2l0,0l0.8-2.2v0l0.8-2.2l0,0l0.8-2.2v0l0.8-2.2h0l0.8-2.1v0l0.8-2.1v0l0.8-2.1v0l0.8-2.1
			h0l0.8-2.1l0,0l0.8-2.1l0,0l0.8-2v0l0.8-2v0l0.8-2l0,0l0.8-2l0,0l0.8-2l0,0l0.8-2v0l0.8-2l0,0l0.8-2l0,0l0.8-2l0,0l0.8-1.9l0,0
			l0.8-1.9l0,0l0.8-1.9l0,0l0.8-1.9l0,0l0.8-1.9l0,0l0.8-1.9l0,0l0.8-1.9l0,0l0.8-1.9l0,0l0.8-1.9v0l0.8-1.9h0l0.8-1.9l0,0l0.8-1.9
			l0,0l0.8-1.9l0,0l0.8-1.8l0,0l0.8-1.8l0,0l0.8-1.8l0,0l0.8-1.8v0l0.8-1.8l0,0l0.8-1.8l0,0l0.8-1.8l0,0l0.8-1.8l0,0l0.8-1.8v0
			l0.8-1.8h0l0.8-1.8l0,0l0.8-1.8l0,0l0.8-1.8v0l0.8-1.8l0,0l0.8-1.8v0l0.8-1.8l0,0l0.8-1.8v0l0.8-1.8l0,0l0.8-1.7"/>
		<path class="st9" d="M393.2,495L393.2,495L393.2,495l0.9-1.8l0,0l0.8-1.8l0,0l0.8-1.8v0l0.8-1.8v0l0.8-1.8h0l0.8-1.8l0,0l0.8-1.8
			l0,0l0.8-1.8v0l0.8-1.8v0l0.8-1.8l0,0l0.8-1.8h0l0.8-1.8l0,0l0.8-1.8h0l0.8-1.8v0l0.8-1.8l0,0l0.8-1.8v0l0.8-1.8v0l0.8-1.8l0,0
			l0.8-1.8l0,0l0.8-1.9v0l0.8-1.9l0,0l0.8-1.9l0,0l0.8-1.9h0l0.8-1.9v0l0.8-1.9l0,0l0.8-1.9l0,0l0.8-1.9l0,0l0.8-1.9l0,0l0.8-1.9
			l0,0l0.8-1.9v0l0.8-1.9h0l0.8-1.9l0,0l0.8-2l0,0l0.8-2h0l0.8-2l0,0l0.8-2l0,0l0.8-2v0l0.8-2l0,0l0.8-2l0,0l0.8-2v0l0.8-2v0
			l0.8-2.1l0,0l0.8-2.1v0l0.8-2.1h0l0.8-2.1l0,0l0.8-2.1l0,0l0.8-2.1v0l0.8-2.2h0l0.8-2.2l0,0l0.8-2.2l0,0l0.8-2.2l0,0l0.8-2.2v0
			l0.8-2.3l0,0l0.8-2.3v0l0.8-2.3l0,0l0.8-2.3l0,0l0.8-2.4v0l0.8-2.4v0l0.8-2.4h0l0.8-2.5l0,0l0.8-2.5v0l0.8-2.5l0,0l0.8-2.6l0,0
			l0.8-2.6l0,0l0.8-2.7l0,0l0.8-2.7v0l0.8-2.8l0,0l0.8-2.8l0,0l0.8-2.9h0l0.8-3l0,0l0.8-3.1v0l0.8-3.2v0l0.8-3.3v0l0.8-3.4v0
			l0.8-3.6l0,0l0.8-3.7v0l0.8-4h0l0.8-4.2l0,0l0.8-4.6l0,0l0.8-5v0l0.8-5.6l0,0l0.8-6.6l0,0l0.8-8.5l0,0l0.8-17v0V265v0l-0.8-17v0
			l-0.8-8.5v0l-0.8-6.6l0,0l-0.8-5.6v0l-0.8-5l0,0l-0.8-4.6l0,0l-0.8-4.2h0l-0.8-4v0l-0.8-3.7l0,0l-0.8-3.6v0l-0.8-3.4v0l-0.8-3.3v0
			l-0.8-3.2v0l-0.8-3.1l0,0l-0.8-3h0l-0.8-2.9l0,0l-0.8-2.8l0,0l-0.8-2.8v0l-0.8-2.7l0,0l-0.8-2.7l0,0l-0.8-2.6l0,0l-0.8-2.6v0
			l-0.8-2.5v0l-0.8-2.5v0l-0.8-2.5h0l-0.8-2.4v0l-0.8-2.4v0l-0.8-2.4l0,0l-0.8-2.3v0l-0.8-2.3v0l-0.8-2.3l0,0l-0.8-2.3l0,0l-0.8-2.2
			l0,0l-0.8-2.2l0,0l-0.8-2.2l0,0l-0.8-2.2h0l-0.8-2.2v0l-0.8-2.1l0,0l-0.8-2.1l0,0l-0.8-2.1h0l-0.8-2.1v0l-0.8-2.1l0,0l-0.8-2.1v0
			l-0.8-2v0l-0.8-2l0,0l-0.8-2v0l-0.8-2v0l-0.8-2l0,0l-0.8-2l0,0l-0.8-2l0,0l-0.8-2l0,0l-0.8-2l0,0l-0.8-1.9h0l-0.8-1.9v0l-0.8-1.9
			v0l-0.8-1.9l0,0l-0.8-1.9l0,0l-0.8-1.9v0l-0.8-1.9l0,0l-0.8-1.9v0l-0.8-1.9h0l-0.8-1.9l0,0l-0.8-1.9l0,0l-0.8-1.9v0l-0.8-1.9l0,0
			l-0.8-1.8l0,0l-0.8-1.8l0,0l-0.8-1.8l0,0l-0.8-1.8l0,0l-0.8-1.8v0l-0.8-1.8h0l-0.8-1.8v0l-0.8-1.8h0l-0.8-1.8l0,0l-0.8-1.8v0
			l-0.8-1.8v0l-0.8-1.8l0,0l-0.8-1.8v0l-0.8-1.8h0l-0.8-1.8v0l-0.8-1.8v0l-0.8-1.8h0l-0.8-1.8l0,0l-0.8-1.8h0l0,0"/>
		<line class="st8" x1="663" y1="495" x2="663" y2="43"/>
		<line class="st10" x1="95" y1="495" x2="663" y2="495"/>
		<line class="st10" x1="95" y1="43" x2="663" y2="43"/>
		<line class="st8" x1="95" y1="495" x2="95" y2="43"/>
		<path class="st9" d="M364.8,495l-0.8-1.7l0,0l-0.8-1.8v0l-0.8-1.8l0,0l-0.8-1.8v0l-0.8-1.8v0l-0.8-1.8v0l-0.8-1.8h0l-0.8-1.8l0,0
			l-0.8-1.8h0l-0.8-1.8v0l-0.8-1.8l0,0l-0.8-1.8l0,0l-0.8-1.8l0,0l-0.8-1.8l0,0l-0.8-1.8l0,0l-0.8-1.8l0,0l-0.8-1.8l0,0l-0.8-1.8
			l0,0l-0.8-1.8l0,0l-0.8-1.9l0,0l-0.8-1.9l0,0l-0.8-1.9l0,0l-0.8-1.9v0l-0.8-1.9l0,0l-0.8-1.9l0,0l-0.8-1.9l0,0l-0.8-1.9l0,0
			l-0.8-1.9h0l-0.8-1.9l0,0l-0.8-1.9l0,0l-0.8-1.9l0,0l-0.8-1.9l0,0l-0.8-2l0,0l-0.8-2l0,0l-0.8-2l0,0l-0.8-2l0,0l-0.8-2l0,0l-0.8-2
			l0,0l-0.8-2v0l-0.8-2v0l-0.8-2l0,0l-0.8-2.1l0,0l-0.8-2.1h0l-0.8-2.1l0,0l-0.8-2.1v0l-0.8-2.1v0l-0.8-2.1h0l-0.8-2.2v0l-0.8-2.2
			l0,0l-0.8-2.2l0,0l-0.8-2.2l0,0l-0.8-2.2l0,0l-0.8-2.3h0l-0.8-2.3v0l-0.8-2.3h0l-0.8-2.3v0l-0.8-2.4v0l-0.8-2.4v0l-0.8-2.4v0
			l-0.8-2.5l0,0l-0.8-2.5l0,0l-0.8-2.5v0l-0.8-2.6v0l-0.8-2.6h0l-0.8-2.7v0l-0.8-2.7l0,0l-0.8-2.8l0,0l-0.8-2.8v0l-0.8-2.9l0,0
			l-0.8-3v0l-0.8-3.1v0l-0.8-3.2h0l-0.8-3.3v0l-0.8-3.4h0l-0.8-3.6l0,0l-0.8-3.7v0l-0.8-3.9l0,0l-0.8-4.2h0l-0.8-4.5l0,0l-0.8-5v0
			l-0.8-5.6v0l-0.8-6.5v0l-0.8-8.3l0,0l-0.8-15.3l0,0v-12.4l0,0l0.8-15.3v0l0.8-8.3v0l0.8-6.5l0,0l0.8-5.6v0l0.8-5l0,0l0.8-4.5h0
			l0.8-4.2l0,0l0.8-3.9v0l0.8-3.7l0,0l0.8-3.6h0l0.8-3.4v0l0.8-3.3h0l0.8-3.2v0l0.8-3.1v0l0.8-3v0l0.8-2.9v0l0.8-2.8l0,0l0.8-2.8
			l0,0l0.8-2.7v0l0.8-2.7h0l0.8-2.6v0l0.8-2.6v0l0.8-2.5l0,0l0.8-2.5l0,0l0.8-2.5v0l0.8-2.4l0,0l0.8-2.4v0l0.8-2.4v0l0.8-2.3h0
			l0.8-2.3l0,0l0.8-2.3h0l0.8-2.3v0l0.8-2.2l0,0l0.8-2.2v0l0.8-2.2l0,0l0.8-2.2v0l0.8-2.2h0l0.8-2.1v0l0.8-2.1v0l0.8-2.1v0l0.8-2.1
			h0l0.8-2.1l0,0l0.8-2.1l0,0l0.8-2v0l0.8-2v0l0.8-2l0,0l0.8-2l0,0l0.8-2l0,0l0.8-2v0l0.8-2l0,0l0.8-2l0,0l0.8-2l0,0l0.8-1.9l0,0
			l0.8-1.9l0,0l0.8-1.9l0,0l0.8-1.9l0,0l0.8-1.9l0,0l0.8-1.9l0,0l0.8-1.9l0,0l0.8-1.9l0,0l0.8-1.9v0l0.8-1.9h0l0.8-1.9l0,0l0.8-1.9
			l0,0l0.8-1.9l0,0l0.8-1.8l0,0l0.8-1.8l0,0l0.8-1.8l0,0l0.8-1.8v0l0.8-1.8l0,0l0.8-1.8l0,0l0.8-1.8l0,0l0.8-1.8l0,0l0.8-1.8v0
			l0.8-1.8h0l0.8-1.8l0,0l0.8-1.8l0,0l0.8-1.8v0l0.8-1.8l0,0l0.8-1.8v0l0.8-1.8l0,0l0.8-1.8v0l0.8-1.8l0,0l0.8-1.7"/>
		<path class="st9" d="M393.2,495L393.2,495L393.2,495l0.9-1.8l0,0l0.8-1.8l0,0l0.8-1.8v0l0.8-1.8v0l0.8-1.8h0l0.8-1.8l0,0l0.8-1.8
			l0,0l0.8-1.8v0l0.8-1.8v0l0.8-1.8l0,0l0.8-1.8h0l0.8-1.8l0,0l0.8-1.8h0l0.8-1.8v0l0.8-1.8l0,0l0.8-1.8v0l0.8-1.8v0l0.8-1.8l0,0
			l0.8-1.8l0,0l0.8-1.9v0l0.8-1.9l0,0l0.8-1.9l0,0l0.8-1.9h0l0.8-1.9v0l0.8-1.9l0,0l0.8-1.9l0,0l0.8-1.9l0,0l0.8-1.9l0,0l0.8-1.9
			l0,0l0.8-1.9v0l0.8-1.9h0l0.8-1.9l0,0l0.8-2l0,0l0.8-2h0l0.8-2l0,0l0.8-2l0,0l0.8-2v0l0.8-2l0,0l0.8-2l0,0l0.8-2v0l0.8-2v0
			l0.8-2.1l0,0l0.8-2.1v0l0.8-2.1h0l0.8-2.1l0,0l0.8-2.1l0,0l0.8-2.1v0l0.8-2.2h0l0.8-2.2l0,0l0.8-2.2l0,0l0.8-2.2l0,0l0.8-2.2v0
			l0.8-2.3l0,0l0.8-2.3v0l0.8-2.3l0,0l0.8-2.3l0,0l0.8-2.4v0l0.8-2.4v0l0.8-2.4h0l0.8-2.5l0,0l0.8-2.5v0l0.8-2.5l0,0l0.8-2.6l0,0
			l0.8-2.6l0,0l0.8-2.7l0,0l0.8-2.7v0l0.8-2.8l0,0l0.8-2.8l0,0l0.8-2.9h0l0.8-3l0,0l0.8-3.1v0l0.8-3.2v0l0.8-3.3v0l0.8-3.4v0
			l0.8-3.6l0,0l0.8-3.7v0l0.8-4h0l0.8-4.2l0,0l0.8-4.6l0,0l0.8-5v0l0.8-5.6l0,0l0.8-6.6l0,0l0.8-8.5l0,0l0.8-17v0V265v0l-0.8-17v0
			l-0.8-8.5v0l-0.8-6.6l0,0l-0.8-5.6v0l-0.8-5l0,0l-0.8-4.6l0,0l-0.8-4.2h0l-0.8-4v0l-0.8-3.7l0,0l-0.8-3.6v0l-0.8-3.4v0l-0.8-3.3v0
			l-0.8-3.2v0l-0.8-3.1l0,0l-0.8-3h0l-0.8-2.9l0,0l-0.8-2.8l0,0l-0.8-2.8v0l-0.8-2.7l0,0l-0.8-2.7l0,0l-0.8-2.6l0,0l-0.8-2.6v0
			l-0.8-2.5v0l-0.8-2.5v0l-0.8-2.5h0l-0.8-2.4v0l-0.8-2.4v0l-0.8-2.4l0,0l-0.8-2.3v0l-0.8-2.3v0l-0.8-2.3l0,0l-0.8-2.3l0,0l-0.8-2.2
			l0,0l-0.8-2.2l0,0l-0.8-2.2l0,0l-0.8-2.2h0l-0.8-2.2v0l-0.8-2.1l0,0l-0.8-2.1l0,0l-0.8-2.1h0l-0.8-2.1v0l-0.8-2.1l0,0l-0.8-2.1v0
			l-0.8-2v0l-0.8-2l0,0l-0.8-2v0l-0.8-2v0l-0.8-2l0,0l-0.8-2l0,0l-0.8-2l0,0l-0.8-2l0,0l-0.8-2l0,0l-0.8-1.9h0l-0.8-1.9v0l-0.8-1.9
			v0l-0.8-1.9l0,0l-0.8-1.9l0,0l-0.8-1.9v0l-0.8-1.9l0,0l-0.8-1.9v0l-0.8-1.9h0l-0.8-1.9l0,0l-0.8-1.9l0,0l-0.8-1.9v0l-0.8-1.9l0,0
			l-0.8-1.8l0,0l-0.8-1.8l0,0l-0.8-1.8l0,0l-0.8-1.8l0,0l-0.8-1.8v0l-0.8-1.8h0l-0.8-1.8v0l-0.8-1.8h0l-0.8-1.8l0,0l-0.8-1.8v0
			l-0.8-1.8v0l-0.8-1.8l0,0l-0.8-1.8v0l-0.8-1.8h0l-0.8-1.8v0l-0.8-1.8v0l-0.8-1.8h0l-0.8-1.8l0,0l-0.8-1.8h0l0,0"/>
		<line class="st8" x1="663" y1="495" x2="663" y2="43"/>
		<line class="st11" x1="95" y1="495" x2="663" y2="495"/>
		<line class="st11" x1="95" y1="43" x2="663" y2="43"/>
		<line class="st12" x1="663" y1="269" x2="418.9" y2="99.4"/>
		<line class="st12" x1="418.9" y1="99.4" x2="339.1" y2="99.4"/>
		<line class="st12" x1="339.1" y1="99.4" x2="95" y2="269"/>
	</g>
	<g transform="translate(102.6929,274.3324)">
		<text transform="matrix(1 0 0 1 0 25)" class="st13 st5 st14">1</text>
	</g>
	<g transform="translate(262.7365,267.1246)">
		<text transform="matrix(1 0 0 1 0 25)" class="st15 st5 st14">2</text>
	</g>
	<g transform="translate(475.0611,263.0058)">
		<text transform="matrix(1 0 0 1 0 25)" class="st15 st5 st14">3</text>
	</g>
	<g transform="translate(639.3726,268.1543)">
		<text transform="matrix(1 0 0 1 0 25)" class="st13 st5 st14">4</text>
	</g>
	<g transform="translate(184.8486,49.8611)">
		<text transform="matrix(1 0 0 1 0 25)" class="st16 st5 st14">5</text>
	</g>
	<g transform="translate(190.1834,459.6756)">
		<text transform="matrix(1 0 0 1 0 25)" class="st16 st5 st14">6</text>
	</g>
	<g transform="translate(369.0984,65.7811)">
		<text transform="matrix(1 0 0 1 0 25)" class="st17 st5 st14">T</text>
	</g>
	<g transform="translate(205.6667,146.7811)">
		<text transform="matrix(1 0 0 1 0 25)" class="st17 st5 st14">T</text>
	</g>
	<g>
		<line class="st18" x1="501" y1="157.6" x2="480" y2="142.1"/>
		<path class="st18" d="M480.8,148.9L473,137l7,5.1L480.8,148.9"/>
		<path class="st18" d="M473,137l13.7,3.9l-6.7,1.3L473,137"/>
	</g>
	<g>
		<path class="st17" d="M480.8,148.9L473,137l7,5.1L480.8,148.9z"/>
		<path class="st17" d="M473,137l13.7,3.9l-6.7,1.3L473,137z"/>
	</g>
	<g>
		<line class="st18" x1="385" y1="99" x2="364.7" y2="99"/>
		<path class="st18" d="M369.3,104L356,99h8.7L369.3,104"/>
		<path class="st18" d="M356,99l13.3-5l-4.7,5H356"/>
	</g>
	<g>
		<path class="st17" d="M369.3,104L356,99h8.7L369.3,104z"/>
		<path class="st17" d="M356,99l13.3-5l-4.7,5H356z"/>
	</g>
	<g>
		<line class="st18" x1="243" y1="167.6" x2="225.4" y2="178.4"/>
		<path class="st18" d="M232,180.2l-14,2.8l7.4-4.6L232,180.2"/>
		<path class="st18" d="M218,183l8.7-11.3l-1.3,6.7L218,183"/>
	</g>
	<g>
		<path class="st17" d="M232,180.2l-14,2.8l7.4-4.6L232,180.2z"/>
		<path class="st17" d="M218,183l8.7-11.3l-1.3,6.7L218,183z"/>
	</g>
</g>
</svg>
