<?xml version="1.0" encoding="utf-8"?>
<!-- Generator: Adobe Illustrator 21.1.0, SVG Export Plug-In . SVG Version: 6.00 Build 0)  -->
<svg version="1.1" id="Layer_1" xmlns="http://www.w3.org/2000/svg" xmlns:xlink="http://www.w3.org/1999/xlink" x="0px" y="0px"
	 viewBox="0 0 733 555" style="enable-background:new 0 0 733 555;" xml:space="preserve">
<style type="text/css">
	.st0{clip-path:url(#SVGID_2_);fill:#FFFFFF;}
	.st1{fill:#FFFFFF;}
	.st2{fill:none;stroke:#262626;stroke-width:0.6667;stroke-linejoin:round;stroke-miterlimit:10;}
	.st3{fill:none;stroke:#262626;stroke-width:0.6667;stroke-linecap:square;stroke-linejoin:round;stroke-miterlimit:10;}
	.st4{fill:#262626;}
	.st5{font-family:'MyriadPro-Regular';}
	.st6{font-size:19px;}
	.st7{font-size:21px;}
	.st8{fill:none;stroke:#FF0000;stroke-width:3.3333;stroke-linejoin:round;stroke-miterlimit:10;}
	.st9{fill:none;stroke:#0000FF;stroke-width:3.3333;stroke-linejoin:round;stroke-miterlimit:10;}
	.st10{fill:none;stroke:#00FF00;stroke-width:3.3333;stroke-linejoin:round;stroke-miterlimit:10;}
	.st11{fill:none;stroke:#007F00;stroke-width:3.3333;stroke-linejoin:round;stroke-miterlimit:10;}
	.st12{fill:none;stroke:#00FFFF;stroke-width:2.6667;stroke-linejoin:round;stroke-miterlimit:10;}
	.st13{fill:#0000FF;}
	.st14{font-size:24px;}
	.st15{fill:#FF0000;}
	.st16{fill:#007F00;}
	.st17{fill:#00FFFF;}
	.st18{fill:none;stroke:#00FFFF;stroke-width:0.6667;stroke-linejoin:round;stroke-miterlimit:10;}
</style>
<g>
	<g>
		<g>
			<defs>
				<rect id="SVGID_1_" y="0" width="733" height="555"/>
			</defs>
			<clipPath id="SVGID_2_">
				<use xlink:href="#SVGID_1_"  style="overflow:visible;"/>
			</clipPath>
			<rect y="0" class="st0" width="733" height="555"/>
		</g>
	</g>
	<g>
		<rect y="0" class="st1" width="733" height="555"/>
		<path class="st1" d="M95,494h568V42H95V494z"/>
	</g>
	<g>
		<line class="st2" x1="95" y1="494" x2="663" y2="494"/>
		<line class="st3" x1="95" y1="494" x2="95" y2="488.3"/>
		<line class="st3" x1="237" y1="494" x2="237" y2="488.3"/>
		<line class="st3" x1="379" y1="494" x2="379" y2="488.3"/>
		<line class="st3" x1="521" y1="494" x2="521" y2="488.3"/>
		<line class="st3" x1="663" y1="494" x2="663" y2="488.3"/>
	</g>
	<g transform="translate(95,500.4)">
		<text transform="matrix(1 0 0 1 -5.5 20)" class="st4 st5 st6">0</text>
	</g>
	<g transform="translate(237,500.4)">
		<text transform="matrix(1 0 0 1 -5.5 20)" class="st4 st5 st6">5</text>
	</g>
	<g transform="translate(379,500.4)">
		<text transform="matrix(1 0 0 1 -11 20)" class="st4 st5 st6">10</text>
	</g>
	<g transform="translate(521,500.4)">
		<text transform="matrix(1 0 0 1 -11 20)" class="st4 st5 st6">15</text>
	</g>
	<g transform="translate(663,500.4)">
		<text transform="matrix(1 0 0 1 -11 20)" class="st4 st5 st6">20</text>
	</g>
	<g transform="translate(379.0003,526.7333)">
		<text transform="matrix(1 0 0 1 -5.5 22)" class="st4 st5 st7">x</text>
	</g>
	<g>
		<line class="st2" x1="95" y1="494" x2="95" y2="42"/>
		<line class="st3" x1="95" y1="494" x2="100.7" y2="494"/>
		<line class="st3" x1="95" y1="448.8" x2="100.7" y2="448.8"/>
		<line class="st3" x1="95" y1="403.6" x2="100.7" y2="403.6"/>
		<line class="st3" x1="95" y1="358.4" x2="100.7" y2="358.4"/>
		<line class="st3" x1="95" y1="313.2" x2="100.7" y2="313.2"/>
		<line class="st3" x1="95" y1="268" x2="100.7" y2="268"/>
		<line class="st3" x1="95" y1="222.8" x2="100.7" y2="222.8"/>
		<line class="st3" x1="95" y1="177.6" x2="100.7" y2="177.6"/>
		<line class="st3" x1="95" y1="132.4" x2="100.7" y2="132.4"/>
		<line class="st3" x1="95" y1="87.2" x2="100.7" y2="87.2"/>
		<line class="st3" x1="95" y1="42" x2="100.7" y2="42"/>
	</g>
	<g transform="translate(88.6,494)">
		<text transform="matrix(1 0 0 1 -17 7.5)" class="st4 st5 st6">-5</text>
	</g>
	<g transform="translate(88.6,448.8)">
		<text transform="matrix(1 0 0 1 -17 7.5)" class="st4 st5 st6">-4</text>
	</g>
	<g transform="translate(88.6,403.6)">
		<text transform="matrix(1 0 0 1 -17 7.5)" class="st4 st5 st6">-3</text>
	</g>
	<g transform="translate(88.6,358.4)">
		<text transform="matrix(1 0 0 1 -17 7.5)" class="st4 st5 st6">-2</text>
	</g>
	<g transform="translate(88.6,313.2)">
		<text transform="matrix(1 0 0 1 -17 7.5)" class="st4 st5 st6">-1</text>
	</g>
	<g transform="translate(88.6,268)">
		<text transform="matrix(1 0 0 1 -11 7.5)" class="st4 st5 st6">0</text>
	</g>
	<g transform="translate(88.6,222.8)">
		<text transform="matrix(1 0 0 1 -11 7.5)" class="st4 st5 st6">1</text>
	</g>
	<g transform="translate(88.6,177.6)">
		<text transform="matrix(1 0 0 1 -11 7.5)" class="st4 st5 st6">2</text>
	</g>
	<g transform="translate(88.6,132.4)">
		<text transform="matrix(1 0 0 1 -11 7.5)" class="st4 st5 st6">3</text>
	</g>
	<g transform="translate(88.6,87.2)">
		<text transform="matrix(1 0 0 1 -11 7.5)" class="st4 st5 st6">4</text>
	</g>
	<g transform="translate(88.6,42)">
		<text transform="matrix(1 0 0 1 -11 7.5)" class="st4 st5 st6">5</text>
	</g>
	<g transform="translate(67.6,267.9998) rotate(-90)">
		<text transform="matrix(1 0 0 1 -5.4996 -5)" class="st4 st5 st7">z</text>
	</g>
	<g>
		<line class="st8" x1="95" y1="494" x2="95" y2="42"/>
		<path class="st9" d="M364.8,494l-0.8-1.7l0,0l-0.8-1.8v0l-0.8-1.8l0,0l-0.8-1.8v0l-0.8-1.8v0l-0.8-1.8v0l-0.8-1.8h0l-0.8-1.8l0,0
			l-0.8-1.8h0l-0.8-1.8v0l-0.8-1.8l0,0l-0.8-1.8l0,0l-0.8-1.8l0,0l-0.8-1.8l0,0l-0.8-1.8l0,0l-0.8-1.8l0,0l-0.8-1.8l0,0l-0.8-1.8
			l0,0l-0.8-1.8l0,0l-0.8-1.9l0,0l-0.8-1.9l0,0l-0.8-1.9l0,0l-0.8-1.9v0l-0.8-1.9l0,0l-0.8-1.9l0,0l-0.8-1.9l0,0l-0.8-1.9l0,0
			l-0.8-1.9h0l-0.8-1.9l0,0l-0.8-1.9l0,0l-0.8-1.9l0,0l-0.8-1.9l0,0l-0.8-2l0,0l-0.8-2l0,0l-0.8-2l0,0l-0.8-2l0,0l-0.8-2l0,0l-0.8-2
			l0,0l-0.8-2v0l-0.8-2v0l-0.8-2l0,0l-0.8-2.1l0,0l-0.8-2.1h0l-0.8-2.1l0,0l-0.8-2.1v0l-0.8-2.1v0l-0.8-2.1h0l-0.8-2.2v0l-0.8-2.2
			l0,0l-0.8-2.2l0,0l-0.8-2.2l0,0l-0.8-2.2l0,0l-0.8-2.3h0l-0.8-2.3v0l-0.8-2.3h0l-0.8-2.3v0l-0.8-2.4v0l-0.8-2.4v0l-0.8-2.4v0
			l-0.8-2.5l0,0l-0.8-2.5l0,0l-0.8-2.5v0l-0.8-2.6v0l-0.8-2.6h0l-0.8-2.7v0l-0.8-2.7l0,0l-0.8-2.8l0,0l-0.8-2.8v0l-0.8-2.9l0,0
			l-0.8-3v0l-0.8-3.1v0l-0.8-3.2h0l-0.8-3.3v0l-0.8-3.4h0l-0.8-3.6l0,0l-0.8-3.7v0l-0.8-3.9l0,0l-0.8-4.2h0l-0.8-4.5l0,0l-0.8-5v0
			l-0.8-5.6v0l-0.8-6.5v0l-0.8-8.3l0,0l-0.8-15.3l0,0v-12.4l0,0l0.8-15.3v0l0.8-8.3v0l0.8-6.5l0,0l0.8-5.6v0l0.8-5l0,0l0.8-4.5h0
			l0.8-4.2l0,0l0.8-3.9v0l0.8-3.7l0,0l0.8-3.6h0l0.8-3.4v0l0.8-3.3h0l0.8-3.2v0l0.8-3.1v0l0.8-3v0l0.8-2.9v0l0.8-2.8l0,0l0.8-2.8
			l0,0l0.8-2.7v0l0.8-2.7h0l0.8-2.6v0l0.8-2.6v0l0.8-2.5l0,0l0.8-2.5l0,0l0.8-2.5v0l0.8-2.4l0,0l0.8-2.4v0l0.8-2.4v0l0.8-2.3h0
			l0.8-2.3l0,0l0.8-2.3h0l0.8-2.3v0l0.8-2.2l0,0l0.8-2.2v0l0.8-2.2l0,0l0.8-2.2v0l0.8-2.2h0l0.8-2.1v0l0.8-2.1v0l0.8-2.1v0l0.8-2.1
			h0l0.8-2.1l0,0l0.8-2.1l0,0l0.8-2v0l0.8-2v0l0.8-2l0,0l0.8-2l0,0l0.8-2l0,0l0.8-2v0l0.8-2l0,0l0.8-2l0,0l0.8-2l0,0l0.8-1.9l0,0
			l0.8-1.9l0,0l0.8-1.9l0,0l0.8-1.9l0,0l0.8-1.9l0,0l0.8-1.9l0,0l0.8-1.9l0,0l0.8-1.9l0,0l0.8-1.9v0l0.8-1.9h0l0.8-1.9l0,0l0.8-1.9
			l0,0l0.8-1.9l0,0l0.8-1.8l0,0l0.8-1.8l0,0l0.8-1.8l0,0l0.8-1.8v0l0.8-1.8l0,0l0.8-1.8l0,0l0.8-1.8l0,0l0.8-1.8l0,0l0.8-1.8v0
			l0.8-1.8h0l0.8-1.8l0,0l0.8-1.8l0,0l0.8-1.8v0l0.8-1.8l0,0l0.8-1.8v0l0.8-1.8l0,0l0.8-1.8v0l0.8-1.8l0,0l0.8-1.7"/>
		<path class="st9" d="M393.2,494L393.2,494L393.2,494l0.9-1.8l0,0l0.8-1.8l0,0l0.8-1.8v0l0.8-1.8v0l0.8-1.8h0l0.8-1.8l0,0l0.8-1.8
			l0,0l0.8-1.8v0l0.8-1.8v0l0.8-1.8l0,0l0.8-1.8h0l0.8-1.8l0,0l0.8-1.8h0l0.8-1.8v0l0.8-1.8l0,0l0.8-1.8v0l0.8-1.8v0l0.8-1.8l0,0
			l0.8-1.8l0,0l0.8-1.9v0l0.8-1.9l0,0l0.8-1.9l0,0l0.8-1.9h0l0.8-1.9v0l0.8-1.9l0,0l0.8-1.9l0,0l0.8-1.9l0,0l0.8-1.9l0,0l0.8-1.9
			l0,0l0.8-1.9v0l0.8-1.9h0l0.8-1.9l0,0l0.8-2l0,0l0.8-2h0l0.8-2l0,0l0.8-2l0,0l0.8-2v0l0.8-2l0,0l0.8-2l0,0l0.8-2v0l0.8-2v0
			l0.8-2.1l0,0l0.8-2.1v0l0.8-2.1h0l0.8-2.1l0,0l0.8-2.1l0,0l0.8-2.1v0l0.8-2.2h0l0.8-2.2l0,0l0.8-2.2l0,0l0.8-2.2l0,0l0.8-2.2v0
			l0.8-2.3l0,0l0.8-2.3v0l0.8-2.3l0,0l0.8-2.3l0,0l0.8-2.4v0l0.8-2.4v0l0.8-2.4h0l0.8-2.5l0,0l0.8-2.5v0l0.8-2.5l0,0l0.8-2.6l0,0
			l0.8-2.6l0,0l0.8-2.7l0,0l0.8-2.7v0l0.8-2.8l0,0l0.8-2.8l0,0l0.8-2.9h0l0.8-3l0,0l0.8-3.1v0l0.8-3.2v0l0.8-3.3v0l0.8-3.4v0
			l0.8-3.6l0,0l0.8-3.7v0l0.8-4h0l0.8-4.2l0,0l0.8-4.6l0,0l0.8-5v0l0.8-5.6l0,0l0.8-6.6l0,0l0.8-8.5l0,0l0.8-17v0V264v0l-0.8-17v0
			l-0.8-8.5v0l-0.8-6.6l0,0l-0.8-5.6v0l-0.8-5l0,0l-0.8-4.6l0,0l-0.8-4.2h0l-0.8-4v0l-0.8-3.7l0,0l-0.8-3.6v0l-0.8-3.4v0l-0.8-3.3v0
			l-0.8-3.2v0l-0.8-3.1l0,0l-0.8-3h0l-0.8-2.9l0,0l-0.8-2.8l0,0l-0.8-2.8v0l-0.8-2.7l0,0l-0.8-2.7l0,0l-0.8-2.6l0,0l-0.8-2.6v0
			l-0.8-2.5v0l-0.8-2.5v0l-0.8-2.5h0l-0.8-2.4v0l-0.8-2.4v0l-0.8-2.4l0,0l-0.8-2.3v0l-0.8-2.3v0l-0.8-2.3l0,0l-0.8-2.3l0,0l-0.8-2.2
			l0,0l-0.8-2.2l0,0l-0.8-2.2l0,0l-0.8-2.2h0l-0.8-2.2v0l-0.8-2.1l0,0l-0.8-2.1l0,0l-0.8-2.1h0l-0.8-2.1v0l-0.8-2.1l0,0l-0.8-2.1v0
			l-0.8-2v0l-0.8-2l0,0l-0.8-2v0l-0.8-2v0l-0.8-2l0,0l-0.8-2l0,0l-0.8-2l0,0l-0.8-2l0,0l-0.8-2l0,0l-0.8-1.9h0l-0.8-1.9v0l-0.8-1.9
			v0l-0.8-1.9l0,0l-0.8-1.9l0,0l-0.8-1.9v0l-0.8-1.9l0,0l-0.8-1.9v0l-0.8-1.9h0l-0.8-1.9l0,0l-0.8-1.9l0,0l-0.8-1.9v0l-0.8-1.9l0,0
			l-0.8-1.8l0,0l-0.8-1.8l0,0l-0.8-1.8l0,0l-0.8-1.8l0,0l-0.8-1.8v0l-0.8-1.8h0l-0.8-1.8v0l-0.8-1.8h0l-0.8-1.8l0,0l-0.8-1.8v0
			l-0.8-1.8v0l-0.8-1.8l0,0l-0.8-1.8v0l-0.8-1.8h0l-0.8-1.8v0l-0.8-1.8v0l-0.8-1.8h0l-0.8-1.8l0,0l-0.8-1.8h0l0,0"/>
		<line class="st8" x1="663" y1="494" x2="663" y2="42"/>
		<line class="st10" x1="95" y1="494" x2="663" y2="494"/>
		<line class="st10" x1="95" y1="42" x2="663" y2="42"/>
		<line class="st8" x1="95" y1="494" x2="95" y2="42"/>
		<path class="st9" d="M364.8,494l-0.8-1.7l0,0l-0.8-1.8v0l-0.8-1.8l0,0l-0.8-1.8v0l-0.8-1.8v0l-0.8-1.8v0l-0.8-1.8h0l-0.8-1.8l0,0
			l-0.8-1.8h0l-0.8-1.8v0l-0.8-1.8l0,0l-0.8-1.8l0,0l-0.8-1.8l0,0l-0.8-1.8l0,0l-0.8-1.8l0,0l-0.8-1.8l0,0l-0.8-1.8l0,0l-0.8-1.8
			l0,0l-0.8-1.8l0,0l-0.8-1.9l0,0l-0.8-1.9l0,0l-0.8-1.9l0,0l-0.8-1.9v0l-0.8-1.9l0,0l-0.8-1.9l0,0l-0.8-1.9l0,0l-0.8-1.9l0,0
			l-0.8-1.9h0l-0.8-1.9l0,0l-0.8-1.9l0,0l-0.8-1.9l0,0l-0.8-1.9l0,0l-0.8-2l0,0l-0.8-2l0,0l-0.8-2l0,0l-0.8-2l0,0l-0.8-2l0,0l-0.8-2
			l0,0l-0.8-2v0l-0.8-2v0l-0.8-2l0,0l-0.8-2.1l0,0l-0.8-2.1h0l-0.8-2.1l0,0l-0.8-2.1v0l-0.8-2.1v0l-0.8-2.1h0l-0.8-2.2v0l-0.8-2.2
			l0,0l-0.8-2.2l0,0l-0.8-2.2l0,0l-0.8-2.2l0,0l-0.8-2.3h0l-0.8-2.3v0l-0.8-2.3h0l-0.8-2.3v0l-0.8-2.4v0l-0.8-2.4v0l-0.8-2.4v0
			l-0.8-2.5l0,0l-0.8-2.5l0,0l-0.8-2.5v0l-0.8-2.6v0l-0.8-2.6h0l-0.8-2.7v0l-0.8-2.7l0,0l-0.8-2.8l0,0l-0.8-2.8v0l-0.8-2.9l0,0
			l-0.8-3v0l-0.8-3.1v0l-0.8-3.2h0l-0.8-3.3v0l-0.8-3.4h0l-0.8-3.6l0,0l-0.8-3.7v0l-0.8-3.9l0,0l-0.8-4.2h0l-0.8-4.5l0,0l-0.8-5v0
			l-0.8-5.6v0l-0.8-6.5v0l-0.8-8.3l0,0l-0.8-15.3l0,0v-12.4l0,0l0.8-15.3v0l0.8-8.3v0l0.8-6.5l0,0l0.8-5.6v0l0.8-5l0,0l0.8-4.5h0
			l0.8-4.2l0,0l0.8-3.9v0l0.8-3.7l0,0l0.8-3.6h0l0.8-3.4v0l0.8-3.3h0l0.8-3.2v0l0.8-3.1v0l0.8-3v0l0.8-2.9v0l0.8-2.8l0,0l0.8-2.8
			l0,0l0.8-2.7v0l0.8-2.7h0l0.8-2.6v0l0.8-2.6v0l0.8-2.5l0,0l0.8-2.5l0,0l0.8-2.5v0l0.8-2.4l0,0l0.8-2.4v0l0.8-2.4v0l0.8-2.3h0
			l0.8-2.3l0,0l0.8-2.3h0l0.8-2.3v0l0.8-2.2l0,0l0.8-2.2v0l0.8-2.2l0,0l0.8-2.2v0l0.8-2.2h0l0.8-2.1v0l0.8-2.1v0l0.8-2.1v0l0.8-2.1
			h0l0.8-2.1l0,0l0.8-2.1l0,0l0.8-2v0l0.8-2v0l0.8-2l0,0l0.8-2l0,0l0.8-2l0,0l0.8-2v0l0.8-2l0,0l0.8-2l0,0l0.8-2l0,0l0.8-1.9l0,0
			l0.8-1.9l0,0l0.8-1.9l0,0l0.8-1.9l0,0l0.8-1.9l0,0l0.8-1.9l0,0l0.8-1.9l0,0l0.8-1.9l0,0l0.8-1.9v0l0.8-1.9h0l0.8-1.9l0,0l0.8-1.9
			l0,0l0.8-1.9l0,0l0.8-1.8l0,0l0.8-1.8l0,0l0.8-1.8l0,0l0.8-1.8v0l0.8-1.8l0,0l0.8-1.8l0,0l0.8-1.8l0,0l0.8-1.8l0,0l0.8-1.8v0
			l0.8-1.8h0l0.8-1.8l0,0l0.8-1.8l0,0l0.8-1.8v0l0.8-1.8l0,0l0.8-1.8v0l0.8-1.8l0,0l0.8-1.8v0l0.8-1.8l0,0l0.8-1.7"/>
		<path class="st9" d="M393.2,494L393.2,494L393.2,494l0.9-1.8l0,0l0.8-1.8l0,0l0.8-1.8v0l0.8-1.8v0l0.8-1.8h0l0.8-1.8l0,0l0.8-1.8
			l0,0l0.8-1.8v0l0.8-1.8v0l0.8-1.8l0,0l0.8-1.8h0l0.8-1.8l0,0l0.8-1.8h0l0.8-1.8v0l0.8-1.8l0,0l0.8-1.8v0l0.8-1.8v0l0.8-1.8l0,0
			l0.8-1.8l0,0l0.8-1.9v0l0.8-1.9l0,0l0.8-1.9l0,0l0.8-1.9h0l0.8-1.9v0l0.8-1.9l0,0l0.8-1.9l0,0l0.8-1.9l0,0l0.8-1.9l0,0l0.8-1.9
			l0,0l0.8-1.9v0l0.8-1.9h0l0.8-1.9l0,0l0.8-2l0,0l0.8-2h0l0.8-2l0,0l0.8-2l0,0l0.8-2v0l0.8-2l0,0l0.8-2l0,0l0.8-2v0l0.8-2v0
			l0.8-2.1l0,0l0.8-2.1v0l0.8-2.1h0l0.8-2.1l0,0l0.8-2.1l0,0l0.8-2.1v0l0.8-2.2h0l0.8-2.2l0,0l0.8-2.2l0,0l0.8-2.2l0,0l0.8-2.2v0
			l0.8-2.3l0,0l0.8-2.3v0l0.8-2.3l0,0l0.8-2.3l0,0l0.8-2.4v0l0.8-2.4v0l0.8-2.4h0l0.8-2.5l0,0l0.8-2.5v0l0.8-2.5l0,0l0.8-2.6l0,0
			l0.8-2.6l0,0l0.8-2.7l0,0l0.8-2.7v0l0.8-2.8l0,0l0.8-2.8l0,0l0.8-2.9h0l0.8-3l0,0l0.8-3.1v0l0.8-3.2v0l0.8-3.3v0l0.8-3.4v0
			l0.8-3.6l0,0l0.8-3.7v0l0.8-4h0l0.8-4.2l0,0l0.8-4.6l0,0l0.8-5v0l0.8-5.6l0,0l0.8-6.6l0,0l0.8-8.5l0,0l0.8-17v0V264v0l-0.8-17v0
			l-0.8-8.5v0l-0.8-6.6l0,0l-0.8-5.6v0l-0.8-5l0,0l-0.8-4.6l0,0l-0.8-4.2h0l-0.8-4v0l-0.8-3.7l0,0l-0.8-3.6v0l-0.8-3.4v0l-0.8-3.3v0
			l-0.8-3.2v0l-0.8-3.1l0,0l-0.8-3h0l-0.8-2.9l0,0l-0.8-2.8l0,0l-0.8-2.8v0l-0.8-2.7l0,0l-0.8-2.7l0,0l-0.8-2.6l0,0l-0.8-2.6v0
			l-0.8-2.5v0l-0.8-2.5v0l-0.8-2.5h0l-0.8-2.4v0l-0.8-2.4v0l-0.8-2.4l0,0l-0.8-2.3v0l-0.8-2.3v0l-0.8-2.3l0,0l-0.8-2.3l0,0l-0.8-2.2
			l0,0l-0.8-2.2l0,0l-0.8-2.2l0,0l-0.8-2.2h0l-0.8-2.2v0l-0.8-2.1l0,0l-0.8-2.1l0,0l-0.8-2.1h0l-0.8-2.1v0l-0.8-2.1l0,0l-0.8-2.1v0
			l-0.8-2v0l-0.8-2l0,0l-0.8-2v0l-0.8-2v0l-0.8-2l0,0l-0.8-2l0,0l-0.8-2l0,0l-0.8-2l0,0l-0.8-2l0,0l-0.8-1.9h0l-0.8-1.9v0l-0.8-1.9
			v0l-0.8-1.9l0,0l-0.8-1.9l0,0l-0.8-1.9v0l-0.8-1.9l0,0l-0.8-1.9v0l-0.8-1.9h0l-0.8-1.9l0,0l-0.8-1.9l0,0l-0.8-1.9v0l-0.8-1.9l0,0
			l-0.8-1.8l0,0l-0.8-1.8l0,0l-0.8-1.8l0,0l-0.8-1.8l0,0l-0.8-1.8v0l-0.8-1.8h0l-0.8-1.8v0l-0.8-1.8h0l-0.8-1.8l0,0l-0.8-1.8v0
			l-0.8-1.8v0l-0.8-1.8l0,0l-0.8-1.8v0l-0.8-1.8h0l-0.8-1.8v0l-0.8-1.8v0l-0.8-1.8h0l-0.8-1.8l0,0l-0.8-1.8h0l0,0"/>
		<line class="st8" x1="663" y1="494" x2="663" y2="42"/>
		<line class="st11" x1="95" y1="494" x2="663" y2="494"/>
		<line class="st11" x1="95" y1="42" x2="663" y2="42"/>
		<line class="st12" x1="663" y1="268" x2="418.9" y2="98.4"/>
		<line class="st12" x1="418.9" y1="98.4" x2="339.1" y2="98.4"/>
		<line class="st12" x1="339.1" y1="98.4" x2="420.5" y2="433.7"/>
	</g>
	<line class="st12" x1="420.5" y1="433.7" x2="338" y2="434.9"/>
	<line class="st12" x1="338" y1="434.9" x2="95" y2="277.2"/>
	<g transform="translate(262.7365,267.1246)">
		<text transform="matrix(1 0 0 1 0 25)" class="st13 st5 st14">2</text>
	</g>
	<g transform="translate(475.0611,263.0058)">
		<text transform="matrix(1 0 0 1 0 25)" class="st13 st5 st14">3</text>
	</g>
	<g transform="translate(639.3726,268.1543)">
		<text transform="matrix(1 0 0 1 0 25)" class="st15 st5 st14">4</text>
	</g>
	<g transform="translate(101.6929,296.3324)">
		<text transform="matrix(1 0 0 1 0 25)" class="st15 st5 st14">1</text>
	</g>
	<g transform="translate(184.8486,49.8611)">
		<text transform="matrix(1 0 0 1 0 25)" class="st16 st5 st14">5</text>
	</g>
	<g transform="translate(189.1834,459.6756)">
		<text transform="matrix(1 0 0 1 0 25)" class="st16 st5 st14">6</text>
	</g>
	<g transform="translate(363.7636,402.4879)">
		<text transform="matrix(1 0 0 1 0 25)" class="st17 st5 st14">R</text>
	</g>
	<g transform="translate(199.4521,313.9351)">
		<text transform="matrix(1 0 0 1 0 25)" class="st17 st5 st14">T</text>
	</g>
	<g transform="translate(379.8349,221.2634)">
		<text transform="matrix(1 0 0 1 0 25)" class="st17 st5 st14">R</text>
	</g>
	<g transform="translate(369.0984,65.7811)">
		<text transform="matrix(1 0 0 1 0 25)" class="st17 st5 st14">T</text>
	</g>
	<g>
		<line class="st18" x1="477" y1="139.6" x2="460.1" y2="127.9"/>
		<path class="st18" d="M461.1,134.7L453,123l7.1,4.9L461.1,134.7"/>
		<path class="st18" d="M453,123l13.8,3.5l-6.7,1.5L453,123"/>
	</g>
	<g>
		<path class="st17" d="M461.1,134.7L453,123l7.1,4.9L461.1,134.7z"/>
		<path class="st17" d="M453,123l13.8,3.5l-6.7,1.5L453,123z"/>
	</g>
	<g>
		<line class="st18" x1="379" y1="98.6" x2="362.7" y2="98.2"/>
		<path class="st18" d="M367.2,103.3L354,98l8.7,0.2L367.2,103.3"/>
		<path class="st18" d="M354,98l13.4-4.7l-4.8,4.9L354,98"/>
	</g>
	<g>
		<path class="st17" d="M367.2,103.3L354,98l8.7,0.2L367.2,103.3z"/>
		<path class="st17" d="M354,98l13.4-4.7l-4.8,4.9L354,98z"/>
	</g>
	<g>
		<line class="st18" x1="356" y1="170.6" x2="361.8" y2="192.6"/>
		<path class="st18" d="M365.4,186.8L364,201l-2.2-8.4L365.4,186.8"/>
		<path class="st18" d="M364,201l-8.2-11.6l6,3.2L364,201"/>
	</g>
	<g>
		<path class="st17" d="M365.4,186.8L364,201l-2.2-8.4L365.4,186.8z"/>
		<path class="st17" d="M364,201l-8.2-11.6l6,3.2L364,201z"/>
	</g>
	<g>
		<line class="st18" x1="391" y1="434.6" x2="364.7" y2="434.1"/>
		<path class="st18" d="M369.3,439.2L356,434l8.7,0.1L369.3,439.2"/>
		<path class="st18" d="M356,434l13.4-4.8l-4.7,4.9L356,434"/>
	</g>
	<g>
		<path class="st17" d="M369.3,439.2L356,434l8.7,0.1L369.3,439.2z"/>
		<path class="st17" d="M356,434l13.4-4.8l-4.7,4.9L356,434z"/>
	</g>
	<g>
		<line class="st18" x1="215" y1="354.6" x2="190.4" y2="339.5"/>
		<path class="st18" d="M191.8,346.2L183,335l7.4,4.5L191.8,346.2"/>
		<path class="st18" d="M183,335l14,2.7l-6.6,1.8L183,335"/>
	</g>
	<g>
		<path class="st17" d="M191.8,346.2L183,335l7.4,4.5L191.8,346.2z"/>
		<path class="st17" d="M183,335l14,2.7l-6.6,1.8L183,335z"/>
	</g>
</g>
</svg>
