<?xml version="1.0" encoding="utf-8"?>
<!-- Generator: Adobe Illustrator 21.1.0, SVG Export Plug-In . SVG Version: 6.00 Build 0)  -->
<svg version="1.1" id="Layer_1" xmlns="http://www.w3.org/2000/svg" xmlns:xlink="http://www.w3.org/1999/xlink" x="0px" y="0px"
	 viewBox="0 0 734 555" style="enable-background:new 0 0 734 555;" xml:space="preserve">
<style type="text/css">
	.st0{clip-path:url(#SVGID_2_);fill:#FFFFFF;}
	.st1{fill:#FFFFFF;}
	.st2{fill:none;stroke:#262626;stroke-width:0.6667;stroke-linecap:square;stroke-linejoin:round;stroke-miterlimit:10;}
	.st3{fill:#262626;}
	.st4{font-family:'MyriadPro-Regular';}
	.st5{font-size:21px;}
	.st6{font-size:23px;}
	.st7{fill:none;stroke:#FF0000;stroke-width:3.3333;stroke-linejoin:round;stroke-miterlimit:10;}
	.st8{fill:none;stroke:#0000FF;stroke-width:3.3333;stroke-linejoin:round;stroke-miterlimit:10;}
	.st9{fill:none;stroke:#007F00;stroke-width:3.3333;stroke-linejoin:round;stroke-miterlimit:10;}
	.st10{fill:none;stroke:#FF00FF;stroke-width:2.6667;stroke-linejoin:round;stroke-miterlimit:10;}
	.st11{fill:none;stroke:#7E2F8E;stroke-width:2.6667;stroke-linejoin:round;stroke-miterlimit:10;}
	.st12{fill:#7E2F8E;}
	.st13{font-size:27.5782px;}
	.st14{font-size:19px;}
	.st15{font-size:30.3382px;}
	.st16{font-size:20.037px;}
	.st17{fill:none;stroke:#7E2F8E;stroke-width:0.6667;stroke-linejoin:round;stroke-miterlimit:10;}
</style>
<g>
	<g>
		<g>
			<defs>
				<rect id="SVGID_1_" y="0" width="734" height="555"/>
			</defs>
			<clipPath id="SVGID_2_">
				<use xlink:href="#SVGID_1_"  style="overflow:visible;"/>
			</clipPath>
			<rect y="0" class="st0" width="734" height="555"/>
		</g>
	</g>
	<g>
		<rect y="0" class="st1" width="734" height="555"/>
		<path class="st1" d="M95,490h568V42H95V490z"/>
	</g>
	<g>
		<line class="st2" x1="95" y1="490" x2="663" y2="490"/>
		<line class="st2" x1="95" y1="490" x2="95" y2="484.3"/>
		<line class="st2" x1="237" y1="490" x2="237" y2="484.3"/>
		<line class="st2" x1="379" y1="490" x2="379" y2="484.3"/>
		<line class="st2" x1="521" y1="490" x2="521" y2="484.3"/>
		<line class="st2" x1="663" y1="490" x2="663" y2="484.3"/>
	</g>
	<g transform="translate(95,496.9333)">
		<text transform="matrix(1 0 0 1 -6 22)" class="st3 st4 st5">0</text>
	</g>
	<g transform="translate(237,496.9333)">
		<text transform="matrix(1 0 0 1 -6 22)" class="st3 st4 st5">5</text>
	</g>
	<g transform="translate(379,496.9333)">
		<text transform="matrix(1 0 0 1 -12 22)" class="st3 st4 st5">10</text>
	</g>
	<g transform="translate(521,496.9333)">
		<text transform="matrix(1 0 0 1 -12 22)" class="st3 st4 st5">15</text>
	</g>
	<g transform="translate(663,496.9333)">
		<text transform="matrix(1 0 0 1 -12 22)" class="st3 st4 st5">20</text>
	</g>
	<g transform="translate(379.0003,525.2667)">
		<text transform="matrix(1 0 0 1 -6 24)" class="st3 st4 st6">x</text>
	</g>
	<g>
		<line class="st2" x1="95" y1="490" x2="95" y2="42"/>
		<line class="st2" x1="95" y1="490" x2="100.7" y2="490"/>
		<line class="st2" x1="95" y1="266" x2="100.7" y2="266"/>
		<line class="st2" x1="95" y1="42" x2="100.7" y2="42"/>
	</g>
	<g transform="translate(88.0667,490)">
		<text transform="matrix(1 0 0 1 -19 8.5)" class="st3 st4 st5">-5</text>
	</g>
	<g transform="translate(88.0667,266)">
		<text transform="matrix(1 0 0 1 -12 8.5)" class="st3 st4 st5">0</text>
	</g>
	<g transform="translate(88.0667,42)">
		<text transform="matrix(1 0 0 1 -12 8.5)" class="st3 st4 st5">5</text>
	</g>
	<g transform="translate(65.0667,265.9998) rotate(-90)">
		<text transform="matrix(1 0 0 1 -5.9996 -6)" class="st3 st4 st6">z</text>
	</g>
	<g>
		<line class="st7" x1="95" y1="490" x2="95" y2="42"/>
		<path class="st8" d="M364.8,490l-0.3-0.6v0l-0.8-1.7v0l-0.8-1.7h0l-0.8-1.7v0l-0.8-1.8h0l-0.8-1.8v0l-0.8-1.8v0l-0.8-1.8l0,0
			l-0.8-1.8v0l-0.8-1.8l0,0l-0.8-1.8l0,0l-0.8-1.8l0,0l-0.8-1.8l0,0l-0.8-1.8v0l-0.8-1.8h0l-0.8-1.8l0,0l-0.8-1.8l0,0l-0.8-1.8l0,0
			l-0.8-1.8v0l-0.8-1.8l0,0l-0.8-1.8l0,0l-0.8-1.8v0l-0.8-1.8l0,0l-0.8-1.9h0l-0.8-1.9h0l-0.8-1.9h0l-0.8-1.9l0,0l-0.8-1.9v0
			l-0.8-1.9l0,0l-0.8-1.9v0l-0.8-1.9v0l-0.8-1.9l0,0l-0.8-1.9h0l-0.8-1.9l0,0l-0.8-1.9l0,0l-0.8-2l0,0l-0.8-2l0,0l-0.8-2l0,0l-0.8-2
			l0,0l-0.8-2l0,0l-0.8-2v0l-0.8-2v0l-0.8-2v0l-0.8-2.1l0,0l-0.8-2.1v0L327,405l0,0l-0.8-2.1l0,0l-0.8-2.1l0,0l-0.8-2.1l0,0
			l-0.8-2.2v0l-0.8-2.2l0,0l-0.8-2.2v0l-0.8-2.2v0l-0.8-2.2v0l-0.8-2.3l0,0l-0.8-2.3v0l-0.8-2.3v0l-0.8-2.3l0,0l-0.8-2.4v0l-0.8-2.4
			h0l-0.8-2.4l0,0l-0.8-2.5v0l-0.8-2.5v0l-0.8-2.6l0,0l-0.8-2.6l0,0l-0.8-2.7v0l-0.8-2.7l0,0l-0.8-2.8l0,0l-0.8-2.8l0,0l-0.8-2.9h0
			l-0.8-3l0,0l-0.8-3.1l0,0l-0.8-3.2v0l-0.8-3.3v0l-0.8-3.4l0,0l-0.8-3.6l0,0l-0.8-3.8l0,0l-0.8-4l0,0l-0.8-4.3l0,0l-0.8-4.6l0,0
			l-0.8-5.1v0l-0.8-5.8h0l-0.8-6.9v0l-0.8-9.3l0,0v-35.8v0l0.8-9.3v0l0.8-6.9l0,0l0.8-5.8v0l0.8-5.1h0l0.8-4.6l0,0l0.8-4.3l0,0
			l0.8-4l0,0l0.8-3.8l0,0l0.8-3.6l0,0l0.8-3.4v0l0.8-3.3v0l0.8-3.2v0l0.8-3.1v0l0.8-3h0l0.8-2.9l0,0l0.8-2.8l0,0l0.8-2.8l0,0
			l0.8-2.7v0l0.8-2.7l0,0l0.8-2.6l0,0l0.8-2.6v0l0.8-2.5v0l0.8-2.5v0l0.8-2.4h0l0.8-2.4v0l0.8-2.4l0,0l0.8-2.3v0l0.8-2.3v0l0.8-2.3
			l0,0l0.8-2.3v0l0.8-2.2v0l0.8-2.2v0l0.8-2.2v0l0.8-2.2v0l0.8-2.2l0,0l0.8-2.1l0,0l0.8-2.1v0l0.8-2.1l0,0l0.8-2.1v0l0.8-2.1l0,0
			l0.8-2.1v0l0.8-2v0l0.8-2v0l0.8-2l0,0l0.8-2l0,0l0.8-2l0,0l0.8-2l0,0l0.8-2l0,0l0.8-2l0,0l0.8-1.9v0l0.8-1.9h0l0.8-1.9l0,0
			l0.8-1.9v0l0.8-1.9v0l0.8-1.9v0l0.8-1.9v0l0.8-1.9l0,0l0.8-1.9h0l0.8-1.9l0,0l0.8-1.9h0l0.8-1.9l0,0l0.8-1.8v0l0.8-1.8l0,0
			l0.8-1.8l0,0l0.8-1.8l0,0l0.8-1.8l0,0l0.8-1.8l0,0l0.8-1.8l0,0l0.8-1.8l0,0l0.8-1.8l0,0l0.8-1.8l0,0l0.8-1.8l0,0l0.8-1.8l0,0
			l0.8-1.8l0,0l0.8-1.8v0l0.8-1.8l0,0l0.8-1.8v0l0.8-1.8v0l0.8-1.8h0l0.8-1.8v0l0.8-1.7h0l0.8-1.7v0l0.8-1.7v0l0.3-0.6"/>
		<path class="st8" d="M393.2,490l0.5-1l0,0l0.8-1.7v0l0.8-1.7l0,0l0.8-1.7v0l0.8-1.8l0,0l0.8-1.8l0,0l0.8-1.8h0l0.8-1.8h0l0.8-1.8
			l0,0l0.8-1.8v0l0.8-1.8l0,0l0.8-1.8l0,0l0.8-1.8v0l0.8-1.8l0,0l0.8-1.8l0,0l0.8-1.8l0,0l0.8-1.8h0l0.8-1.8h0l0.8-1.8l0,0l0.8-1.8
			h0l0.8-1.8v0l0.8-1.8l0,0l0.8-1.9v0l0.8-1.9v0l0.8-1.9l0,0l0.8-1.9l0,0l0.8-1.9l0,0l0.8-1.9l0,0l0.8-1.9l0,0l0.8-1.9v0l0.8-1.9
			l0,0l0.8-1.9l0,0l0.8-1.9v0l0.8-1.9v0l0.8-2l0,0l0.8-2l0,0l0.8-2v0l0.8-2h0l0.8-2v0l0.8-2h0l0.8-2h0l0.8-2l0,0l0.8-2l0,0l0.8-2.1
			h0l0.8-2.1v0l0.8-2.1v0l0.8-2.1v0l0.8-2.1v0l0.8-2.1v0l0.8-2.2h0l0.8-2.2l0,0l0.8-2.2h0l0.8-2.2h0l0.8-2.2l0,0l0.8-2.3l0,0
			l0.8-2.3l0,0l0.8-2.3l0,0l0.8-2.3v0l0.8-2.4h0l0.8-2.4v0l0.8-2.4l0,0l0.8-2.5l0,0l0.8-2.5h0l0.8-2.6v0l0.8-2.6l0,0l0.8-2.7l0,0
			l0.8-2.7l0,0l0.8-2.8l0,0l0.8-2.9v0l0.8-2.9l0,0l0.8-3v0l0.8-3.1h0l0.8-3.2l0,0l0.8-3.3l0,0l0.8-3.5l0,0l0.8-3.6v0l0.8-3.8v0
			l0.8-4l0,0l0.8-4.3v0l0.8-4.7v0l0.8-5.2l0,0l0.8-6v0l0.8-7.3h0l0.8-10.4h0V251h0l-0.8-10.4h0l-0.8-7.3v0l-0.8-6l0,0l-0.8-5.2v0
			l-0.8-4.7v0l-0.8-4.3l0,0l-0.8-4v0l-0.8-3.8l0,0l-0.8-3.6l0,0l-0.8-3.5l0,0l-0.8-3.3l0,0l-0.8-3.2h0l-0.8-3.1v0l-0.8-3l0,0
			l-0.8-2.9v0l-0.8-2.8l0,0l-0.8-2.8l0,0l-0.8-2.7l0,0l-0.8-2.7l0,0l-0.8-2.6v0l-0.8-2.6h0l-0.8-2.5l0,0l-0.8-2.5l0,0l-0.8-2.4v0
			l-0.8-2.4h0l-0.8-2.4v0l-0.8-2.3l0,0l-0.8-2.3l0,0l-0.8-2.3l0,0l-0.8-2.3l0,0l-0.8-2.2h0l-0.8-2.2l0,0l-0.8-2.2h0l-0.8-2.2h0
			l-0.8-2.2v0l-0.8-2.1v0l-0.8-2.1v0l-0.8-2.1v0l-0.8-2.1v0l-0.8-2.1h0l-0.8-2.1l0,0l-0.8-2h0l-0.8-2h0l-0.8-2l0,0l-0.8-2v0l-0.8-2
			h0l-0.8-2v0l-0.8-2v0l-0.8-2l0,0l-0.8-2v0l-0.8-1.9v0l-0.8-1.9l0,0l-0.8-1.9l0,0l-0.8-1.9v0l-0.8-1.9l0,0l-0.8-1.9l0,0l-0.8-1.9
			l0,0l-0.8-1.9l0,0l-0.8-1.9l0,0l-0.8-1.9v0l-0.8-1.9l0,0l-0.8-1.9l0,0l-0.8-1.8v0l-0.8-1.8h0l-0.8-1.8l0,0l-0.8-1.8h0l-0.8-1.8h0
			l-0.8-1.8l0,0l-0.8-1.8l0,0l-0.8-1.8l0,0l-0.8-1.8v0l-0.8-1.8l0,0l-0.8-1.8l0,0l-0.8-1.8v0l-0.8-1.8v0l-0.8-1.8h0l-0.8-1.8h0
			l-0.8-1.8l0,0L397,50l0,0l-0.8-1.8v0l-0.8-1.7v0l-0.8-1.7l0,0l-0.8-1.7l0,0l-0.5-1"/>
		<line class="st7" x1="663" y1="490" x2="663" y2="42"/>
		<line class="st9" x1="95" y1="490" x2="663" y2="490"/>
		<line class="st9" x1="95" y1="42" x2="663" y2="42"/>
		<line class="st10" x1="95" y1="266" x2="364.8" y2="42"/>
		<line class="st10" x1="364.8" y1="42" x2="393.2" y2="42"/>
		<line class="st10" x1="393.2" y1="42" x2="663" y2="266"/>
		<line class="st10" x1="95" y1="266" x2="329.5" y2="120.6"/>
		<line class="st10" x1="329.5" y1="120.6" x2="428.5" y2="120.6"/>
		<line class="st10" x1="428.5" y1="120.6" x2="663" y2="266"/>
		<line class="st10" x1="95" y1="266" x2="344.2" y2="86.3"/>
		<line class="st10" x1="344.2" y1="86.3" x2="413.8" y2="86.3"/>
		<line class="st10" x1="413.8" y1="86.3" x2="663" y2="266"/>
		<line class="st10" x1="95" y1="266" x2="318.8" y2="148.5"/>
		<line class="st10" x1="318.8" y1="148.5" x2="439.2" y2="148.5"/>
		<line class="st10" x1="439.2" y1="148.5" x2="663" y2="266"/>
		<line class="st10" x1="95" y1="266" x2="310.7" y2="172.2"/>
		<line class="st10" x1="310.7" y1="172.2" x2="447.3" y2="172.2"/>
		<line class="st10" x1="447.3" y1="172.2" x2="663" y2="266"/>
		<line class="st10" x1="95" y1="266" x2="304.7" y2="192.9"/>
		<line class="st10" x1="304.7" y1="192.9" x2="453.3" y2="192.9"/>
		<line class="st10" x1="453.3" y1="192.9" x2="663" y2="266"/>
		<line class="st10" x1="95" y1="266" x2="300.4" y2="211.5"/>
		<line class="st10" x1="300.4" y1="211.5" x2="457.6" y2="211.5"/>
		<line class="st10" x1="457.6" y1="211.5" x2="663" y2="266"/>
		<line class="st10" x1="95" y1="266" x2="297.4" y2="228.8"/>
		<line class="st10" x1="297.4" y1="228.8" x2="460.6" y2="228.8"/>
		<line class="st10" x1="460.6" y1="228.8" x2="663" y2="266"/>
		<line class="st10" x1="95" y1="266" x2="295.5" y2="245.2"/>
		<line class="st10" x1="295.5" y1="245.2" x2="462.5" y2="245.2"/>
		<line class="st10" x1="462.5" y1="245.2" x2="663" y2="266"/>
		<line class="st10" x1="95" y1="266" x2="294.7" y2="261"/>
		<line class="st10" x1="294.7" y1="261" x2="463.3" y2="261"/>
		<line class="st10" x1="463.3" y1="261" x2="663" y2="266"/>
		<line class="st10" x1="95" y1="266" x2="294.9" y2="276.8"/>
		<line class="st10" x1="294.9" y1="276.8" x2="463.1" y2="276.8"/>
		<line class="st10" x1="463.1" y1="276.8" x2="663" y2="266"/>
		<line class="st10" x1="95" y1="266" x2="296.1" y2="292.8"/>
		<line class="st10" x1="296.1" y1="292.8" x2="461.9" y2="292.8"/>
		<line class="st10" x1="461.9" y1="292.8" x2="663" y2="266"/>
		<line class="st10" x1="95" y1="266" x2="298.3" y2="309.5"/>
		<line class="st10" x1="298.3" y1="309.5" x2="459.7" y2="309.5"/>
		<line class="st10" x1="459.7" y1="309.5" x2="663" y2="266"/>
		<line class="st10" x1="95" y1="266" x2="301.8" y2="327.2"/>
		<line class="st10" x1="301.8" y1="327.2" x2="456.2" y2="327.2"/>
		<line class="st10" x1="456.2" y1="327.2" x2="663" y2="266"/>
		<line class="st10" x1="95" y1="266" x2="306.7" y2="346.5"/>
		<line class="st10" x1="306.7" y1="346.5" x2="451.3" y2="346.5"/>
		<line class="st10" x1="451.3" y1="346.5" x2="663" y2="266"/>
		<line class="st10" x1="95" y1="266" x2="313.4" y2="368.2"/>
		<line class="st10" x1="313.4" y1="368.2" x2="444.6" y2="368.2"/>
		<line class="st10" x1="444.6" y1="368.2" x2="663" y2="266"/>
		<line class="st10" x1="95" y1="266" x2="322.4" y2="393.2"/>
		<line class="st10" x1="322.4" y1="393.2" x2="435.6" y2="393.2"/>
		<line class="st10" x1="435.6" y1="393.2" x2="663" y2="266"/>
		<line class="st10" x1="95" y1="266" x2="334.4" y2="423.2"/>
		<line class="st10" x1="334.4" y1="423.2" x2="423.6" y2="423.2"/>
		<line class="st10" x1="423.6" y1="423.2" x2="663" y2="266"/>
		<line class="st10" x1="95" y1="266" x2="351" y2="460.7"/>
		<line class="st10" x1="351" y1="460.7" x2="407" y2="460.7"/>
		<line class="st10" x1="407" y1="460.7" x2="663" y2="266"/>
		<line class="st10" x1="95" y1="266" x2="364.8" y2="490"/>
		<line class="st10" x1="364.8" y1="490" x2="393.2" y2="490"/>
		<line class="st10" x1="393.2" y1="490" x2="663" y2="266"/>
		<line class="st11" x1="658" y1="265.5" x2="669" y2="265.5"/>
		<line class="st11" x1="663.5" y1="271" x2="663.5" y2="260"/>
		<line class="st11" x1="659" y1="270" x2="668" y2="261"/>
		<line class="st11" x1="659" y1="261" x2="668" y2="270"/>
		<line class="st11" x1="90" y1="265.5" x2="101" y2="265.5"/>
		<line class="st11" x1="95.5" y1="271" x2="95.5" y2="260"/>
		<line class="st11" x1="91" y1="270" x2="100" y2="261"/>
		<line class="st11" x1="91" y1="261" x2="100" y2="270"/>
	</g>
	<g transform="translate(541,406)">
		<text transform="matrix(1 0 0 1 35.291 -4.531250e-03)" class="st12 st4 st13">F</text>
	</g>
	<g transform="translate(556,418)">
		<text transform="matrix(1 0 0 1 35 -3)" class="st12 st4 st14">2</text>
	</g>
	<g transform="translate(108,404)">
		<text transform="matrix(1 0 0 1 32.4717 3.305)" class="st12 st4 st15">F</text>
	</g>
	<g transform="translate(123,416)">
		<text transform="matrix(1 0 0 1 30.2979 -2.2594)" class="st12 st4 st16">1</text>
	</g>
	<g>
		<line class="st17" x1="145" y1="378.6" x2="106.4" y2="288"/>
		<path class="st17" d="M103.6,294.2L103,280l3.4,8L103.6,294.2"/>
		<path class="st17" d="M103,280l9.8,10.3l-6.4-2.3L103,280"/>
	</g>
	<g>
		<path class="st12" d="M103.6,294.2L103,280l3.4,8L103.6,294.2z"/>
		<path class="st12" d="M103,280l9.8,10.3l-6.4-2.3L103,280z"/>
	</g>
	<g>
		<line class="st17" x1="590" y1="381.6" x2="653.1" y2="288.2"/>
		<path class="st17" d="M646.4,289.2L658,281l-4.9,7.2L646.4,289.2"/>
		<path class="st17" d="M658,281l-3.3,13.8l-1.5-6.7L658,281"/>
	</g>
	<g>
		<path class="st12" d="M646.4,289.2L658,281l-4.9,7.2L646.4,289.2z"/>
		<path class="st12" d="M658,281l-3.3,13.8l-1.5-6.7L658,281z"/>
	</g>
</g>
</svg>
