<?xml version="1.0" encoding="utf-8"?>
<!-- Generator: Adobe Illustrator 21.1.0, SVG Export Plug-In . SVG Version: 6.00 Build 0)  -->
<svg version="1.1" id="Layer_1" xmlns="http://www.w3.org/2000/svg" xmlns:xlink="http://www.w3.org/1999/xlink" x="0px" y="0px"
	 viewBox="0 0 719 555" style="enable-background:new 0 0 719 555;" xml:space="preserve">
<style type="text/css">
	.st0{clip-path:url(#SVGID_2_);fill:#FFFFFF;}
</style>
<g>
	<g>
		<g>
			<defs>
				<rect id="SVGID_1_" y="0" width="719" height="555"/>
			</defs>
			<clipPath id="SVGID_2_">
				<use xlink:href="#SVGID_1_"  style="overflow:visible;"/>
			</clipPath>
			<rect y="0" class="st0" width="719" height="555"/>
		</g>
	</g>
	<g transform="scale(0.16,0.16)">
		<g>
			<defs>
				<rect id="SVGID_3_" x="1887.4" y="1456.9" width="719" height="555"/>
			</defs>
			<clipPath id="SVGID_4_">
				<use xlink:href="#SVGID_3_"  style="overflow:visible;"/>
			</clipPath>
			<g style="clip-path:url(#SVGID_4_);enable-background:new    ;">
				
					<image style="overflow:visible;" width="719" height="555" xlink:href="6469603D.png"  transform="matrix(1 0 0 1 0 2913.9998)">
				</image>
			</g>
		</g>
		<g>
			<defs>
				<rect id="SVGID_5_" x="1887.4" y="1456.9" width="719" height="555"/>
			</defs>
			<clipPath id="SVGID_6_">
				<use xlink:href="#SVGID_5_"  style="overflow:visible;"/>
			</clipPath>
			<g style="clip-path:url(#SVGID_6_);enable-background:new    ;">
				
					<image style="overflow:visible;" width="719" height="555" xlink:href="6469603F.png"  transform="matrix(1 0 0 1 719 2913.9998)">
				</image>
			</g>
		</g>
		<g>
			<defs>
				<rect id="SVGID_7_" x="1887.4" y="1456.9" width="719" height="555"/>
			</defs>
			<clipPath id="SVGID_8_">
				<use xlink:href="#SVGID_7_"  style="overflow:visible;"/>
			</clipPath>
			<g style="clip-path:url(#SVGID_8_);enable-background:new    ;">
				
					<image style="overflow:visible;" width="719" height="555" xlink:href="6469603D.png"  transform="matrix(1 0 0 1 1438 2913.9998)">
				</image>
			</g>
		</g>
		<g>
			<defs>
				<rect id="SVGID_9_" x="1887.4" y="1456.9" width="719" height="555"/>
			</defs>
			<clipPath id="SVGID_10_">
				<use xlink:href="#SVGID_9_"  style="overflow:visible;"/>
			</clipPath>
			<g style="clip-path:url(#SVGID_10_);enable-background:new    ;">
				
					<image style="overflow:visible;" width="719" height="555" xlink:href="6469603B.png"  transform="matrix(1 0 0 1 2157 2913.9998)">
				</image>
			</g>
		</g>
		<g>
			<defs>
				<rect id="SVGID_11_" x="1887.4" y="1456.9" width="719" height="555"/>
			</defs>
			<clipPath id="SVGID_12_">
				<use xlink:href="#SVGID_11_"  style="overflow:visible;"/>
			</clipPath>
			<g style="clip-path:url(#SVGID_12_);enable-background:new    ;">
				
					<image style="overflow:visible;" width="719" height="555" xlink:href="64696045.png"  transform="matrix(1 0 0 1 2876 2913.9998)">
				</image>
			</g>
		</g>
		<g>
			<defs>
				<rect id="SVGID_13_" x="1887.4" y="1456.9" width="719" height="555"/>
			</defs>
			<clipPath id="SVGID_14_">
				<use xlink:href="#SVGID_13_"  style="overflow:visible;"/>
			</clipPath>
			<g style="clip-path:url(#SVGID_14_);enable-background:new    ;">
				
					<image style="overflow:visible;" width="719" height="555" xlink:href="64696047.png"  transform="matrix(1 0 0 1 3595 2913.9998)">
				</image>
			</g>
		</g>
		<g>
			<defs>
				<rect id="SVGID_15_" x="1887.4" y="1456.9" width="719" height="555"/>
			</defs>
			<clipPath id="SVGID_16_">
				<use xlink:href="#SVGID_15_"  style="overflow:visible;"/>
			</clipPath>
			<g style="clip-path:url(#SVGID_16_);enable-background:new    ;">
				
					<image style="overflow:visible;" width="180" height="555" xlink:href="64696045.png"  transform="matrix(1 0 0 1 4314 2913.9998)">
				</image>
			</g>
		</g>
		<g>
			<defs>
				<rect id="SVGID_17_" x="1887.4" y="1456.9" width="719" height="555"/>
			</defs>
			<clipPath id="SVGID_18_">
				<use xlink:href="#SVGID_17_"  style="overflow:visible;"/>
			</clipPath>
			<g style="clip-path:url(#SVGID_18_);enable-background:new    ;">
				
					<image style="overflow:visible;" width="719" height="555" xlink:href="6469604B.png"  transform="matrix(1 0 0 1 0 2358.9998)">
				</image>
			</g>
		</g>
		<g>
			<defs>
				<rect id="SVGID_19_" x="1887.4" y="1456.9" width="719" height="555"/>
			</defs>
			<clipPath id="SVGID_20_">
				<use xlink:href="#SVGID_19_"  style="overflow:visible;"/>
			</clipPath>
			<g style="clip-path:url(#SVGID_20_);enable-background:new    ;">
				
					<image style="overflow:visible;" width="719" height="555" xlink:href="6469604D.png"  transform="matrix(1 0 0 1 719 2358.9998)">
				</image>
			</g>
		</g>
		<g>
			<defs>
				<rect id="SVGID_21_" x="1887.4" y="1456.9" width="719" height="555"/>
			</defs>
			<clipPath id="SVGID_22_">
				<use xlink:href="#SVGID_21_"  style="overflow:visible;"/>
			</clipPath>
			<g style="clip-path:url(#SVGID_22_);enable-background:new    ;">
				
					<image style="overflow:visible;" width="719" height="555" xlink:href="833AE8D6.png"  transform="matrix(1 0 0 1 1438 2358.9998)">
				</image>
			</g>
		</g>
		<g>
			<defs>
				<rect id="SVGID_23_" x="1887.4" y="1456.9" width="719" height="555"/>
			</defs>
			<clipPath id="SVGID_24_">
				<use xlink:href="#SVGID_23_"  style="overflow:visible;"/>
			</clipPath>
			<g style="clip-path:url(#SVGID_24_);enable-background:new    ;">
				
					<image style="overflow:visible;" width="719" height="555" xlink:href="833AE8D6.png"  transform="matrix(1 0 0 1 2157 2358.9998)">
				</image>
			</g>
		</g>
		<g>
			<defs>
				<rect id="SVGID_25_" x="1887.4" y="1456.9" width="719" height="555"/>
			</defs>
			<clipPath id="SVGID_26_">
				<use xlink:href="#SVGID_25_"  style="overflow:visible;"/>
			</clipPath>
			<g style="clip-path:url(#SVGID_26_);enable-background:new    ;">
				
					<image style="overflow:visible;" width="719" height="555" xlink:href="833AE8D2.png"  transform="matrix(1 0 0 1 2876 2358.9998)">
				</image>
			</g>
		</g>
		<g>
			<defs>
				<rect id="SVGID_27_" x="1887.4" y="1456.9" width="719" height="555"/>
			</defs>
			<clipPath id="SVGID_28_">
				<use xlink:href="#SVGID_27_"  style="overflow:visible;"/>
			</clipPath>
			<g style="clip-path:url(#SVGID_28_);enable-background:new    ;">
				
					<image style="overflow:visible;" width="719" height="555" xlink:href="833AE8D2.png"  transform="matrix(1 0 0 1 3595 2358.9998)">
				</image>
			</g>
		</g>
		<g>
			<defs>
				<rect id="SVGID_29_" x="1887.4" y="1456.9" width="719" height="555"/>
			</defs>
			<clipPath id="SVGID_30_">
				<use xlink:href="#SVGID_29_"  style="overflow:visible;"/>
			</clipPath>
			<g style="clip-path:url(#SVGID_30_);enable-background:new    ;">
				
					<image style="overflow:visible;" width="180" height="555" xlink:href="833AE8EE.png"  transform="matrix(1 0 0 1 4314 2358.9998)">
				</image>
			</g>
		</g>
		<g>
			<defs>
				<rect id="SVGID_31_" x="1887.4" y="1456.9" width="719" height="555"/>
			</defs>
			<clipPath id="SVGID_32_">
				<use xlink:href="#SVGID_31_"  style="overflow:visible;"/>
			</clipPath>
			<g style="clip-path:url(#SVGID_32_);enable-background:new    ;">
				
					<image style="overflow:visible;" width="719" height="555" xlink:href="833AE8EE.png"  transform="matrix(1 0 0 1 0 1803.9999)">
				</image>
			</g>
		</g>
		<g>
			<defs>
				<rect id="SVGID_33_" x="1887.4" y="1456.9" width="719" height="555"/>
			</defs>
			<clipPath id="SVGID_34_">
				<use xlink:href="#SVGID_33_"  style="overflow:visible;"/>
			</clipPath>
			<g style="clip-path:url(#SVGID_34_);enable-background:new    ;">
				
					<image style="overflow:visible;" width="719" height="555" xlink:href="833AE8F2.png"  transform="matrix(1 0 0 1 719 1803.9999)">
				</image>
			</g>
		</g>
		<g>
			<defs>
				<rect id="SVGID_35_" x="1887.4" y="1456.9" width="719" height="555"/>
			</defs>
			<clipPath id="SVGID_36_">
				<use xlink:href="#SVGID_35_"  style="overflow:visible;"/>
			</clipPath>
			<g style="clip-path:url(#SVGID_36_);enable-background:new    ;">
				
					<image style="overflow:visible;" width="719" height="555" xlink:href="833AE8F2.png"  transform="matrix(1 0 0 1 1438 1803.9999)">
				</image>
			</g>
		</g>
		<g>
			<defs>
				<rect id="SVGID_37_" x="1887.4" y="1456.9" width="719" height="555"/>
			</defs>
			<clipPath id="SVGID_38_">
				<use xlink:href="#SVGID_37_"  style="overflow:visible;"/>
			</clipPath>
			<g style="clip-path:url(#SVGID_38_);enable-background:new    ;">
				
					<image style="overflow:visible;" width="719" height="555" xlink:href="833AE8F6.png"  transform="matrix(1 0 0 1 2157 1803.9999)">
				</image>
			</g>
		</g>
		<g>
			<defs>
				<rect id="SVGID_39_" x="1887.4" y="1456.9" width="719" height="555"/>
			</defs>
			<clipPath id="SVGID_40_">
				<use xlink:href="#SVGID_39_"  style="overflow:visible;"/>
			</clipPath>
			<g style="clip-path:url(#SVGID_40_);enable-background:new    ;">
				
					<image style="overflow:visible;" width="719" height="555" xlink:href="833AE8F6.png"  transform="matrix(1 0 0 1 2876 1803.9999)">
				</image>
			</g>
		</g>
		<g>
			<defs>
				<rect id="SVGID_41_" x="1887.4" y="1456.9" width="719" height="555"/>
			</defs>
			<clipPath id="SVGID_42_">
				<use xlink:href="#SVGID_41_"  style="overflow:visible;"/>
			</clipPath>
			<g style="clip-path:url(#SVGID_42_);enable-background:new    ;">
				
					<image style="overflow:visible;" width="719" height="555" xlink:href="833AE915.png"  transform="matrix(1 0 0 1 3595 1803.9999)">
				</image>
			</g>
		</g>
		<g>
			<defs>
				<rect id="SVGID_43_" x="1887.4" y="1456.9" width="719" height="555"/>
			</defs>
			<clipPath id="SVGID_44_">
				<use xlink:href="#SVGID_43_"  style="overflow:visible;"/>
			</clipPath>
			<g style="clip-path:url(#SVGID_44_);enable-background:new    ;">
				
					<image style="overflow:visible;" width="180" height="555" xlink:href="833AE917.png"  transform="matrix(1 0 0 1 4314 1803.9999)">
				</image>
			</g>
		</g>
		<g>
			<defs>
				<rect id="SVGID_45_" x="1887.4" y="1456.9" width="719" height="555"/>
			</defs>
			<clipPath id="SVGID_46_">
				<use xlink:href="#SVGID_45_"  style="overflow:visible;"/>
			</clipPath>
			<g style="clip-path:url(#SVGID_46_);enable-background:new    ;">
				
					<image style="overflow:visible;" width="719" height="555" xlink:href="833AE915.png"  transform="matrix(1 0 0 1 0 1248.9999)">
				</image>
			</g>
		</g>
		<g>
			<defs>
				<rect id="SVGID_47_" x="1887.4" y="1456.9" width="719" height="555"/>
			</defs>
			<clipPath id="SVGID_48_">
				<use xlink:href="#SVGID_47_"  style="overflow:visible;"/>
			</clipPath>
			<g style="clip-path:url(#SVGID_48_);enable-background:new    ;">
				
					<image style="overflow:visible;" width="719" height="555" xlink:href="833AE913.png"  transform="matrix(1 0 0 1 719 1248.9999)">
				</image>
			</g>
		</g>
		<g>
			<defs>
				<rect id="SVGID_49_" x="1887.4" y="1456.9" width="719" height="555"/>
			</defs>
			<clipPath id="SVGID_50_">
				<use xlink:href="#SVGID_49_"  style="overflow:visible;"/>
			</clipPath>
			<g style="clip-path:url(#SVGID_50_);enable-background:new    ;">
				
					<image style="overflow:visible;" width="719" height="555" xlink:href="833AE91D.png"  transform="matrix(1 0 0 1 1438 1248.9999)">
				</image>
			</g>
		</g>
		<g>
			<defs>
				<rect id="SVGID_51_" x="1887.4" y="1456.9" width="719" height="555"/>
			</defs>
			<clipPath id="SVGID_52_">
				<use xlink:href="#SVGID_51_"  style="overflow:visible;"/>
			</clipPath>
			<g style="clip-path:url(#SVGID_52_);enable-background:new    ;">
				
					<image style="overflow:visible;" width="719" height="555" xlink:href="833AE91F.png"  transform="matrix(1 0 0 1 2157 1248.9999)">
				</image>
			</g>
		</g>
		<g>
			<defs>
				<rect id="SVGID_53_" x="1887.4" y="1456.9" width="719" height="555"/>
			</defs>
			<clipPath id="SVGID_54_">
				<use xlink:href="#SVGID_53_"  style="overflow:visible;"/>
			</clipPath>
			<g style="clip-path:url(#SVGID_54_);enable-background:new    ;">
				
					<image style="overflow:visible;" width="719" height="555" xlink:href="833AE91D.png"  transform="matrix(1 0 0 1 2876 1248.9999)">
				</image>
			</g>
		</g>
		<g>
			<defs>
				<rect id="SVGID_55_" x="1887.4" y="1456.9" width="719" height="555"/>
			</defs>
			<clipPath id="SVGID_56_">
				<use xlink:href="#SVGID_55_"  style="overflow:visible;"/>
			</clipPath>
			<g style="clip-path:url(#SVGID_56_);enable-background:new    ;">
				
					<image style="overflow:visible;" width="719" height="555" xlink:href="833AE913.png"  transform="matrix(1 0 0 1 3595 1248.9999)">
				</image>
			</g>
		</g>
		<g>
			<defs>
				<rect id="SVGID_57_" x="1887.4" y="1456.9" width="719" height="555"/>
			</defs>
			<clipPath id="SVGID_58_">
				<use xlink:href="#SVGID_57_"  style="overflow:visible;"/>
			</clipPath>
			<g style="clip-path:url(#SVGID_58_);enable-background:new    ;">
				
					<image style="overflow:visible;" width="180" height="555" xlink:href="833AE915.png"  transform="matrix(1 0 0 1 4314 1248.9999)">
				</image>
			</g>
		</g>
		<g>
			<defs>
				<rect id="SVGID_59_" x="1887.4" y="1456.9" width="719" height="555"/>
			</defs>
			<clipPath id="SVGID_60_">
				<use xlink:href="#SVGID_59_"  style="overflow:visible;"/>
			</clipPath>
			<g style="clip-path:url(#SVGID_60_);enable-background:new    ;">
				<image style="overflow:visible;" width="719" height="555" xlink:href="833AE917.png"  transform="matrix(1 0 0 1 0 693.9999)">
				</image>
			</g>
		</g>
		<g>
			<defs>
				<rect id="SVGID_61_" x="1887.4" y="1456.9" width="719" height="555"/>
			</defs>
			<clipPath id="SVGID_62_">
				<use xlink:href="#SVGID_61_"  style="overflow:visible;"/>
			</clipPath>
			<g style="clip-path:url(#SVGID_62_);enable-background:new    ;">
				
					<image style="overflow:visible;" width="719" height="555" xlink:href="833AE938.png"  transform="matrix(1 0 0 1 719 693.9999)">
				</image>
			</g>
		</g>
		<g>
			<defs>
				<rect id="SVGID_63_" x="1887.4" y="1456.9" width="719" height="555"/>
			</defs>
			<clipPath id="SVGID_64_">
				<use xlink:href="#SVGID_63_"  style="overflow:visible;"/>
			</clipPath>
			<g style="clip-path:url(#SVGID_64_);enable-background:new    ;">
				
					<image style="overflow:visible;" width="719" height="555" xlink:href="833AE938.png"  transform="matrix(1 0 0 1 1438 693.9999)">
				</image>
			</g>
		</g>
		<g>
			<defs>
				<rect id="SVGID_65_" x="1887.4" y="1456.9" width="719" height="555"/>
			</defs>
			<clipPath id="SVGID_66_">
				<use xlink:href="#SVGID_65_"  style="overflow:visible;"/>
			</clipPath>
			<g style="clip-path:url(#SVGID_66_);enable-background:new    ;">
				
					<image style="overflow:visible;" width="719" height="555" xlink:href="833AE908.png"  transform="matrix(1 0 0 1 2157 693.9999)">
				</image>
			</g>
		</g>
		<g>
			<defs>
				<rect id="SVGID_67_" x="1887.4" y="1456.9" width="719" height="555"/>
			</defs>
			<clipPath id="SVGID_68_">
				<use xlink:href="#SVGID_67_"  style="overflow:visible;"/>
			</clipPath>
			<g style="clip-path:url(#SVGID_68_);enable-background:new    ;">
				
					<image style="overflow:visible;" width="719" height="555" xlink:href="833AE908.png"  transform="matrix(1 0 0 1 2876 693.9999)">
				</image>
			</g>
		</g>
		<g>
			<defs>
				<rect id="SVGID_69_" x="1887.4" y="1456.9" width="719" height="555"/>
			</defs>
			<clipPath id="SVGID_70_">
				<use xlink:href="#SVGID_69_"  style="overflow:visible;"/>
			</clipPath>
			<g style="clip-path:url(#SVGID_70_);enable-background:new    ;">
				
					<image style="overflow:visible;" width="719" height="555" xlink:href="833AE908.png"  transform="matrix(1 0 0 1 3595 693.9999)">
				</image>
			</g>
		</g>
		<g>
			<defs>
				<rect id="SVGID_71_" x="1887.4" y="1456.9" width="719" height="555"/>
			</defs>
			<clipPath id="SVGID_72_">
				<use xlink:href="#SVGID_71_"  style="overflow:visible;"/>
			</clipPath>
			<g style="clip-path:url(#SVGID_72_);enable-background:new    ;">
				
					<image style="overflow:visible;" width="180" height="555" xlink:href="833AE908.png"  transform="matrix(1 0 0 1 4314 693.9999)">
				</image>
			</g>
		</g>
		<g>
			<defs>
				<rect id="SVGID_73_" x="1887.4" y="1456.9" width="719" height="555"/>
			</defs>
			<clipPath id="SVGID_74_">
				<use xlink:href="#SVGID_73_"  style="overflow:visible;"/>
			</clipPath>
			<g style="clip-path:url(#SVGID_74_);enable-background:new    ;">
				<image style="overflow:visible;" width="719" height="555" xlink:href="833AE908.png"  transform="matrix(1 0 0 1 0 138.9999)">
				</image>
			</g>
		</g>
		<g>
			<defs>
				<rect id="SVGID_75_" x="1887.4" y="1456.9" width="719" height="555"/>
			</defs>
			<clipPath id="SVGID_76_">
				<use xlink:href="#SVGID_75_"  style="overflow:visible;"/>
			</clipPath>
			<g style="clip-path:url(#SVGID_76_);enable-background:new    ;">
				
					<image style="overflow:visible;" width="719" height="555" xlink:href="833AE908.png"  transform="matrix(1 0 0 1 719 138.9999)">
				</image>
			</g>
		</g>
		<g>
			<defs>
				<rect id="SVGID_77_" x="1887.4" y="1456.9" width="719" height="555"/>
			</defs>
			<clipPath id="SVGID_78_">
				<use xlink:href="#SVGID_77_"  style="overflow:visible;"/>
			</clipPath>
			<g style="clip-path:url(#SVGID_78_);enable-background:new    ;">
				
					<image style="overflow:visible;" width="719" height="555" xlink:href="833AE908.png"  transform="matrix(1 0 0 1 1438 138.9999)">
				</image>
			</g>
		</g>
		<g>
			<defs>
				<rect id="SVGID_79_" x="1887.4" y="1456.9" width="719" height="555"/>
			</defs>
			<clipPath id="SVGID_80_">
				<use xlink:href="#SVGID_79_"  style="overflow:visible;"/>
			</clipPath>
			<g style="clip-path:url(#SVGID_80_);enable-background:new    ;">
				
					<image style="overflow:visible;" width="719" height="555" xlink:href="833AE908.png"  transform="matrix(1 0 0 1 2157 138.9999)">
				</image>
			</g>
		</g>
		<g>
			<defs>
				<rect id="SVGID_81_" x="1887.4" y="1456.9" width="719" height="555"/>
			</defs>
			<clipPath id="SVGID_82_">
				<use xlink:href="#SVGID_81_"  style="overflow:visible;"/>
			</clipPath>
			<g style="clip-path:url(#SVGID_82_);enable-background:new    ;">
				
					<image style="overflow:visible;" width="719" height="555" xlink:href="833AE963.png"  transform="matrix(1 0 0 1 2876 138.9999)">
				</image>
			</g>
		</g>
		<g>
			<defs>
				<rect id="SVGID_83_" x="1887.4" y="1456.9" width="719" height="555"/>
			</defs>
			<clipPath id="SVGID_84_">
				<use xlink:href="#SVGID_83_"  style="overflow:visible;"/>
			</clipPath>
			<g style="clip-path:url(#SVGID_84_);enable-background:new    ;">
				
					<image style="overflow:visible;" width="719" height="555" xlink:href="833AE965.png"  transform="matrix(1 0 0 1 3595 138.9999)">
				</image>
			</g>
		</g>
		<g>
			<defs>
				<rect id="SVGID_85_" x="1887.4" y="1456.9" width="719" height="555"/>
			</defs>
			<clipPath id="SVGID_86_">
				<use xlink:href="#SVGID_85_"  style="overflow:visible;"/>
			</clipPath>
			<g style="clip-path:url(#SVGID_86_);enable-background:new    ;">
				
					<image style="overflow:visible;" width="180" height="555" xlink:href="833AE967.png"  transform="matrix(1 0 0 1 4314 138.9999)">
				</image>
			</g>
		</g>
		<g>
			<defs>
				<rect id="SVGID_87_" x="1887.4" y="1456.9" width="719" height="555"/>
			</defs>
			<clipPath id="SVGID_88_">
				<use xlink:href="#SVGID_87_"  style="overflow:visible;"/>
			</clipPath>
			<g style="clip-path:url(#SVGID_88_);enable-background:new    ;">
				
					<image style="overflow:visible;" width="719" height="139" xlink:href="833AE965.png"  transform="matrix(1 0 0 1 0 -9.155273e-05)">
				</image>
			</g>
		</g>
		<g>
			<defs>
				<rect id="SVGID_89_" x="1887.4" y="1456.9" width="719" height="555"/>
			</defs>
			<clipPath id="SVGID_90_">
				<use xlink:href="#SVGID_89_"  style="overflow:visible;"/>
			</clipPath>
			<g style="clip-path:url(#SVGID_90_);enable-background:new    ;">
				
					<image style="overflow:visible;" width="719" height="139" xlink:href="833AE963.png"  transform="matrix(1 0 0 1 719 -9.155273e-05)">
				</image>
			</g>
		</g>
		<g>
			<defs>
				<rect id="SVGID_91_" x="1887.4" y="1456.9" width="719" height="555"/>
			</defs>
			<clipPath id="SVGID_92_">
				<use xlink:href="#SVGID_91_"  style="overflow:visible;"/>
			</clipPath>
			<g style="clip-path:url(#SVGID_92_);enable-background:new    ;">
				
					<image style="overflow:visible;" width="719" height="139" xlink:href="833AE97D.png"  transform="matrix(1 0 0 1 1438 -9.155273e-05)">
				</image>
			</g>
		</g>
		<g>
			<defs>
				<rect id="SVGID_93_" x="1887.4" y="1456.9" width="719" height="555"/>
			</defs>
			<clipPath id="SVGID_94_">
				<use xlink:href="#SVGID_93_"  style="overflow:visible;"/>
			</clipPath>
			<g style="clip-path:url(#SVGID_94_);enable-background:new    ;">
				
					<image style="overflow:visible;" width="719" height="139" xlink:href="833AE97F.png"  transform="matrix(1 0 0 1 2157 -9.155273e-05)">
				</image>
			</g>
		</g>
		<g>
			<defs>
				<rect id="SVGID_95_" x="1887.4" y="1456.9" width="719" height="555"/>
			</defs>
			<clipPath id="SVGID_96_">
				<use xlink:href="#SVGID_95_"  style="overflow:visible;"/>
			</clipPath>
			<g style="clip-path:url(#SVGID_96_);enable-background:new    ;">
				
					<image style="overflow:visible;" width="719" height="139" xlink:href="833AE97D.png"  transform="matrix(1 0 0 1 2876 -9.155273e-05)">
				</image>
			</g>
		</g>
		<g>
			<defs>
				<rect id="SVGID_97_" x="1887.4" y="1456.9" width="719" height="555"/>
			</defs>
			<clipPath id="SVGID_98_">
				<use xlink:href="#SVGID_97_"  style="overflow:visible;"/>
			</clipPath>
			<g style="clip-path:url(#SVGID_98_);enable-background:new    ;">
				
					<image style="overflow:visible;" width="719" height="139" xlink:href="833AE963.png"  transform="matrix(1 0 0 1 3595 -9.155273e-05)">
				</image>
			</g>
		</g>
		<g>
			<defs>
				<rect id="SVGID_99_" x="1887.4" y="1456.9" width="719" height="555"/>
			</defs>
			<clipPath id="SVGID_100_">
				<use xlink:href="#SVGID_99_"  style="overflow:visible;"/>
			</clipPath>
			<g style="clip-path:url(#SVGID_100_);enable-background:new    ;">
				
					<image style="overflow:visible;" width="180" height="139" xlink:href="833AE965.png"  transform="matrix(1 0 0 1 4314 -9.155273e-05)">
				</image>
			</g>
		</g>
	</g>
</g>
</svg>
