<?xml version="1.0" encoding="utf-8"?>
<!-- Generator: Adobe Illustrator 21.1.0, SVG Export Plug-In . SVG Version: 6.00 Build 0)  -->
<svg version="1.1" id="Layer_1" xmlns="http://www.w3.org/2000/svg" xmlns:xlink="http://www.w3.org/1999/xlink" x="0px" y="0px"
	 viewBox="0 0 723 555" style="enable-background:new 0 0 723 555;" xml:space="preserve">
<style type="text/css">
	.st0{clip-path:url(#SVGID_2_);fill:#FFFFFF;}
	.st1{fill:#FFFFFF;}
	.st2{fill:none;stroke:#262626;stroke-width:0.6667;stroke-linecap:square;stroke-linejoin:round;stroke-miterlimit:10;}
	.st3{fill:#262626;}
	.st4{font-family:'MyriadPro-Regular';}
	.st5{font-size:21px;}
	.st6{font-size:23px;}
	.st7{fill:none;stroke:#FF0000;stroke-width:2;stroke-linejoin:round;stroke-miterlimit:10;}
	.st8{fill:none;stroke:#0000FF;stroke-width:2;stroke-linejoin:round;stroke-miterlimit:10;}
	.st9{fill:none;stroke:#3B7156;stroke-width:2.6667;stroke-linejoin:round;stroke-miterlimit:10;}
	.st10{fill:none;stroke:#FF0000;stroke-width:2.6667;stroke-linejoin:round;stroke-miterlimit:10;}
	.st11{fill:none;stroke:#0000FF;stroke-width:2.6667;stroke-linejoin:round;stroke-miterlimit:10;}
</style>
<g>
	<g>
		<g>
			<defs>
				<rect id="SVGID_1_" y="0" width="723" height="555"/>
			</defs>
			<clipPath id="SVGID_2_">
				<use xlink:href="#SVGID_1_"  style="overflow:visible;"/>
			</clipPath>
			<rect y="0" class="st0" width="723" height="555"/>
		</g>
	</g>
	<g>
		<rect y="0" class="st1" width="723" height="555"/>
		<path class="st1" d="M94,490h560V42H94V490z"/>
	</g>
	<g>
		<line class="st2" x1="94" y1="490" x2="654" y2="490"/>
		<line class="st2" x1="94" y1="490" x2="94" y2="484.4"/>
		<line class="st2" x1="234" y1="490" x2="234" y2="484.4"/>
		<line class="st2" x1="374" y1="490" x2="374" y2="484.4"/>
		<line class="st2" x1="514" y1="490" x2="514" y2="484.4"/>
		<line class="st2" x1="654" y1="490" x2="654" y2="484.4"/>
	</g>
	<g transform="translate(94,496.9333)">
		<text transform="matrix(1 0 0 1 -15.5 22)" class="st3 st4 st5">-10</text>
	</g>
	<g transform="translate(234,496.9333)">
		<text transform="matrix(1 0 0 1 -9.5 22)" class="st3 st4 st5">-5</text>
	</g>
	<g transform="translate(374,496.9333)">
		<text transform="matrix(1 0 0 1 -6 22)" class="st3 st4 st5">0</text>
	</g>
	<g transform="translate(514,496.9333)">
		<text transform="matrix(1 0 0 1 -6 22)" class="st3 st4 st5">5</text>
	</g>
	<g transform="translate(654,496.9333)">
		<text transform="matrix(1 0 0 1 -12 22)" class="st3 st4 st5">10</text>
	</g>
	<g transform="translate(374.0003,525.2667)">
		<text transform="matrix(1 0 0 1 -6 24)" class="st3 st4 st6">x</text>
	</g>
	<g>
		<line class="st2" x1="94" y1="490" x2="94" y2="42"/>
		<line class="st2" x1="94" y1="463.6" x2="99.6" y2="463.6"/>
		<line class="st2" x1="94" y1="410.9" x2="99.6" y2="410.9"/>
		<line class="st2" x1="94" y1="358.2" x2="99.6" y2="358.2"/>
		<line class="st2" x1="94" y1="305.5" x2="99.6" y2="305.5"/>
		<line class="st2" x1="94" y1="252.8" x2="99.6" y2="252.8"/>
		<line class="st2" x1="94" y1="200.1" x2="99.6" y2="200.1"/>
		<line class="st2" x1="94" y1="147.4" x2="99.6" y2="147.4"/>
		<line class="st2" x1="94" y1="94.7" x2="99.6" y2="94.7"/>
		<line class="st2" x1="94" y1="42" x2="99.6" y2="42"/>
	</g>
	<g transform="translate(87.0667,463.6471)">
		<text transform="matrix(1 0 0 1 -12 8.5)" class="st3 st4 st5">0</text>
	</g>
	<g transform="translate(87.0667,410.9412)">
		<text transform="matrix(1 0 0 1 -12 8.5)" class="st3 st4 st5">1</text>
	</g>
	<g transform="translate(87.0667,358.2353)">
		<text transform="matrix(1 0 0 1 -12 8.5)" class="st3 st4 st5">2</text>
	</g>
	<g transform="translate(87.0667,305.5294)">
		<text transform="matrix(1 0 0 1 -12 8.5)" class="st3 st4 st5">3</text>
	</g>
	<g transform="translate(87.0667,252.8235)">
		<text transform="matrix(1 0 0 1 -12 8.5)" class="st3 st4 st5">4</text>
	</g>
	<g transform="translate(87.0667,200.1176)">
		<text transform="matrix(1 0 0 1 -12 8.5)" class="st3 st4 st5">5</text>
	</g>
	<g transform="translate(87.0667,147.4118)">
		<text transform="matrix(1 0 0 1 -12 8.5)" class="st3 st4 st5">6</text>
	</g>
	<g transform="translate(87.0667,94.7059)">
		<text transform="matrix(1 0 0 1 -12 8.5)" class="st3 st4 st5">7</text>
	</g>
	<g transform="translate(87.0667,42)">
		<text transform="matrix(1 0 0 1 -12 8.5)" class="st3 st4 st5">8</text>
	</g>
	<g transform="translate(71.0667,265.9998) rotate(-90)">
		<text transform="matrix(1 0 0 1 -5.9996 -6)" class="st3 st4 st6">z</text>
	</g>
	<g>
		<line class="st7" x1="318" y1="447.8" x2="430" y2="447.8"/>
		<path class="st8" d="M298.2,296.1l0.8,0.1l0.8,0.1l0.8,0.1l0.8,0.1l0.8,0.1l0.8,0.2l0.8,0.2l0.8,0.2l0.8,0.2l0.8,0.2l0.8,0.2
			l0.8,0.3l0.8,0.3l0.8,0.3l0.8,0.3l0.8,0.3l0.8,0.3l0.8,0.3l0.8,0.4l0.8,0.4l0.8,0.4l0.8,0.4l0.8,0.4l0.8,0.4l0.8,0.4l0.8,0.4
			l0.8,0.4l0.8,0.4l0.8,0.4l0.8,0.4l0.8,0.5l0.8,0.5l0.8,0.5l0.8,0.5l0.8,0.5l0.8,0.5l0.8,0.5l0.8,0.5l0.8,0.5l0.8,0.5l0.8,0.5
			l0.8,0.5l0.8,0.5l0.8,0.5l0.8,0.5l0.8,0.5l0.8,0.5l0.8,0.5l0.8,0.5l0.8,0.5l0.8,0.5l0.8,0.5l0.8,0.5l0.8,0.4l0.8,0.4l0.8,0.4
			l0.8,0.4l0.8,0.4l0.8,0.4l0.8,0.4l0.8,0.4l0.8,0.4l0.8,0.4l0.8,0.4l0.8,0.4l0.8,0.4l0.8,0.4l0.8,0.4l0.8,0.3l0.8,0.3l0.8,0.3
			l0.8,0.3l0.8,0.3l0.8,0.3l0.8,0.3l0.8,0.3l0.8,0.3l0.8,0.3l0.8,0.3l0.8,0.2l0.8,0.2l0.8,0.2l0.8,0.2l0.8,0.2l0.8,0.2l0.8,0.2
			l0.8,0.2l0.8,0.2l0.8,0.1l0.8,0.1l0.8,0.1l0.8,0.1l0.8,0.1l0.8,0.1l0.8,0.1l0.8,0.1l0.8,0l0.8,0l0.8,0l0.8,0l0,0l0.8,0l0.8,0
			l0.8,0l0.8,0l0.8-0.1l0.8-0.1l0.8-0.1l0.8-0.1l0.8-0.1l0.8-0.1l0.8-0.1l0.8-0.1l0.8-0.2l0.8-0.2l0.8-0.2l0.8-0.2l0.8-0.2l0.8-0.2
			l0.8-0.2l0.8-0.2l0.8-0.2l0.8-0.3l0.8-0.3l0.8-0.3l0.8-0.3l0.8-0.3l0.8-0.3l0.8-0.3l0.8-0.3l0.8-0.3l0.8-0.3l0.8-0.3l0.8-0.4
			l0.8-0.4l0.8-0.4l0.8-0.4l0.8-0.4l0.8-0.4l0.8-0.4l0.8-0.4l0.8-0.4l0.8-0.4l0.8-0.4l0.8-0.4l0.8-0.4l0.8-0.4l0.8-0.4l0.8-0.5
			l0.8-0.5l0.8-0.5l0.8-0.5l0.8-0.5l0.8-0.5l0.8-0.5l0.8-0.5l0.8-0.5l0.8-0.5l0.8-0.5l0.8-0.5l0.8-0.5l0.8-0.5l0.8-0.5l0.8-0.5
			l0.8-0.5l0.8-0.5l0.8-0.5l0.8-0.5l0.8-0.5l0.8-0.5l0.8-0.5l0.8-0.4l0.8-0.4l0.8-0.4l0.8-0.4l0.8-0.4l0.8-0.4l0.8-0.4l0.8-0.4
			l0.8-0.4l0.8-0.4l0.8-0.4l0.8-0.4l0.8-0.3l0.8-0.3l0.8-0.3l0.8-0.3l0.8-0.3l0.8-0.3l0.8-0.3l0.8-0.2l0.8-0.2l0.8-0.2l0.8-0.2
			l0.8-0.2l0.8-0.2l0.8-0.1l0.8-0.1l0.8-0.1l0.8-0.1l0.8-0.1"/>
		<line class="st8" x1="449.8" y1="296.1" x2="452.9" y2="296.1"/>
		<line class="st8" x1="452.9" y1="296.1" x2="460.7" y2="463.6"/>
		<line class="st8" x1="460.7" y1="463.6" x2="479.8" y2="462.5"/>
		<path class="st8" d="M647.1,48.6l-2.4,8.6l-2.4,8.5l-2.4,8.4l-2.4,8.2l-2.4,8.1l-2.4,8l-2.3,7.8l-2.3,7.7l-2.3,7.6l-2.3,7.4
			l-2.3,7.3l-2.3,7.2l-2.2,7.1l-2.2,6.9l-2.2,6.8l-2.2,6.7l-2.2,6.6l-2.1,6.5l-2.1,6.4l-2.1,6.2l-2.1,6.1l-2.1,6l-2.1,5.9l-2,5.8
			l-2,5.7l-2,5.6l-2,5.5l-2,5.4l-1.9,5.3l-1.9,5.2l-1.9,5.1l-1.9,5l-1.9,4.9l-1.9,4.9l-1.8,4.8l-1.8,4.7l-1.8,4.6l-1.8,4.5l-1.8,4.4
			l-1.8,4.4l-1.8,4.3l-1.7,4.2l-1.7,4.1l-1.7,4l-1.7,4l-1.7,3.9l-1.7,3.8l-1.6,3.8l-1.6,3.7l-1.6,3.6l-1.6,3.6L543,347l-1.6,3.4
			l-1.6,3.4l-1.6,3.3l-1.5,3.3l-1.5,3.2l-1.5,3.2l-1.5,3.1l-1.5,3l-1.5,3l-1.5,2.9l-1.5,2.9l-1.4,2.8l-1.4,2.8l-1.4,2.7l-1.4,2.7
			l-1.4,2.6l-1.4,2.6l-1.4,2.6l-1.4,2.5l-1.4,2.5l-1.3,2.4l-1.3,2.4l-1.3,2.3l-1.3,2.3l-1.3,2.3l-1.3,2.2l-1.3,2.2l-1.3,2.2L502,426
			l-1.3,2.1l-1.3,2.1l-1.3,2l-1.2,2l-1.2,2l-1.2,1.9l-1.2,1.9l-1.2,1.9l-1.2,1.9l-1.2,1.8l-1.2,1.8l-1.2,1.8l-1.2,1.8l-1.2,1.7
			l-1.2,1.7l-1.2,1.7l-1.2,1.7l-1.2,1.7"/>
		<line class="st8" x1="647.1" y1="50.2" x2="100.9" y2="50.2"/>
		<path class="st8" d="M268.2,459.6l-1.2-1.7l-1.2-1.7l-1.2-1.7l-1.2-1.7l-1.2-1.7l-1.2-1.8l-1.2-1.8l-1.2-1.8l-1.2-1.8l-1.2-1.9
			l-1.2-1.9l-1.2-1.9l-1.2-1.9l-1.2-2l-1.2-2l-1.3-2l-1.3-2.1L246,426l-1.3-2.1l-1.3-2.2l-1.3-2.2l-1.3-2.2l-1.3-2.3l-1.3-2.3
			l-1.3-2.3l-1.3-2.4l-1.3-2.4l-1.4-2.5l-1.4-2.5l-1.4-2.6l-1.4-2.6l-1.4-2.6l-1.4-2.7l-1.4-2.7l-1.4-2.8l-1.4-2.8l-1.5-2.9
			l-1.5-2.9l-1.5-3l-1.5-3l-1.5-3.1l-1.5-3.2l-1.5-3.2l-1.5-3.3l-1.6-3.3l-1.6-3.4L205,347l-1.6-3.5l-1.6-3.6l-1.6-3.6l-1.6-3.7
			l-1.6-3.8l-1.7-3.8l-1.7-3.9l-1.7-4l-1.7-4l-1.7-4.1l-1.7-4.2l-1.8-4.3l-1.8-4.4l-1.8-4.4l-1.8-4.5l-1.8-4.6l-1.8-4.7l-1.8-4.8
			l-1.9-4.9l-1.9-4.9l-1.9-5l-1.9-5.1l-1.9-5.2l-1.9-5.3l-2-5.4l-2-5.5l-2-5.6l-2-5.7l-2-5.8l-2.1-5.9l-2.1-6l-2.1-6.1l-2.1-6.2
			l-2.1-6.4l-2.1-6.5l-2.2-6.6l-2.2-6.7l-2.2-6.8l-2.2-6.9l-2.2-7.1l-2.3-7.2l-2.3-7.3l-2.3-7.4l-2.3-7.6l-2.3-7.7l-2.3-7.8l-2.4-8
			l-2.4-8.1l-2.4-8.2l-2.4-8.4l-2.4-8.5l-2.4-8.6"/>
		<line class="st8" x1="287.3" y1="463.6" x2="268.2" y2="462.5"/>
		<line class="st8" x1="295.1" y1="296.1" x2="287.3" y2="463.6"/>
		<line class="st8" x1="298.2" y1="296.1" x2="295.1" y2="296.1"/>
		<line class="st7" x1="94" y1="49.9" x2="654" y2="49.9"/>
		<line class="st9" x1="374" y1="447.8" x2="454.6" y2="334"/>
		<circle cx="374" cy="447.8" r="1.3"/>
	</g>
	<g transform="translate(454.6299,334.0048)">
		<circle cx="0" cy="0" r="1.3"/>
	</g>
	<g>
		<line class="st7" x1="318" y1="447.8" x2="430" y2="447.8"/>
		<path class="st8" d="M298.2,296.1l0.8,0.1l0.8,0.1l0.8,0.1l0.8,0.1l0.8,0.1l0.8,0.2l0.8,0.2l0.8,0.2l0.8,0.2l0.8,0.2l0.8,0.2
			l0.8,0.3l0.8,0.3l0.8,0.3l0.8,0.3l0.8,0.3l0.8,0.3l0.8,0.3l0.8,0.4l0.8,0.4l0.8,0.4l0.8,0.4l0.8,0.4l0.8,0.4l0.8,0.4l0.8,0.4
			l0.8,0.4l0.8,0.4l0.8,0.4l0.8,0.4l0.8,0.5l0.8,0.5l0.8,0.5l0.8,0.5l0.8,0.5l0.8,0.5l0.8,0.5l0.8,0.5l0.8,0.5l0.8,0.5l0.8,0.5
			l0.8,0.5l0.8,0.5l0.8,0.5l0.8,0.5l0.8,0.5l0.8,0.5l0.8,0.5l0.8,0.5l0.8,0.5l0.8,0.5l0.8,0.5l0.8,0.5l0.8,0.4l0.8,0.4l0.8,0.4
			l0.8,0.4l0.8,0.4l0.8,0.4l0.8,0.4l0.8,0.4l0.8,0.4l0.8,0.4l0.8,0.4l0.8,0.4l0.8,0.4l0.8,0.4l0.8,0.4l0.8,0.3l0.8,0.3l0.8,0.3
			l0.8,0.3l0.8,0.3l0.8,0.3l0.8,0.3l0.8,0.3l0.8,0.3l0.8,0.3l0.8,0.3l0.8,0.2l0.8,0.2l0.8,0.2l0.8,0.2l0.8,0.2l0.8,0.2l0.8,0.2
			l0.8,0.2l0.8,0.2l0.8,0.1l0.8,0.1l0.8,0.1l0.8,0.1l0.8,0.1l0.8,0.1l0.8,0.1l0.8,0.1l0.8,0l0.8,0l0.8,0l0.8,0l0,0l0.8,0l0.8,0
			l0.8,0l0.8,0l0.8-0.1l0.8-0.1l0.8-0.1l0.8-0.1l0.8-0.1l0.8-0.1l0.8-0.1l0.8-0.1l0.8-0.2l0.8-0.2l0.8-0.2l0.8-0.2l0.8-0.2l0.8-0.2
			l0.8-0.2l0.8-0.2l0.8-0.2l0.8-0.3l0.8-0.3l0.8-0.3l0.8-0.3l0.8-0.3l0.8-0.3l0.8-0.3l0.8-0.3l0.8-0.3l0.8-0.3l0.8-0.3l0.8-0.4
			l0.8-0.4l0.8-0.4l0.8-0.4l0.8-0.4l0.8-0.4l0.8-0.4l0.8-0.4l0.8-0.4l0.8-0.4l0.8-0.4l0.8-0.4l0.8-0.4l0.8-0.4l0.8-0.4l0.8-0.5
			l0.8-0.5l0.8-0.5l0.8-0.5l0.8-0.5l0.8-0.5l0.8-0.5l0.8-0.5l0.8-0.5l0.8-0.5l0.8-0.5l0.8-0.5l0.8-0.5l0.8-0.5l0.8-0.5l0.8-0.5
			l0.8-0.5l0.8-0.5l0.8-0.5l0.8-0.5l0.8-0.5l0.8-0.5l0.8-0.5l0.8-0.4l0.8-0.4l0.8-0.4l0.8-0.4l0.8-0.4l0.8-0.4l0.8-0.4l0.8-0.4
			l0.8-0.4l0.8-0.4l0.8-0.4l0.8-0.4l0.8-0.3l0.8-0.3l0.8-0.3l0.8-0.3l0.8-0.3l0.8-0.3l0.8-0.3l0.8-0.2l0.8-0.2l0.8-0.2l0.8-0.2
			l0.8-0.2l0.8-0.2l0.8-0.1l0.8-0.1l0.8-0.1l0.8-0.1l0.8-0.1"/>
		<line class="st8" x1="449.8" y1="296.1" x2="452.9" y2="296.1"/>
		<line class="st8" x1="452.9" y1="296.1" x2="460.7" y2="463.6"/>
		<line class="st8" x1="460.7" y1="463.6" x2="479.8" y2="462.5"/>
		<path class="st8" d="M647.1,48.6l-2.4,8.6l-2.4,8.5l-2.4,8.4l-2.4,8.2l-2.4,8.1l-2.4,8l-2.3,7.8l-2.3,7.7l-2.3,7.6l-2.3,7.4
			l-2.3,7.3l-2.3,7.2l-2.2,7.1l-2.2,6.9l-2.2,6.8l-2.2,6.7l-2.2,6.6l-2.1,6.5l-2.1,6.4l-2.1,6.2l-2.1,6.1l-2.1,6l-2.1,5.9l-2,5.8
			l-2,5.7l-2,5.6l-2,5.5l-2,5.4l-1.9,5.3l-1.9,5.2l-1.9,5.1l-1.9,5l-1.9,4.9l-1.9,4.9l-1.8,4.8l-1.8,4.7l-1.8,4.6l-1.8,4.5l-1.8,4.4
			l-1.8,4.4l-1.8,4.3l-1.7,4.2l-1.7,4.1l-1.7,4l-1.7,4l-1.7,3.9l-1.7,3.8l-1.6,3.8l-1.6,3.7l-1.6,3.6l-1.6,3.6L543,347l-1.6,3.4
			l-1.6,3.4l-1.6,3.3l-1.5,3.3l-1.5,3.2l-1.5,3.2l-1.5,3.1l-1.5,3l-1.5,3l-1.5,2.9l-1.5,2.9l-1.4,2.8l-1.4,2.8l-1.4,2.7l-1.4,2.7
			l-1.4,2.6l-1.4,2.6l-1.4,2.6l-1.4,2.5l-1.4,2.5l-1.3,2.4l-1.3,2.4l-1.3,2.3l-1.3,2.3l-1.3,2.3l-1.3,2.2l-1.3,2.2l-1.3,2.2L502,426
			l-1.3,2.1l-1.3,2.1l-1.3,2l-1.2,2l-1.2,2l-1.2,1.9l-1.2,1.9l-1.2,1.9l-1.2,1.9l-1.2,1.8l-1.2,1.8l-1.2,1.8l-1.2,1.8l-1.2,1.7
			l-1.2,1.7l-1.2,1.7l-1.2,1.7l-1.2,1.7"/>
		<line class="st8" x1="647.1" y1="50.2" x2="100.9" y2="50.2"/>
		<path class="st8" d="M268.2,459.6l-1.2-1.7l-1.2-1.7l-1.2-1.7l-1.2-1.7l-1.2-1.7l-1.2-1.8l-1.2-1.8l-1.2-1.8l-1.2-1.8l-1.2-1.9
			l-1.2-1.9l-1.2-1.9l-1.2-1.9l-1.2-2l-1.2-2l-1.3-2l-1.3-2.1L246,426l-1.3-2.1l-1.3-2.2l-1.3-2.2l-1.3-2.2l-1.3-2.3l-1.3-2.3
			l-1.3-2.3l-1.3-2.4l-1.3-2.4l-1.4-2.5l-1.4-2.5l-1.4-2.6l-1.4-2.6l-1.4-2.6l-1.4-2.7l-1.4-2.7l-1.4-2.8l-1.4-2.8l-1.5-2.9
			l-1.5-2.9l-1.5-3l-1.5-3l-1.5-3.1l-1.5-3.2l-1.5-3.2l-1.5-3.3l-1.6-3.3l-1.6-3.4L205,347l-1.6-3.5l-1.6-3.6l-1.6-3.6l-1.6-3.7
			l-1.6-3.8l-1.7-3.8l-1.7-3.9l-1.7-4l-1.7-4l-1.7-4.1l-1.7-4.2l-1.8-4.3l-1.8-4.4l-1.8-4.4l-1.8-4.5l-1.8-4.6l-1.8-4.7l-1.8-4.8
			l-1.9-4.9l-1.9-4.9l-1.9-5l-1.9-5.1l-1.9-5.2l-1.9-5.3l-2-5.4l-2-5.5l-2-5.6l-2-5.7l-2-5.8l-2.1-5.9l-2.1-6l-2.1-6.1l-2.1-6.2
			l-2.1-6.4l-2.1-6.5l-2.2-6.6l-2.2-6.7l-2.2-6.8l-2.2-6.9l-2.2-7.1l-2.3-7.2l-2.3-7.3l-2.3-7.4l-2.3-7.6l-2.3-7.7l-2.3-7.8l-2.4-8
			l-2.4-8.1l-2.4-8.2l-2.4-8.4l-2.4-8.5l-2.4-8.6"/>
		<line class="st8" x1="287.3" y1="463.6" x2="268.2" y2="462.5"/>
		<line class="st8" x1="295.1" y1="296.1" x2="287.3" y2="463.6"/>
		<line class="st8" x1="298.2" y1="296.1" x2="295.1" y2="296.1"/>
		<line class="st7" x1="94" y1="49.9" x2="654" y2="49.9"/>
		<line class="st9" x1="454.6" y1="334" x2="599.1" y2="203.6"/>
		<circle cx="454.6" cy="334" r="1.3"/>
	</g>
	<g transform="translate(599.1116,203.6461)">
		<circle cx="0" cy="0" r="1.3"/>
	</g>
	<g>
		<line class="st7" x1="318" y1="447.8" x2="430" y2="447.8"/>
		<path class="st8" d="M298.2,296.1l0.8,0.1l0.8,0.1l0.8,0.1l0.8,0.1l0.8,0.1l0.8,0.2l0.8,0.2l0.8,0.2l0.8,0.2l0.8,0.2l0.8,0.2
			l0.8,0.3l0.8,0.3l0.8,0.3l0.8,0.3l0.8,0.3l0.8,0.3l0.8,0.3l0.8,0.4l0.8,0.4l0.8,0.4l0.8,0.4l0.8,0.4l0.8,0.4l0.8,0.4l0.8,0.4
			l0.8,0.4l0.8,0.4l0.8,0.4l0.8,0.4l0.8,0.5l0.8,0.5l0.8,0.5l0.8,0.5l0.8,0.5l0.8,0.5l0.8,0.5l0.8,0.5l0.8,0.5l0.8,0.5l0.8,0.5
			l0.8,0.5l0.8,0.5l0.8,0.5l0.8,0.5l0.8,0.5l0.8,0.5l0.8,0.5l0.8,0.5l0.8,0.5l0.8,0.5l0.8,0.5l0.8,0.5l0.8,0.4l0.8,0.4l0.8,0.4
			l0.8,0.4l0.8,0.4l0.8,0.4l0.8,0.4l0.8,0.4l0.8,0.4l0.8,0.4l0.8,0.4l0.8,0.4l0.8,0.4l0.8,0.4l0.8,0.4l0.8,0.3l0.8,0.3l0.8,0.3
			l0.8,0.3l0.8,0.3l0.8,0.3l0.8,0.3l0.8,0.3l0.8,0.3l0.8,0.3l0.8,0.3l0.8,0.2l0.8,0.2l0.8,0.2l0.8,0.2l0.8,0.2l0.8,0.2l0.8,0.2
			l0.8,0.2l0.8,0.2l0.8,0.1l0.8,0.1l0.8,0.1l0.8,0.1l0.8,0.1l0.8,0.1l0.8,0.1l0.8,0.1l0.8,0l0.8,0l0.8,0l0.8,0l0,0l0.8,0l0.8,0
			l0.8,0l0.8,0l0.8-0.1l0.8-0.1l0.8-0.1l0.8-0.1l0.8-0.1l0.8-0.1l0.8-0.1l0.8-0.1l0.8-0.2l0.8-0.2l0.8-0.2l0.8-0.2l0.8-0.2l0.8-0.2
			l0.8-0.2l0.8-0.2l0.8-0.2l0.8-0.3l0.8-0.3l0.8-0.3l0.8-0.3l0.8-0.3l0.8-0.3l0.8-0.3l0.8-0.3l0.8-0.3l0.8-0.3l0.8-0.3l0.8-0.4
			l0.8-0.4l0.8-0.4l0.8-0.4l0.8-0.4l0.8-0.4l0.8-0.4l0.8-0.4l0.8-0.4l0.8-0.4l0.8-0.4l0.8-0.4l0.8-0.4l0.8-0.4l0.8-0.4l0.8-0.5
			l0.8-0.5l0.8-0.5l0.8-0.5l0.8-0.5l0.8-0.5l0.8-0.5l0.8-0.5l0.8-0.5l0.8-0.5l0.8-0.5l0.8-0.5l0.8-0.5l0.8-0.5l0.8-0.5l0.8-0.5
			l0.8-0.5l0.8-0.5l0.8-0.5l0.8-0.5l0.8-0.5l0.8-0.5l0.8-0.5l0.8-0.4l0.8-0.4l0.8-0.4l0.8-0.4l0.8-0.4l0.8-0.4l0.8-0.4l0.8-0.4
			l0.8-0.4l0.8-0.4l0.8-0.4l0.8-0.4l0.8-0.3l0.8-0.3l0.8-0.3l0.8-0.3l0.8-0.3l0.8-0.3l0.8-0.3l0.8-0.2l0.8-0.2l0.8-0.2l0.8-0.2
			l0.8-0.2l0.8-0.2l0.8-0.1l0.8-0.1l0.8-0.1l0.8-0.1l0.8-0.1"/>
		<line class="st8" x1="449.8" y1="296.1" x2="452.9" y2="296.1"/>
		<line class="st8" x1="452.9" y1="296.1" x2="460.7" y2="463.6"/>
		<line class="st8" x1="460.7" y1="463.6" x2="479.8" y2="462.5"/>
		<path class="st8" d="M647.1,48.6l-2.4,8.6l-2.4,8.5l-2.4,8.4l-2.4,8.2l-2.4,8.1l-2.4,8l-2.3,7.8l-2.3,7.7l-2.3,7.6l-2.3,7.4
			l-2.3,7.3l-2.3,7.2l-2.2,7.1l-2.2,6.9l-2.2,6.8l-2.2,6.7l-2.2,6.6l-2.1,6.5l-2.1,6.4l-2.1,6.2l-2.1,6.1l-2.1,6l-2.1,5.9l-2,5.8
			l-2,5.7l-2,5.6l-2,5.5l-2,5.4l-1.9,5.3l-1.9,5.2l-1.9,5.1l-1.9,5l-1.9,4.9l-1.9,4.9l-1.8,4.8l-1.8,4.7l-1.8,4.6l-1.8,4.5l-1.8,4.4
			l-1.8,4.4l-1.8,4.3l-1.7,4.2l-1.7,4.1l-1.7,4l-1.7,4l-1.7,3.9l-1.7,3.8l-1.6,3.8l-1.6,3.7l-1.6,3.6l-1.6,3.6L543,347l-1.6,3.4
			l-1.6,3.4l-1.6,3.3l-1.5,3.3l-1.5,3.2l-1.5,3.2l-1.5,3.1l-1.5,3l-1.5,3l-1.5,2.9l-1.5,2.9l-1.4,2.8l-1.4,2.8l-1.4,2.7l-1.4,2.7
			l-1.4,2.6l-1.4,2.6l-1.4,2.6l-1.4,2.5l-1.4,2.5l-1.3,2.4l-1.3,2.4l-1.3,2.3l-1.3,2.3l-1.3,2.3l-1.3,2.2l-1.3,2.2l-1.3,2.2L502,426
			l-1.3,2.1l-1.3,2.1l-1.3,2l-1.2,2l-1.2,2l-1.2,1.9l-1.2,1.9l-1.2,1.9l-1.2,1.9l-1.2,1.8l-1.2,1.8l-1.2,1.8l-1.2,1.8l-1.2,1.7
			l-1.2,1.7l-1.2,1.7l-1.2,1.7l-1.2,1.7"/>
		<line class="st8" x1="647.1" y1="50.2" x2="100.9" y2="50.2"/>
		<path class="st8" d="M268.2,459.6l-1.2-1.7l-1.2-1.7l-1.2-1.7l-1.2-1.7l-1.2-1.7l-1.2-1.8l-1.2-1.8l-1.2-1.8l-1.2-1.8l-1.2-1.9
			l-1.2-1.9l-1.2-1.9l-1.2-1.9l-1.2-2l-1.2-2l-1.3-2l-1.3-2.1L246,426l-1.3-2.1l-1.3-2.2l-1.3-2.2l-1.3-2.2l-1.3-2.3l-1.3-2.3
			l-1.3-2.3l-1.3-2.4l-1.3-2.4l-1.4-2.5l-1.4-2.5l-1.4-2.6l-1.4-2.6l-1.4-2.6l-1.4-2.7l-1.4-2.7l-1.4-2.8l-1.4-2.8l-1.5-2.9
			l-1.5-2.9l-1.5-3l-1.5-3l-1.5-3.1l-1.5-3.2l-1.5-3.2l-1.5-3.3l-1.6-3.3l-1.6-3.4L205,347l-1.6-3.5l-1.6-3.6l-1.6-3.6l-1.6-3.7
			l-1.6-3.8l-1.7-3.8l-1.7-3.9l-1.7-4l-1.7-4l-1.7-4.1l-1.7-4.2l-1.8-4.3l-1.8-4.4l-1.8-4.4l-1.8-4.5l-1.8-4.6l-1.8-4.7l-1.8-4.8
			l-1.9-4.9l-1.9-4.9l-1.9-5l-1.9-5.1l-1.9-5.2l-1.9-5.3l-2-5.4l-2-5.5l-2-5.6l-2-5.7l-2-5.8l-2.1-5.9l-2.1-6l-2.1-6.1l-2.1-6.2
			l-2.1-6.4l-2.1-6.5l-2.2-6.6l-2.2-6.7l-2.2-6.8l-2.2-6.9l-2.2-7.1l-2.3-7.2l-2.3-7.3l-2.3-7.4l-2.3-7.6l-2.3-7.7l-2.3-7.8l-2.4-8
			l-2.4-8.1l-2.4-8.2l-2.4-8.4l-2.4-8.5l-2.4-8.6"/>
		<line class="st8" x1="287.3" y1="463.6" x2="268.2" y2="462.5"/>
		<line class="st8" x1="295.1" y1="296.1" x2="287.3" y2="463.6"/>
		<line class="st8" x1="298.2" y1="296.1" x2="295.1" y2="296.1"/>
		<line class="st7" x1="94" y1="49.9" x2="654" y2="49.9"/>
		<line class="st9" x1="599.1" y1="203.6" x2="600.9" y2="50.2"/>
		<circle cx="599.1" cy="203.6" r="1.3"/>
	</g>
	<g transform="translate(600.886,50.2379)">
		<circle cx="0" cy="0" r="1.3"/>
	</g>
	<g>
		<line class="st10" x1="318" y1="447.8" x2="430" y2="447.8"/>
		<path class="st11" d="M298.2,296.1l0.8,0.1l0.8,0.1l0.8,0.1l0.8,0.1l0.8,0.1l0.8,0.2l0.8,0.2l0.8,0.2l0.8,0.2l0.8,0.2l0.8,0.2
			l0.8,0.3l0.8,0.3l0.8,0.3l0.8,0.3l0.8,0.3l0.8,0.3l0.8,0.3l0.8,0.4l0.8,0.4l0.8,0.4l0.8,0.4l0.8,0.4l0.8,0.4l0.8,0.4l0.8,0.4
			l0.8,0.4l0.8,0.4l0.8,0.4l0.8,0.4l0.8,0.5l0.8,0.5l0.8,0.5l0.8,0.5l0.8,0.5l0.8,0.5l0.8,0.5l0.8,0.5l0.8,0.5l0.8,0.5l0.8,0.5
			l0.8,0.5l0.8,0.5l0.8,0.5l0.8,0.5l0.8,0.5l0.8,0.5l0.8,0.5l0.8,0.5l0.8,0.5l0.8,0.5l0.8,0.5l0.8,0.5l0.8,0.4l0.8,0.4l0.8,0.4
			l0.8,0.4l0.8,0.4l0.8,0.4l0.8,0.4l0.8,0.4l0.8,0.4l0.8,0.4l0.8,0.4l0.8,0.4l0.8,0.4l0.8,0.4l0.8,0.4l0.8,0.3l0.8,0.3l0.8,0.3
			l0.8,0.3l0.8,0.3l0.8,0.3l0.8,0.3l0.8,0.3l0.8,0.3l0.8,0.3l0.8,0.3l0.8,0.2l0.8,0.2l0.8,0.2l0.8,0.2l0.8,0.2l0.8,0.2l0.8,0.2
			l0.8,0.2l0.8,0.2l0.8,0.1l0.8,0.1l0.8,0.1l0.8,0.1l0.8,0.1l0.8,0.1l0.8,0.1l0.8,0.1l0.8,0l0.8,0l0.8,0l0.8,0l0,0l0.8,0l0.8,0
			l0.8,0l0.8,0l0.8-0.1l0.8-0.1l0.8-0.1l0.8-0.1l0.8-0.1l0.8-0.1l0.8-0.1l0.8-0.1l0.8-0.2l0.8-0.2l0.8-0.2l0.8-0.2l0.8-0.2l0.8-0.2
			l0.8-0.2l0.8-0.2l0.8-0.2l0.8-0.3l0.8-0.3l0.8-0.3l0.8-0.3l0.8-0.3l0.8-0.3l0.8-0.3l0.8-0.3l0.8-0.3l0.8-0.3l0.8-0.3l0.8-0.4
			l0.8-0.4l0.8-0.4l0.8-0.4l0.8-0.4l0.8-0.4l0.8-0.4l0.8-0.4l0.8-0.4l0.8-0.4l0.8-0.4l0.8-0.4l0.8-0.4l0.8-0.4l0.8-0.4l0.8-0.5
			l0.8-0.5l0.8-0.5l0.8-0.5l0.8-0.5l0.8-0.5l0.8-0.5l0.8-0.5l0.8-0.5l0.8-0.5l0.8-0.5l0.8-0.5l0.8-0.5l0.8-0.5l0.8-0.5l0.8-0.5
			l0.8-0.5l0.8-0.5l0.8-0.5l0.8-0.5l0.8-0.5l0.8-0.5l0.8-0.5l0.8-0.4l0.8-0.4l0.8-0.4l0.8-0.4l0.8-0.4l0.8-0.4l0.8-0.4l0.8-0.4
			l0.8-0.4l0.8-0.4l0.8-0.4l0.8-0.4l0.8-0.3l0.8-0.3l0.8-0.3l0.8-0.3l0.8-0.3l0.8-0.3l0.8-0.3l0.8-0.2l0.8-0.2l0.8-0.2l0.8-0.2
			l0.8-0.2l0.8-0.2l0.8-0.1l0.8-0.1l0.8-0.1l0.8-0.1l0.8-0.1"/>
		<line class="st8" x1="449.8" y1="296.1" x2="452.9" y2="296.1"/>
		<line class="st11" x1="452.9" y1="296.1" x2="460.7" y2="463.6"/>
		<line class="st8" x1="460.7" y1="463.6" x2="479.8" y2="462.5"/>
		<path class="st11" d="M647.1,48.6l-2.4,8.6l-2.4,8.5l-2.4,8.4l-2.4,8.2l-2.4,8.1l-2.4,8l-2.3,7.8l-2.3,7.7l-2.3,7.6l-2.3,7.4
			l-2.3,7.3l-2.3,7.2l-2.2,7.1l-2.2,6.9l-2.2,6.8l-2.2,6.7l-2.2,6.6l-2.1,6.5l-2.1,6.4l-2.1,6.2l-2.1,6.1l-2.1,6l-2.1,5.9l-2,5.8
			l-2,5.7l-2,5.6l-2,5.5l-2,5.4l-1.9,5.3l-1.9,5.2l-1.9,5.1l-1.9,5l-1.9,4.9l-1.9,4.9l-1.8,4.8l-1.8,4.7l-1.8,4.6l-1.8,4.5l-1.8,4.4
			l-1.8,4.4l-1.8,4.3l-1.7,4.2l-1.7,4.1l-1.7,4l-1.7,4l-1.7,3.9l-1.7,3.8l-1.6,3.8l-1.6,3.7l-1.6,3.6l-1.6,3.6L543,347l-1.6,3.4
			l-1.6,3.4l-1.6,3.3l-1.5,3.3l-1.5,3.2l-1.5,3.2l-1.5,3.1l-1.5,3l-1.5,3l-1.5,2.9l-1.5,2.9l-1.4,2.8l-1.4,2.8l-1.4,2.7l-1.4,2.7
			l-1.4,2.6l-1.4,2.6l-1.4,2.6l-1.4,2.5l-1.4,2.5l-1.3,2.4l-1.3,2.4l-1.3,2.3l-1.3,2.3l-1.3,2.3l-1.3,2.2l-1.3,2.2l-1.3,2.2L502,426
			l-1.3,2.1l-1.3,2.1l-1.3,2l-1.2,2l-1.2,2l-1.2,1.9l-1.2,1.9l-1.2,1.9l-1.2,1.9l-1.2,1.8l-1.2,1.8l-1.2,1.8l-1.2,1.8l-1.2,1.7
			l-1.2,1.7l-1.2,1.7l-1.2,1.7l-1.2,1.7"/>
		<line class="st8" x1="647.1" y1="50.2" x2="100.9" y2="50.2"/>
		<path class="st11" d="M268.2,459.6l-1.2-1.7l-1.2-1.7l-1.2-1.7l-1.2-1.7l-1.2-1.7l-1.2-1.8l-1.2-1.8l-1.2-1.8l-1.2-1.8l-1.2-1.9
			l-1.2-1.9l-1.2-1.9l-1.2-1.9l-1.2-2l-1.2-2l-1.3-2l-1.3-2.1L246,426l-1.3-2.1l-1.3-2.2l-1.3-2.2l-1.3-2.2l-1.3-2.3l-1.3-2.3
			l-1.3-2.3l-1.3-2.4l-1.3-2.4l-1.4-2.5l-1.4-2.5l-1.4-2.6l-1.4-2.6l-1.4-2.6l-1.4-2.7l-1.4-2.7l-1.4-2.8l-1.4-2.8l-1.5-2.9
			l-1.5-2.9l-1.5-3l-1.5-3l-1.5-3.1l-1.5-3.2l-1.5-3.2l-1.5-3.3l-1.6-3.3l-1.6-3.4L205,347l-1.6-3.5l-1.6-3.6l-1.6-3.6l-1.6-3.7
			l-1.6-3.8l-1.7-3.8l-1.7-3.9l-1.7-4l-1.7-4l-1.7-4.1l-1.7-4.2l-1.8-4.3l-1.8-4.4l-1.8-4.4l-1.8-4.5l-1.8-4.6l-1.8-4.7l-1.8-4.8
			l-1.9-4.9l-1.9-4.9l-1.9-5l-1.9-5.1l-1.9-5.2l-1.9-5.3l-2-5.4l-2-5.5l-2-5.6l-2-5.7l-2-5.8l-2.1-5.9l-2.1-6l-2.1-6.1l-2.1-6.2
			l-2.1-6.4l-2.1-6.5l-2.2-6.6l-2.2-6.7l-2.2-6.8l-2.2-6.9l-2.2-7.1l-2.3-7.2l-2.3-7.3l-2.3-7.4l-2.3-7.6l-2.3-7.7l-2.3-7.8l-2.4-8
			l-2.4-8.1l-2.4-8.2l-2.4-8.4l-2.4-8.5l-2.4-8.6"/>
		<line class="st11" x1="287.3" y1="463.6" x2="268.2" y2="462.5"/>
		<line class="st11" x1="295.1" y1="296.1" x2="287.3" y2="463.6"/>
		<line class="st8" x1="298.2" y1="296.1" x2="295.1" y2="296.1"/>
		<line class="st10" x1="94" y1="49.9" x2="654" y2="49.9"/>
		<line class="st10" x1="600.9" y1="50.2" x2="600.9" y2="49.9"/>
	</g>
</g>
</svg>
